<?xml version="1.0" encoding="UTF-8"?>
<svg version="1.1" xmlns="http://www.w3.org/2000/svg" width="260" height="260">
<path d="M0 0 C13.02437103 11.24661923 22.50115014 27.34743982 24.12109375 44.71875 C24.18490234 45.72421875 24.18490234 45.72421875 24.25 46.75 C24.32927734 47.81734375 24.32927734 47.81734375 24.41015625 48.90625 C25.06384879 65.95909895 19.18664358 82.73017445 8.12890625 95.7421875 C7.50886719 96.40476562 6.88882813 97.06734375 6.25 97.75 C5.55777344 98.49507813 4.86554688 99.24015625 4.15234375 100.0078125 C-0.64833156 104.73635746 -5.71989546 108.09779055 -11.6875 111.125 C-12.31906006 111.44670166 -12.95062012 111.76840332 -13.60131836 112.09985352 C-22.87010766 116.54450175 -31.94882224 118.27573346 -42.1875 118.125 C-43.70234985 118.1086853 -43.70234985 118.1086853 -45.24780273 118.09204102 C-64.31698791 117.68428389 -78.65669597 110.14453035 -91.75 96.75 C-92.34296875 96.18925781 -92.9359375 95.62851563 -93.546875 95.05078125 C-104.78836483 83.53731989 -109.2945029 65.85054004 -109.17016602 50.26464844 C-108.50386407 31.26759241 -100.58239752 14.66274015 -86.75 1.75 C-62.04812403 -19.72358381 -25.65586391 -19.98197093 0 0 Z M-70.75 30.75 C-76.28958285 39.42783277 -77.75793566 47.5234168 -76.75 57.75 C-73.62180317 68.74411915 -68.21741652 75.38848436 -58.51953125 81.26953125 C-50.24278912 85.69391103 -41.71236792 85.80810957 -32.8125 83.3125 C-24.08714067 80.16291238 -17.1599072 73.79641502 -12.64453125 65.70703125 C-8.87044693 57.45019175 -8.52085472 48.72311267 -11.375 40.125 C-15.19044877 30.71885893 -20.89498524 24.7444443 -29.75 19.75 C-45.22198755 13.4090215 -60.18756503 18.70807502 -70.75 30.75 Z " fill="#E87109" transform="translate(219.75,78.25)"/>
<path d="M0 0 C-1.25611365 4.12437196 -2.78359096 7.6365246 -5.00390625 11.328125 C-5.57947266 12.29234375 -6.15503906 13.2565625 -6.74804688 14.25 C-7.64620117 15.735 -7.64620117 15.735 -8.5625 17.25 C-9.7517074 19.23413213 -10.94052925 21.2184954 -12.12890625 23.203125 C-12.65556885 24.07614258 -13.18223145 24.94916016 -13.72485352 25.84863281 C-14.5294331 27.20608166 -15.29430663 28.58861326 -16 30 C-19.46927562 28.3347477 -22.60357528 26.34418483 -25.8046875 24.21875 C-33.54737575 19.92031809 -43.18522439 19.51681086 -51.6953125 21.6875 C-53.95090759 22.63060596 -55.9348367 23.69355092 -58 25 C-58.70769531 25.43570313 -59.41539063 25.87140625 -60.14453125 26.3203125 C-68.76858263 32.17634739 -72.05191859 39.97266622 -74 50 C-74.92670234 58.80367227 -71.79863278 66.86596249 -66.734375 73.9609375 C-61.09839254 80.58702498 -53.57266052 84.6628649 -45 86 C-35.4571835 86.17509755 -27.37629404 84.4417233 -19.91015625 78.2734375 C-19.27980469 77.85320312 -18.64945312 77.43296875 -18 77 C-13.69841907 78.43386031 -12.70739563 81.63788709 -10.6875 85.4375 C-9.89338821 86.89923223 -9.09781388 88.36017085 -8.30078125 89.8203125 C-7.91229004 90.53477539 -7.52379883 91.24923828 -7.12353516 91.98535156 C-5.19569387 95.44222821 -3.05627053 98.76536197 -0.8984375 102.08203125 C0 104 0 104 -1 107 C-17.28963432 118.61501012 -35.62839763 121.39685552 -55.27197266 118.68652344 C-70.81669095 115.71513021 -85.73087718 105.75818038 -95 93 C-106.3573507 76.01764763 -109.02316709 58.56468056 -106.5625 38.41796875 C-102.86608734 21.16034213 -92.10768498 6.89010034 -77.70996094 -2.90869141 C-52.93742038 -18.71869373 -23.7329595 -15.821973 0 0 Z " fill="#E87109" transform="translate(125,77)"/>
<path d="M0 0 C0.58265625 0.50789063 1.1653125 1.01578125 1.765625 1.5390625 C0.2264449 5.20658255 -1.98922952 7.52486823 -4.8046875 10.3046875 C-5.70058594 11.19414063 -6.59648437 12.08359375 -7.51953125 13 C-8.45667969 13.92039062 -9.39382812 14.84078125 -10.359375 15.7890625 C-11.31426137 16.73391106 -12.26869359 17.67921883 -13.22265625 18.625 C-15.55546587 20.93424588 -17.89281586 23.23869453 -20.234375 25.5390625 C-23.68893669 23.84095112 -26.83448875 21.88554568 -30.0390625 19.7578125 C-37.95729802 15.36192374 -47.39430718 15.28874988 -56.1171875 17.15625 C-64.58022608 20.15412887 -71.13289023 25.82113507 -75.234375 33.7890625 C-78.89636525 41.77423569 -79.74561751 50.36456816 -77.2578125 58.8828125 C-75.1583087 64.08649063 -72.87633048 68.2434227 -69.234375 72.5390625 C-70.7735551 76.20658255 -72.98922952 78.52486823 -75.8046875 81.3046875 C-76.70058594 82.19414062 -77.59648437 83.08359375 -78.51953125 84 C-79.45667969 84.92039062 -80.39382812 85.84078125 -81.359375 86.7890625 C-82.31426137 87.73391106 -83.26869359 88.67921883 -84.22265625 89.625 C-86.55546587 91.93424588 -88.89281586 94.23869453 -91.234375 96.5390625 C-102.90636627 87.43453871 -109.28642426 73.07654673 -111.234375 58.5390625 C-112.42730367 39.80421559 -108.91316399 21.39905694 -96.37597656 6.70263672 C-70.63711568 -21.75460912 -29.37791813 -24.66636522 0 0 Z " fill="#F8AA00" transform="translate(222.234375,80.4609375)"/>
<path d="M0 0 C2.28957617 1.14064753 4.56889572 2.29501195 6.83984375 3.47265625 C7.86207031 3.99730469 8.88429688 4.52195313 9.9375 5.0625 C10.95714844 5.58972656 11.97679687 6.11695313 13.02734375 6.66015625 C20.52194663 10.03814415 29.2493974 9.74822176 36.9296875 6.921875 C40.2468711 5.28789139 43.23394849 3.63288741 46.08984375 1.2734375 C46.72019531 0.85320312 47.35054688 0.43296875 48 0 C52.30158093 1.43386031 53.29260437 4.63788709 55.3125 8.4375 C56.10661179 9.89923223 56.90218612 11.36017085 57.69921875 12.8203125 C58.28195557 13.89200684 58.28195557 13.89200684 58.87646484 14.98535156 C60.80430613 18.44222821 62.94372947 21.76536197 65.1015625 25.08203125 C66 27 66 27 65 30 C48.71036568 41.61501012 30.37160237 44.39685552 10.72802734 41.68652344 C-2.02279733 39.24918663 -12.30677776 32.28444591 -22 24 C-20.4608199 20.33247995 -18.24514548 18.01419427 -15.4296875 15.234375 C-14.08583984 13.90019531 -14.08583984 13.90019531 -12.71484375 12.5390625 C-11.77769531 11.61867187 -10.84054688 10.69828125 -9.875 9.75 C-8.92011363 8.80515144 -7.96568141 7.85984367 -7.01171875 6.9140625 C-4.67890913 4.60481662 -2.34155914 2.30036797 0 0 Z " fill="#F8AA00" transform="translate(59,154)"/>
<path d="M0 0 C-1.25611365 4.12437196 -2.78359096 7.6365246 -5.00390625 11.328125 C-5.57947266 12.29234375 -6.15503906 13.2565625 -6.74804688 14.25 C-7.64620117 15.735 -7.64620117 15.735 -8.5625 17.25 C-9.7517074 19.23413213 -10.94052925 21.2184954 -12.12890625 23.203125 C-12.65556885 24.07614258 -13.18223145 24.94916016 -13.72485352 25.84863281 C-14.5294331 27.20608166 -15.29430663 28.58861326 -16 30 C-19.46927562 28.3347477 -22.60357528 26.34418483 -25.8046875 24.21875 C-33.53315906 19.92821063 -43.29482081 19.43671644 -51.765625 21.7578125 C-53.96397748 22.70744095 -55.96292158 23.74380164 -58 25 C-58.61875 25.3815625 -59.2375 25.763125 -59.875 26.15625 C-61.27645357 27.06459954 -62.64335345 28.02599735 -64 29 C-67.66752005 27.4608199 -69.98580573 25.24514548 -72.765625 22.4296875 C-73.65507813 21.53378906 -74.54453125 20.63789062 -75.4609375 19.71484375 C-76.38132812 18.77769531 -77.30171875 17.84054688 -78.25 16.875 C-79.19484856 15.92011363 -80.14015633 14.96568141 -81.0859375 14.01171875 C-83.39518338 11.67890913 -85.69963203 9.34155914 -88 7 C-66.13561448 -20.02642304 -26.65962607 -17.77308405 0 0 Z " fill="#F8AA00" transform="translate(125,77)"/>
</svg>
