<?xml version="1.0" encoding="UTF-8"?>
<svg version="1.1" xmlns="http://www.w3.org/2000/svg" width="474" height="291">
<path d="M0 0 C156.42 0 312.84 0 474 0 C474 96.03 474 192.06 474 291 C317.58 291 161.16 291 0 291 C0 194.97 0 98.94 0 0 Z " fill="#FEFEFE" transform="translate(0,0)"/>
<path d="M0 0 C3.50234544 2.11428412 3.50234544 2.11428412 7.0703125 4.11328125 C14.93597267 8.7040753 19.75078454 15.75903816 25 23 C25.61230469 23.82113281 26.22460938 24.64226562 26.85546875 25.48828125 C38.70257237 42.14731899 42.53912912 64.27456702 39.66748047 84.32128906 C38.7679761 88.98870573 37.46554251 93.48124393 36 98 C35.71125 98.8971875 35.4225 99.794375 35.125 100.71875 C30.79593648 112.62367468 24.39021811 122.55425257 15 131 C14.175 131.86625 13.35 132.7325 12.5 133.625 C-5.63755077 150.85567323 -27.37667976 155.66057569 -51.7421875 155.3359375 C-73.5561725 154.56570439 -92.83176632 143.04430958 -107.42382812 127.48144531 C-120 113.72461752 -120 113.72461752 -120 106 C-120.66 106 -121.32 106 -122 106 C-126.34153766 94.66806987 -128.58284548 84.24690111 -128.5625 72.0625 C-128.56443359 70.96317139 -128.56636719 69.86384277 -128.56835938 68.73120117 C-128.35524834 57.95698519 -126.24596982 47.62750047 -121.75 37.8125 C-121.44771484 37.13960937 -121.14542969 36.46671875 -120.83398438 35.7734375 C-115.51527685 24.29912437 -107.21788852 14.57478002 -98 6 C-97.34 6 -96.68 6 -96 6 C-96 5.34 -96 4.68 -96 4 C-90.85402431 0.2398925 -85.06715193 -2.59940199 -79.20703125 -5.0625 C-77.72899196 -5.6903397 -76.26721515 -6.35784107 -74.82421875 -7.0625 C-51.41947038 -18.36994504 -21.39687472 -12.97668492 0 0 Z " fill="#F6AB02" transform="translate(341,74)"/>
<path d="M0 0 C1.24007812 -0.00773437 2.48015625 -0.01546875 3.7578125 -0.0234375 C5.55605469 -0.01957031 5.55605469 -0.01957031 7.390625 -0.015625 C9.00759277 -0.01224121 9.00759277 -0.01224121 10.65722656 -0.00878906 C13.96568958 0.26804791 16.6472175 1.09790148 19.75 2.25 C20.46800781 2.42660156 21.18601562 2.60320312 21.92578125 2.78515625 C27.95502802 4.27317876 33.22567894 6.86780446 38.6875 9.75 C39.43362549 10.14195557 40.17975098 10.53391113 40.94848633 10.93774414 C47.47161959 14.45923952 47.47161959 14.45923952 49.75 17.25 C49.4375 19.9375 49.4375 19.9375 48.75 22.25 C48.09 22.25 47.43 22.25 46.75 22.25 C46.4096875 23.5184375 46.4096875 23.5184375 46.0625 24.8125 C44.83013025 28.04013507 43.31550559 30.2549569 41.25 32.984375 C38.86376468 36.58858461 37.04001057 40.47876981 35.16137695 44.36328125 C33.81972527 47.13412501 32.46219366 49.68170951 30.75 52.25 C27.50724961 51.13530455 24.78891121 49.6796963 21.9375 47.8125 C11.80229395 41.31753809 1.46800025 40.55249999 -10.25 41.25 C-13.17469937 41.98117484 -15.49770278 42.97970898 -18.25 44.25 C-19.57 44.25 -20.89 44.25 -22.25 44.25 C-22.25 44.91 -22.25 45.57 -22.25 46.25 C-23.2090625 46.4046875 -23.2090625 46.4046875 -24.1875 46.5625 C-24.868125 46.789375 -25.54875 47.01625 -26.25 47.25 C-26.58 48.24 -26.91 49.23 -27.25 50.25 C-28.57596504 50.93120403 -29.91040547 51.59600557 -31.25 52.25 C-39.19238113 60.01469922 -43.3648693 70.07081853 -43.73999023 81.07666016 C-43.79064784 93.02444128 -41.50368822 101.62041391 -34.25 111.25 C-33.84394531 111.86746094 -33.43789062 112.48492187 -33.01953125 113.12109375 C-28.24709799 119.71439385 -19.83908186 123.30110171 -12.30078125 125.9296875 C2.69067351 128.27120996 13.64735091 124.05730973 26.75 117.25 C28.08200532 116.58068389 29.41476916 115.91285807 30.75 115.25 C34.00552112 120.64009358 37.22076215 126.049913 40.375 131.5 C42.21836722 134.68399792 44.07321482 137.80169814 46.1875 140.8125 C47.75 143.25 47.75 143.25 47.75 146.25 C48.41 146.25 49.07 146.25 49.75 146.25 C50.08 147.57 50.41 148.89 50.75 150.25 C40.44869635 156.85838347 30.68245638 162.1760651 18.75 165.25 C18.08009033 165.42805176 17.41018066 165.60610352 16.7199707 165.78955078 C1.85984816 169.46638376 -13.84641769 168.00958029 -28.25 163.25 C-29.38824219 162.88777344 -30.52648437 162.52554688 -31.69921875 162.15234375 C-39.73237139 159.34787034 -46.44514414 155.32414107 -53.25 150.25 C-53.95640625 149.72921875 -54.6628125 149.2084375 -55.390625 148.671875 C-72.24536722 135.10586297 -82.81972987 113.49236115 -85.25 92.25 C-86.61049221 71.29559046 -82.44395561 51.73000533 -70.25 34.25 C-69.59 34.25 -68.93 34.25 -68.25 34.25 C-67.9096875 33.1671875 -67.9096875 33.1671875 -67.5625 32.0625 C-65.98664872 28.68567583 -64.04123384 26.69232961 -61.25 24.25 C-60.59 24.25 -59.93 24.25 -59.25 24.25 C-59.064375 23.693125 -58.87875 23.13625 -58.6875 22.5625 C-56.60889174 19.21865193 -53.64186398 17.20192172 -50.25 15.25 C-49.59 15.25 -48.93 15.25 -48.25 15.25 C-48.25 14.59 -48.25 13.93 -48.25 13.25 C-31.92998035 4.87834727 -18.65272902 -0.11780671 0 0 Z " fill="#EA7304" transform="translate(178.25,61.75)"/>
<path d="M0 0 C3.15362482 0.16561706 4.03611535 1.03979795 6.18359375 3.40625 C10.54800859 9.39691993 14.72485961 15.32796679 18 22 C18.35707031 22.72703125 18.71414063 23.4540625 19.08203125 24.203125 C28.04998204 43.41536415 28.49055549 64.98745391 22 85 C21.71125 85.8971875 21.4225 86.794375 21.125 87.71875 C16.79593648 99.62367468 10.39021811 109.55425257 1 118 C0.175 118.86625 -0.65 119.7325 -1.5 120.625 C-19.63755077 137.85567323 -41.37667976 142.66057569 -65.7421875 142.3359375 C-84.79313484 141.66326488 -103.59697815 132.33210639 -117 119 C-116.34 117.68 -115.68 116.36 -115 115 C-114.34 115 -113.68 115 -113 115 C-112.7628125 114.43796875 -112.525625 113.8759375 -112.28125 113.296875 C-110.71052303 110.48105958 -108.78528536 108.52044584 -106.5 106.25 C-105.7059375 105.45078125 -104.911875 104.6515625 -104.09375 103.828125 C-102 102 -102 102 -100 102 C-99.505 100.515 -99.505 100.515 -99 99 C-98.34 99 -97.68 99 -97 99 C-97 98.34 -97 97.68 -97 97 C-95.34614767 95.65080468 -93.678298 94.31866272 -92 93 C-91.34 92.01 -90.68 91.02 -90 90 C-87.58803831 91.11321309 -85.54597345 92.32430468 -83.375 93.875 C-72.40713862 100.7806905 -59.37429402 103.11415552 -46.625 100.25 C-35.76234298 96.5042562 -25.82671133 90.17898046 -20 80 C-17.37931532 74.17905615 -15.47366962 68.39453989 -15 62 C-14.93683594 61.3503125 -14.87367188 60.700625 -14.80859375 60.03125 C-14.18701303 48.96310292 -18.94227428 38.96543406 -25 30 C-25.99 28.515 -25.99 28.515 -27 27 C-26.34 27 -25.68 27 -25 27 C-25 26.34 -25 25.68 -25 25 C-23.56099961 23.76179036 -22.11607973 22.52953964 -20.63671875 21.33984375 C-15.89305724 17.45660771 -11.97443963 12.73944004 -7.93359375 8.15625 C-5.70536977 5.67144265 -3.39534585 3.32275961 -1 1 C-0.67 0.67 -0.34 0.34 0 0 Z " fill="#E97305" transform="translate(355,87)"/>
<path d="M0 0 C11.83031255 8.06287888 17.95290093 19.23611501 21 33 C22.44359431 44.60288925 18.30032673 56.97234749 11.375 66.1875 C4.18559983 74.70232032 -4.91553869 80.48176469 -16 82 C-33.00137758 82.85704483 -43.213351 79.58813245 -55.93359375 68.28125 C-58.06801631 65.92491205 -59.03204187 64.00437276 -60 61 C-60.66 61 -61.32 61 -62 61 C-67.44373877 48.73214585 -69.28621842 36.73244674 -65.5 23.625 C-61.29506911 12.8692294 -53.8258089 3.7688358 -43.34765625 -1.27734375 C-29.3959399 -7.03421937 -13.59803935 -6.92577794 0 0 Z " fill="#FEFEFC" transform="translate(320,107)"/>
<path d="M0 0 C1.24007812 -0.00773437 2.48015625 -0.01546875 3.7578125 -0.0234375 C5.55605469 -0.01957031 5.55605469 -0.01957031 7.390625 -0.015625 C9.00759277 -0.01224121 9.00759277 -0.01224121 10.65722656 -0.00878906 C13.96568958 0.26804791 16.6472175 1.09790148 19.75 2.25 C20.46800781 2.42660156 21.18601562 2.60320312 21.92578125 2.78515625 C27.95502802 4.27317876 33.22567894 6.86780446 38.6875 9.75 C39.43362549 10.14195557 40.17975098 10.53391113 40.94848633 10.93774414 C47.47161959 14.45923952 47.47161959 14.45923952 49.75 17.25 C49.4375 19.9375 49.4375 19.9375 48.75 22.25 C48.09 22.25 47.43 22.25 46.75 22.25 C46.523125 23.095625 46.29625 23.94125 46.0625 24.8125 C44.83013025 28.04013507 43.31550559 30.2549569 41.25 32.984375 C38.86376468 36.58858461 37.04001057 40.47876981 35.16137695 44.36328125 C33.81972527 47.13412501 32.46219366 49.68170951 30.75 52.25 C27.50724961 51.13530455 24.78891121 49.6796963 21.9375 47.8125 C11.80229395 41.31753809 1.46800025 40.55249999 -10.25 41.25 C-13.17469937 41.98117484 -15.49770278 42.97970898 -18.25 44.25 C-19.57 44.25 -20.89 44.25 -22.25 44.25 C-22.25 44.91 -22.25 45.57 -22.25 46.25 C-23.2090625 46.4046875 -23.2090625 46.4046875 -24.1875 46.5625 C-24.868125 46.789375 -25.54875 47.01625 -26.25 47.25 C-26.58 48.24 -26.91 49.23 -27.25 50.25 C-29.1875 51.3125 -29.1875 51.3125 -31.25 52.25 C-31.91 52.91 -32.57 53.57 -33.25 54.25 C-33.58 53.569375 -33.91 52.88875 -34.25 52.1875 C-36.55752813 48.79831805 -39.21208992 46.57233477 -42.328125 43.9453125 C-44.62101596 41.9227217 -46.39800213 39.67675583 -48.25 37.25 C-50.83350893 34.54046625 -53.13143016 32.32904656 -56.25 30.25 C-56.25 29.59 -56.25 28.93 -56.25 28.25 C-56.91 28.25 -57.57 28.25 -58.25 28.25 C-59.875 26.25 -59.875 26.25 -61.25 24.25 C-60.59 24.25 -59.93 24.25 -59.25 24.25 C-59.064375 23.693125 -58.87875 23.13625 -58.6875 22.5625 C-56.60889174 19.21865193 -53.64186398 17.20192172 -50.25 15.25 C-49.59 15.25 -48.93 15.25 -48.25 15.25 C-48.25 14.59 -48.25 13.93 -48.25 13.25 C-31.92998035 4.87834727 -18.65272902 -0.11780671 0 0 Z " fill="#F7AB02" transform="translate(178.25,61.75)"/>
<path d="M0 0 C0.9075 0.86625 1.815 1.7325 2.75 2.625 C13.75057537 12.09584301 25.10984679 13.73753026 39 13 C46.50477364 11.68415559 53.30983731 7.4757864 60 4 C61.33200532 3.33068389 62.66476916 2.66285807 64 2 C67.25552112 7.39009358 70.47076215 12.799913 73.625 18.25 C75.46836722 21.43399792 77.32321482 24.55169814 79.4375 27.5625 C81 30 81 30 81 33 C81.66 33 82.32 33 83 33 C83.495 34.98 83.495 34.98 84 37 C73.69869635 43.60838347 63.93245638 48.9260651 52 52 C51.33009033 52.17805176 50.66018066 52.35610352 49.9699707 52.53955078 C35.10984816 56.21638376 19.40358231 54.75958029 5 50 C3.86175781 49.63777344 2.72351563 49.27554688 1.55078125 48.90234375 C-9.84318136 44.92456982 -19.25983942 38.22603349 -28 30 C-24.63273657 25.77645652 -21.73475848 22.70557627 -17 20 C-16.67 19.01 -16.34 18.02 -16 17 C-15.34 17 -14.68 17 -14 17 C-13.71125 16.38125 -13.4225 15.7625 -13.125 15.125 C-12 13 -12 13 -10 11 C-9.01 11 -8.02 11 -7 11 C-6.34 9.35 -5.68 7.7 -5 6 C-4.34 6 -3.68 6 -3 6 C-3 5.34 -3 4.68 -3 4 C-2.34 3.67 -1.68 3.34 -1 3 C-0.67 2.01 -0.34 1.02 0 0 Z " fill="#F7AB02" transform="translate(145,175)"/>
<path d="M0 0 C2.52671978 0.91880719 3.56050219 1.49700328 5.0625 3.75 C5.4487557 7.99881273 5.3922964 11.10969312 3.0625 14.75 C2.4025 14.75 1.7425 14.75 1.0625 14.75 C1.0625 17.72 1.0625 20.69 1.0625 23.75 C2.0525 23.75 3.0425 23.75 4.0625 23.75 C3.11413157 27.06928949 2.11810539 29.66751482 0.1796875 32.54296875 C-1.94607824 35.76299398 -3.52304226 38.90319519 -5.0625 42.4375 C-5.56007812 43.55511719 -6.05765625 44.67273438 -6.5703125 45.82421875 C-10.12143614 55.16094985 -10.30714331 65.06902787 -10.5625 74.9375 C-10.62050781 76.7947168 -10.62050781 76.7947168 -10.6796875 78.68945312 C-10.77297069 81.70949626 -10.85876406 84.7295486 -10.9375 87.75 C-11.2675 87.75 -11.5975 87.75 -11.9375 87.75 C-11.98741513 83.09099845 -12.0234601 78.43215697 -12.04736328 73.77294922 C-12.05734159 72.19219242 -12.07092907 70.61145369 -12.08837891 69.03076172 C-12.18119938 60.39845765 -12.25770837 52.14931125 -9.9375 43.75 C-10.5975 43.75 -11.2575 43.75 -11.9375 43.75 C-12.5975 44.74 -13.2575 45.73 -13.9375 46.75 C-14.9275 46.42 -15.9175 46.09 -16.9375 45.75 C-16.9375 44.43 -16.9375 43.11 -16.9375 41.75 C-16.2775 41.75 -15.6175 41.75 -14.9375 41.75 C-14.67453125 41.05261719 -14.4115625 40.35523438 -14.140625 39.63671875 C-10.65218965 31.26673914 -5.82812638 23.39752063 -1.1015625 15.67578125 C0.08756217 13.76650999 0.08756217 13.76650999 1.0625 11.75 C1.7225 11.75 2.3825 11.75 3.0625 11.75 C3.48120553 9.41928121 3.48120553 9.41928121 3.0625 6.75 C0.73928298 4.50808599 0.73928298 4.50808599 -1.9375 2.75 C-2.5975 2.09 -3.2575 1.43 -3.9375 0.75 C-1.9375 -0.25 -1.9375 -0.25 0 0 Z " fill="#FBFCF4" transform="translate(223.9375,72.25)"/>
<path d="M0 0 C2.10263102 3.15394652 3.01776618 5.82463704 4.125 9.4375 C4.47820312 10.57058594 4.83140625 11.70367187 5.1953125 12.87109375 C6 16 6 16 6 20 C6.66 20 7.32 20 8 20 C8.32871094 20.73863281 8.65742188 21.47726563 8.99609375 22.23828125 C12.7098109 30.15886498 17.28356933 36.42090797 23 43 C24.34062424 44.66080769 25.67618483 46.32576317 27 48 C25.68 48 24.36 48 23 48 C23 47.34 23 46.68 23 46 C21.68 45.67 20.36 45.34 19 45 C18.34 47.97 17.68 50.94 17 54 C14.525 54.495 14.525 54.495 12 55 C12.495 54.401875 12.99 53.80375 13.5 53.1875 C15.28276418 51.02970006 15.28276418 51.02970006 15 48 C14.34 48 13.68 48 13 48 C12.72027344 47.48953125 12.44054687 46.9790625 12.15234375 46.453125 C9.65998346 41.93321758 7.10930715 37.45352205 4.5 33 C1.59336524 28.03900414 -1.23695455 23.04223962 -4 18 C-1.525 18.99 -1.525 18.99 1 20 C1 19.34 1 18.68 1 18 C1.66 18 2.32 18 3 18 C2.69201674 16.51988629 2.378482 15.04092675 2.0625 13.5625 C1.88847656 12.73878906 1.71445313 11.91507813 1.53515625 11.06640625 C1.19247006 9.02338796 1.19247006 9.02338796 0 8 C-0.14115161 5.32941149 -0.04247107 2.67567762 0 0 Z " fill="#FCF8DE" transform="translate(213,160)"/>
<path d="M0 0 C2.5654594 2.5654594 2.54046087 4.47686668 3 8 C3.66 8 4.32 8 5 8 C6.39300182 9.95890881 7.72245446 11.9639118 9 14 C9.66 14.99 10.32 15.98 11 17 C9.625 19 9.625 19 8 21 C7.34 21 6.68 21 6 21 C5.505 22.485 5.505 22.485 5 24 C4.34 24 3.68 24 3 24 C3 24.66 3 25.32 3 26 C1.49609375 27.48046875 1.49609375 27.48046875 -0.5625 29.1875 C-4.58677781 32.60742513 -8.30853832 36.22789959 -12 40 C-12.97793113 40.98040065 -13.95695713 41.95971147 -14.9375 42.9375 C-15.618125 43.618125 -16.29875 44.29875 -17 45 C-23.09608303 40.39076649 -29.20782137 34.26263485 -32 27 C-31.505 25.515 -31.505 25.515 -31 24 C-31 24.66 -31 25.32 -31 26 C-30.36964844 26.08765625 -29.73929688 26.1753125 -29.08984375 26.265625 C-27 27 -27 27 -26.12890625 28.671875 C-25.94199219 29.35765625 -25.75507813 30.0434375 -25.5625 30.75 C-24.19048786 34.87345271 -22.52771193 37.31221948 -19 40 C-16.28836222 40.41986946 -16.28836222 40.41986946 -14 40 C-14 39.34 -14 38.68 -14 38 C-13.34 38 -12.68 38 -12 38 C-11.773125 37.46375 -11.54625 36.9275 -11.3125 36.375 C-8.50905122 31.30209268 -4.72583538 27.3208573 0 24 C0.66 24 1.32 24 2 24 C2 23.34 2 22.68 2 22 C2.66 22 3.32 22 4 22 C4 21.01 4 20.02 4 19 C4.99 18.67 5.98 18.34 7 18 C7.495 16.515 7.495 16.515 8 15 C5.69 14.67 3.38 14.34 1 14 C0.67 9.38 0.34 4.76 0 0 Z " fill="#FCA51D" transform="translate(255,160)"/>
<path d="M0 0 C-1.1118879 3.23458297 -2.55780571 5.91913511 -4.4375 8.75 C-11.95496855 20.80463892 -10.9210892 34.35097107 -9 48 C-11.2477975 45.94766315 -12.0022242 44.99332739 -13 42 C-13.66 41.67 -14.32 41.34 -15 41 C-14.67 33.41 -14.34 25.82 -14 18 C-12.68 17.67 -11.36 17.34 -10 17 C-10 14.69 -10 12.38 -10 10 C-9.01 9.67 -8.02 9.34 -7 9 C-6.27113604 7.15537813 -6.27113604 7.15537813 -5.9375 5 C-5.52734375 2.8125 -5.52734375 2.8125 -5 1 C-3 0 -3 0 0 0 Z " fill="#E47410" transform="translate(145,114)"/>
<path d="M0 0 C0.33 0 0.66 0 1 0 C3.68482528 12.17760039 3.74403078 24.64370644 2 37 C1.34 37.99 0.68 38.98 0 40 C-0.38499891 41.65549531 -0.72793135 43.3222433 -1 45 C-1.66 45 -2.32 45 -3 45 C-2.938125 46.175625 -2.87625 47.35125 -2.8125 48.5625 C-2.83597905 52.97656223 -3.73189104 56.14421476 -6 60 C-9.1875 61.9375 -9.1875 61.9375 -12 63 C-10.75280791 59.73327211 -9.3260772 56.73752059 -7.625 53.6875 C-4.12883445 46.82963681 -2.67961202 39.45945338 -1 32 C-0.82057861 31.4013916 -0.64115723 30.8027832 -0.45629883 30.18603516 C0.15535566 27.25572252 0.11125923 24.47703091 0.09765625 21.484375 C0.09282227 19.60878906 0.09282227 19.60878906 0.08789062 17.6953125 C0.07951172 16.39335937 0.07113281 15.09140625 0.0625 13.75 C0.05798828 12.43257812 0.05347656 11.11515625 0.04882812 9.7578125 C0.03704316 6.50516259 0.02059011 3.25260416 0 0 Z " fill="#FDECCA" transform="translate(380,128)"/>
<path d="M0 0 C0.88945312 -0.00128906 1.77890625 -0.00257812 2.6953125 -0.00390625 C3.61828125 -0.00003906 4.54125 0.00382812 5.4921875 0.0078125 C6.39195312 0.00394531 7.29171875 0.00007813 8.21875 -0.00390625 C25.25494604 0.02057104 25.25494604 0.02057104 28.3671875 3.1328125 C30.68993927 3.53328694 33.02458107 3.8725229 35.3671875 4.1328125 C35.3671875 5.1228125 35.3671875 6.1128125 35.3671875 7.1328125 C28.01744726 6.37249454 28.01744726 6.37249454 24.62304688 5.12133789 C21.20724745 4.08425242 18.49703481 3.88893436 14.9375 3.90234375 C13.12572266 3.90524414 13.12572266 3.90524414 11.27734375 3.90820312 C10.02824219 3.92044922 8.77914062 3.93269531 7.4921875 3.9453125 C5.63013672 3.9462793 5.63013672 3.9462793 3.73046875 3.94726562 C-2.47836414 3.97702042 -8.4961766 4.17156001 -14.6328125 5.1328125 C-14.3028125 4.4728125 -13.9728125 3.8128125 -13.6328125 3.1328125 C-11.9828125 3.1328125 -10.3328125 3.1328125 -8.6328125 3.1328125 C-8.6328125 2.4728125 -8.6328125 1.8128125 -8.6328125 1.1328125 C-5.68642505 0.28582073 -3.06183297 0.00434303 0 0 Z " fill="#FDFEEA" transform="translate(170.6328125,58.8671875)"/>
<path d="M0 0 C4.571279 0.54855348 8.67435795 1.41744803 13 3 C13 3.66 13 4.32 13 5 C14.32 5 15.64 5 17 5 C17 5.66 17 6.32 17 7 C31.67326325 10.22236369 45.80412919 9.67074697 60.42578125 6.65625 C63.4067244 6.10892929 65.98775345 5.8601665 69 6 C60.62549607 11.58300262 50.03676112 11.44915347 40.3125 11.3125 C38.57516602 11.31733398 38.57516602 11.31733398 36.80273438 11.32226562 C27.57982887 11.2646552 19.84188067 9.92590694 11.25 6.5625 C10.18265625 6.15128906 9.1153125 5.74007812 8.015625 5.31640625 C5.16449157 4.07180526 2.58948593 2.72152861 0 1 C0 0.67 0 0.34 0 0 Z " fill="#D3863A" transform="translate(256,218)"/>
<path d="M0 0 C1.35985646 0.96362242 2.70112458 1.95563396 4 3 C2.02 3 0.04 3 -2 3 C-2 2.34 -2 1.68 -2 1 C-8.73184413 0.12313415 -15.2785368 -0.12387197 -22.0625 -0.0625 C-23.50399414 -0.05573242 -23.50399414 -0.05573242 -24.97460938 -0.04882812 C-27.31647422 -0.03717706 -29.65820181 -0.02082025 -32 0 C-32 0.66 -32 1.32 -32 2 C-32.99 2 -33.98 2 -35 2 C-35.185625 2.61875 -35.37125 3.2375 -35.5625 3.875 C-37.71437233 7.05602866 -40.37533763 7.19451947 -44 8 C-44 8.99 -44 9.98 -44 11 C-45.98 11.66 -47.96 12.32 -50 13 C-50 13.66 -50 14.32 -50 15 C-50.66 14.67 -51.32 14.34 -52 14 C-51.01 12.515 -51.01 12.515 -50 11 C-49.34 11 -48.68 11 -48 11 C-47.731875 10.360625 -47.46375 9.72125 -47.1875 9.0625 C-46 7 -46 7 -43 6 C-42.484375 5.484375 -41.96875 4.96875 -41.4375 4.4375 C-40.963125 3.963125 -40.48875 3.48875 -40 3 C-39.34 3 -38.68 3 -38 3 C-38 2.34 -38 1.68 -38 1 C-26.12008795 -4.03996269 -12.05946625 -5.67916724 0 0 Z " fill="#FDECC4" transform="translate(194,105)"/>
<path d="M0 0 C0 1.32 0 2.64 0 4 C-2.64 3.67 -5.28 3.34 -8 3 C-8 3.66 -8 4.32 -8 5 C-9.32 5 -10.64 5 -12 5 C-12 5.66 -12 6.32 -12 7 C-16.80549747 7.02468447 -21.61095818 7.04285255 -26.41650391 7.05493164 C-28.05192711 7.05996621 -29.6873458 7.06679427 -31.32275391 7.07543945 C-33.67090975 7.08754335 -36.01900619 7.093237 -38.3671875 7.09765625 C-39.46726639 7.10539818 -39.46726639 7.10539818 -40.58956909 7.11329651 C-45.77225659 7.11387171 -45.77225659 7.11387171 -48 6 C-48 5.34 -48 4.68 -48 4 C-46.85337891 4.0314209 -46.85337891 4.0314209 -45.68359375 4.06347656 C-26.04183852 4.63014478 -26.04183852 4.63014478 -6.90625 0.875 C-4 0 -4 0 0 0 Z " fill="#FEFEE1" transform="translate(208,224)"/>
<path d="M0 0 C1.03382813 -0.01224609 2.06765625 -0.02449219 3.1328125 -0.03710938 C9.74427063 -0.04959954 15.82700081 0.61209789 22.25 2.1875 C22.25 2.5175 22.25 2.8475 22.25 3.1875 C20.50008666 3.21465383 18.75005055 3.23396551 17 3.25 C15.53820312 3.26740234 15.53820312 3.26740234 14.046875 3.28515625 C11.25 3.1875 11.25 3.1875 9.3046875 2.69140625 C6.3954685 1.97792859 3.61495394 2.05575067 0.625 2.0625 C-0.52226562 2.05992188 -1.66953125 2.05734375 -2.8515625 2.0546875 C-5.68976044 1.98829553 -5.68976044 1.98829553 -7.75 3.1875 C-9.35173045 3.34058574 -10.95665105 3.46138207 -12.5625 3.5625 C-15.82512999 3.8468149 -17.48280165 4.02457418 -20.3125 5.75 C-23.98799485 7.91759953 -27.58140877 7.43271125 -31.75 7.1875 C-28.8899903 4.82832149 -26.43536613 3.57182498 -22.875 2.5625 C-21.64136719 2.20285156 -21.64136719 2.20285156 -20.3828125 1.8359375 C-13.54811726 0.15261493 -7.00870701 0.0043051 0 0 Z " fill="#E7AF2A" transform="translate(295.75,61.8125)"/>
<path d="M0 0 C4.62 0 9.24 0 14 0 C11.69646721 2.30353279 9.52225733 2.93167157 6.5 4.00390625 C2.37338091 5.64810604 -1.52319702 7.74434681 -5.4609375 9.79296875 C-8 11 -8 11 -10 11 C-10 11.66 -10 12.32 -10 13 C-11.99284138 14.3440093 -13.99419671 15.67541292 -16 17 C-16.9075 17.9075 -17.815 18.815 -18.75 19.75 C-19.4925 20.4925 -20.235 21.235 -21 22 C-21.66 22 -22.32 22 -23 22 C-23.33 21.01 -23.66 20.02 -24 19 C-21 17 -21 17 -18 17 C-18 16.01 -18 15.02 -18 14 C-16.35 13.34 -14.7 12.68 -13 12 C-13 11.34 -13 10.68 -13 10 C-9.63316085 7.56839395 -8.26649636 7 -4 7 C-4 6.34 -4 5.68 -4 5 C-2.68 5 -1.36 5 0 5 C0 3.35 0 1.7 0 0 Z " fill="#FCF0C0" transform="translate(140,64)"/>
<path d="M0 0 C0.66 0.33 1.32 0.66 2 1 C-6.261959 6.55580866 -6.261959 6.55580866 -11 7 C-11.08507812 7.61359375 -11.17015625 8.2271875 -11.2578125 8.859375 C-12 11 -12 11 -13.7421875 12.265625 C-14.44601563 12.59046875 -15.14984375 12.9153125 -15.875 13.25 C-16.57367188 13.58515625 -17.27234375 13.9203125 -17.9921875 14.265625 C-20 15 -20 15 -23 15 C-25.16022555 18.43094646 -24.8128885 20.13877962 -24 24 C-24.66 24.66 -25.32 25.32 -26 26 C-26 25.34 -26 24.68 -26 24 C-26.66 24 -27.32 24 -28 24 C-29.625 22 -29.625 22 -31 20 C-30.34 20 -29.68 20 -29 20 C-28.814375 19.443125 -28.62875 18.88625 -28.4375 18.3125 C-26.35889174 14.96865193 -23.39186398 12.95192172 -20 11 C-19.34 11 -18.68 11 -18 11 C-18 10.34 -18 9.68 -18 9 C-13.33333333 6.66666667 -8.66666667 4.33333333 -4 2 C-3.23171875 1.57460937 -2.4634375 1.14921875 -1.671875 0.7109375 C-1.12015625 0.47632812 -0.5684375 0.24171875 0 0 Z " fill="#E7B22F" transform="translate(148,66)"/>
<path d="M0 0 C2.10263102 3.15394652 3.01776618 5.82463704 4.125 9.4375 C4.47820312 10.57058594 4.83140625 11.70367187 5.1953125 12.87109375 C6 16 6 16 6 20 C6.66 20 7.32 20 8 20 C8.99 22.64 9.98 25.28 11 28 C10.34 28 9.68 28 9 28 C9 27.34 9 26.68 9 26 C8.01 26 7.02 26 6 26 C5.34 24.35 4.68 22.7 4 21 C3.7834375 21.8971875 3.7834375 21.8971875 3.5625 22.8125 C3.1127561 24.56150404 2.57107659 26.28677023 2 28 C0.02 25.03 -1.96 22.06 -4 19 C-1 19 -1 19 1 20 C1 19.34 1 18.68 1 18 C1.66 18 2.32 18 3 18 C2.69201674 16.51988629 2.378482 15.04092675 2.0625 13.5625 C1.88847656 12.73878906 1.71445313 11.91507813 1.53515625 11.06640625 C1.19247006 9.02338796 1.19247006 9.02338796 0 8 C-0.14115161 5.32941149 -0.04247107 2.67567762 0 0 Z " fill="#FEF7D4" transform="translate(213,160)"/>
<path d="M0 0 C6.16375271 1.29543277 11.17577913 3.36054676 16.6875 6.375 C17.42033203 6.76171875 18.15316406 7.1484375 18.90820312 7.546875 C22.94678849 9.71729599 26.47560029 12.03950424 30 15 C30.886875 15.495 31.77375 15.99 32.6875 16.5 C35.19201839 18.12455247 35.95677814 19.24968783 37 22 C35.68 22.33 34.36 22.66 33 23 C33 22.01 33 21.02 33 20 C32.236875 20.103125 31.47375 20.20625 30.6875 20.3125 C29.800625 20.209375 28.91375 20.10625 28 20 C26.02493835 17.39009711 25.0343299 15.10298971 24 12 C22.03233469 11.24320565 20.02024799 10.6025301 18 10 C16.20264173 9.30623578 14.41117458 8.59707058 12.625 7.875 C11.75101562 7.52179688 10.87703125 7.16859375 9.9765625 6.8046875 C9.32429688 6.53914063 8.67203125 6.27359375 8 6 C8 5.34 8 4.68 8 4 C7.236875 3.855625 6.47375 3.71125 5.6875 3.5625 C3 3 3 3 0 2 C0 1.34 0 0.68 0 0 Z " fill="#E4AF30" transform="translate(320,65)"/>
<path d="M0 0 C0.33 0.66 0.66 1.32 1 2 C-0.34782202 5.38105523 -1.90795402 8.64042482 -3.45703125 11.93359375 C-7.30626727 21.21794166 -7.36875034 31.28451825 -7.625 41.1875 C-7.66367188 42.42564453 -7.70234375 43.66378906 -7.7421875 44.93945312 C-7.83547069 47.95949626 -7.92126406 50.9795486 -8 54 C-8.33 54 -8.66 54 -9 54 C-9.04991513 49.34099845 -9.0859601 44.68215697 -9.10986328 40.02294922 C-9.11984159 38.44219242 -9.13342907 36.86145369 -9.15087891 35.28076172 C-9.3555847 16.24312308 -9.3555847 16.24312308 -7 10 C-6.34 9.67 -5.68 9.34 -5 9 C-4.690625 7.865625 -4.38125 6.73125 -4.0625 5.5625 C-3 2 -3 2 0 0 Z " fill="#FDEBAF" transform="translate(221,106)"/>
<path d="M0 0 C1.05904289 0.00636726 1.05904289 0.00636726 2.13948059 0.01286316 C4.39155428 0.02963841 6.64272867 0.06728632 8.89453125 0.10546875 C10.4225131 0.12051718 11.95050901 0.13420531 13.47851562 0.14648438 C17.22169997 0.17953786 20.96421321 0.23131043 24.70703125 0.29296875 C25.20203125 1.28296875 25.20203125 1.28296875 25.70703125 2.29296875 C27.83279907 2.75948082 27.83279907 2.75948082 30.26953125 2.91796875 C31.09582031 2.99273437 31.92210937 3.0675 32.7734375 3.14453125 C33.41152344 3.19351563 34.04960937 3.2425 34.70703125 3.29296875 C35.20203125 4.77796875 35.20203125 4.77796875 35.70703125 6.29296875 C31.49399976 5.82485414 27.45428817 5.24576446 23.33203125 4.26171875 C16.60395966 2.89521521 9.9197656 3.07642339 3.08203125 3.16796875 C1.79167969 3.17699219 0.50132812 3.18601563 -0.828125 3.1953125 C-3.98327124 3.21868395 -7.13801801 3.25144784 -10.29296875 3.29296875 C-7.60609619 -0.51966383 -4.26084146 -0.09638636 0 0 Z " fill="#FBF0C3" transform="translate(290.29296875,59.70703125)"/>
<path d="M0 0 C1.24007812 -0.00773437 2.48015625 -0.01546875 3.7578125 -0.0234375 C5.55605469 -0.01957031 5.55605469 -0.01957031 7.390625 -0.015625 C9.00759277 -0.01224121 9.00759277 -0.01224121 10.65722656 -0.00878906 C13.95575098 0.2672163 16.66292695 1.08351499 19.75 2.25 C19.75 2.58 19.75 2.91 19.75 3.25 C18.5125 3.24214478 18.5125 3.24214478 17.25 3.23413086 C-4.52103829 3.05434054 -4.52103829 3.05434054 -26.25 4.25 C-20.26545065 -1.73454935 -7.78940414 -0.04919624 0 0 Z " fill="#EAB22D" transform="translate(178.25,61.75)"/>
<path d="M0 0 C2.52671978 0.91880719 3.56050219 1.49700328 5.0625 3.75 C5.4487557 7.99881273 5.3922964 11.10969312 3.0625 14.75 C2.4025 14.75 1.7425 14.75 1.0625 14.75 C1.0625 17.06 1.0625 19.37 1.0625 21.75 C0.4025 21.75 -0.2575 21.75 -0.9375 21.75 C-0.9375 22.41 -0.9375 23.07 -0.9375 23.75 C-1.5975 23.75 -2.2575 23.75 -2.9375 23.75 C-3.185 24.69875 -3.4325 25.6475 -3.6875 26.625 C-4.9375 29.75 -4.9375 29.75 -7.0625 31.125 C-7.68125 31.33125 -8.3 31.5375 -8.9375 31.75 C-7.76715342 26.24937109 -5.62690649 22.44033963 -2.375 17.86328125 C-1.02820952 15.88335286 0.04621808 13.91448504 1.0625 11.75 C1.7225 11.75 2.3825 11.75 3.0625 11.75 C3.48120553 9.41928121 3.48120553 9.41928121 3.0625 6.75 C0.73928298 4.50808599 0.73928298 4.50808599 -1.9375 2.75 C-2.5975 2.09 -3.2575 1.43 -3.9375 0.75 C-1.9375 -0.25 -1.9375 -0.25 0 0 Z " fill="#FCF5CA" transform="translate(223.9375,72.25)"/>
<path d="M0 0 C0.66 0.33 1.32 0.66 2 1 C-0.25740623 3.33524782 -2.2805761 5.18705073 -5 7 C-5.33 7.66 -5.66 8.32 -6 9 C-14.06350113 9.12867289 -21.97497656 8.79681084 -30 8 C-30 7.34 -30 6.68 -30 6 C-28.94941406 5.96261719 -27.89882812 5.92523438 -26.81640625 5.88671875 C-19.11875793 5.55020452 -12.15673381 5.11919593 -5 2 C-3.34827188 1.29713697 -1.68698082 0.61344757 0 0 Z " fill="#E8B126" transform="translate(198,183)"/>
<path d="M0 0 C0.66 0 1.32 0 2 0 C1.83886719 1.28132813 1.67773438 2.56265625 1.51171875 3.8828125 C0.95853084 8.88989741 0.80909822 13.84036722 0.8125 18.875 C0.81113037 19.74833984 0.80976074 20.62167969 0.80834961 21.52148438 C0.85068532 27.14533977 1.2990678 32.4263122 2.66015625 37.90625 C3.03909531 40.24086304 2.72521909 41.76855664 2 44 C-3.00680489 36.48979267 -2.1803855 26.21170627 -2.1875 17.5 C-2.18830566 16.53215576 -2.18911133 15.56431152 -2.18994141 14.56713867 C-2.14813637 9.26672433 -1.67892513 5.03677539 0 0 Z " fill="#FEF7DB" transform="translate(93,125)"/>
<path d="M0 0 C-13.76440577 7.60123901 -32.88640825 8.087993 -48 5 C-48 4.67 -48 4.34 -48 4 C-37.77 4 -27.54 4 -17 4 C-17 3.34 -17 2.68 -17 2 C-11.19233704 0.4943096 -6.0018137 -0.21824777 0 0 Z " fill="#E5B030" transform="translate(208,223)"/>
<path d="M0 0 C0.33 0 0.66 0 1 0 C1.10957031 1.09957031 1.21914062 2.19914063 1.33203125 3.33203125 C2.22371575 11.80111639 3.36286205 19.86003418 6 28 C6.66 28 7.32 28 8 28 C8.2475 28.7425 8.495 29.485 8.75 30.25 C9.84516432 33.08656168 9.84516432 33.08656168 12.0625 35.0625 C14.15689569 37.15689569 14.43239239 38.18536846 15 41 C13.84481082 40.09515208 12.70114594 39.1755794 11.5625 38.25 C10.60537109 37.48429687 10.60537109 37.48429687 9.62890625 36.703125 C7.81189446 34.80332371 7.39576803 33.56413092 7 31 C6.34 31 5.68 31 5 31 C0.27972561 20.36252451 -0.62859862 11.53827696 0 0 Z " fill="#FCEEB7" transform="translate(253,137)"/>
<path d="M0 0 C0.66 0 1.32 0 2 0 C0.99601985 2.5144728 -0.01026877 5.02413535 -1.0703125 7.515625 C-5.11374032 17.99858602 -5.11643136 29.02208773 -3 40 C-3.99 40 -4.98 40 -6 40 C-7.30772597 34.9992559 -7.18381971 30.00532503 -7.1875 24.875 C-7.19974609 23.96878906 -7.21199219 23.06257813 -7.22460938 22.12890625 C-7.22654297 21.25878906 -7.22847656 20.38867188 -7.23046875 19.4921875 C-7.23457764 18.70183105 -7.23868652 17.91147461 -7.24291992 17.09716797 C-7 15 -7 15 -5 12 C-4.33841957 9.95415921 -4.33841957 9.95415921 -3.875 7.8125 C-3.441875 5.9253125 -3.441875 5.9253125 -3 4 C-2.34 4 -1.68 4 -1 4 C-0.67 2.68 -0.34 1.36 0 0 Z " fill="#E2B338" transform="translate(258,120)"/>
<path d="M0 0 C7.42857143 -0.14285714 7.42857143 -0.14285714 11 1 C11 1.66 11 2.32 11 3 C13.47960136 2.85975781 15.95852402 2.7130815 18.4375 2.5625 C19.49807617 2.50352539 19.49807617 2.50352539 20.58007812 2.44335938 C24.08690419 2.52375562 24.08690419 2.52375562 27 1 C28.51928038 0.92820036 30.04167482 0.91607993 31.5625 0.9375 C32.38878906 0.94652344 33.21507812 0.95554688 34.06640625 0.96484375 C34.70449219 0.97644531 35.34257812 0.98804688 36 1 C35 3 35 3 31.9375 4.125 C20.97757199 6.56930049 10.14234636 5.81331692 0 1 C0 0.67 0 0.34 0 0 Z " fill="#FDF2BE" transform="translate(157,184)"/>
<path d="M0 0 C0 2 0 2 -1.0625 3.5625 C-3.84092237 5.62391014 -6.61632796 5.56935083 -10 6 C-10.66 6.66 -11.32 7.32 -12 8 C-18.79816213 10.45523633 -25.93986192 10.24183823 -33.0625 10.125 C-34.11888672 10.11597656 -35.17527344 10.10695312 -36.26367188 10.09765625 C-38.84269253 10.0743167 -41.4212199 10.04157775 -44 10 C-44 9.67 -44 9.34 -44 9 C-42.90945313 8.98582031 -41.81890625 8.97164062 -40.6953125 8.95703125 C-26.83751912 8.58811013 -12.53085721 0 0 0 Z " fill="#F8D6AA" transform="translate(336,220)"/>
<path d="M0 0 C0 1.65 0 3.3 0 5 C-0.639375 5.185625 -1.27875 5.37125 -1.9375 5.5625 C-4.42126213 6.94246056 -4.42126213 6.94246056 -4.75 10.625 C-4.8325 11.73875 -4.915 12.8525 -5 14 C-5.66 14 -6.32 14 -7 14 C-7.33 14.99 -7.66 15.98 -8 17 C-8.99 17.33 -9.98 17.66 -11 18 C-11.66 18.66 -12.32 19.32 -13 20 C-13 14.95749572 -11.59750368 13.22094347 -9 9 C-8.34 9 -7.68 9 -7 9 C-6.7525 8.2575 -6.505 7.515 -6.25 6.75 C-5.16470509 4.36235119 -3.09299237 0 0 0 Z " fill="#DC7B20" transform="translate(117,87)"/>
<path d="M0 0 C1.3671875 1.94140625 1.3671875 1.94140625 2.875 4.5625 C3.4009375 5.47128906 3.926875 6.38007813 4.46875 7.31640625 C4.9740625 8.20199219 5.479375 9.08757812 6 10 C6.4228125 10.71027344 6.845625 11.42054688 7.28125 12.15234375 C10 16.74508929 10 16.74508929 10 19 C8.1875 18.8125 8.1875 18.8125 6 18 C3.97668396 15.24829018 2.77238448 12.41131105 1.5625 9.25 C0.37684934 5.96363725 0.37684934 5.96363725 -1.875 5 C-4.36675584 5 -6.58614004 5.39653501 -9 6 C-3.28571429 0 -3.28571429 0 0 0 Z " fill="#E9B52E" transform="translate(209,177)"/>
<path d="M0 0 C0.66 0 1.32 0 2 0 C0.50867052 4.72254335 0.50867052 4.72254335 -2.0625 6.125 C-2.701875 6.41375 -3.34125 6.7025 -4 7 C-4.33 7.99 -4.66 8.98 -5 10 C-5.66 10 -6.32 10 -7 10 C-7 10.66 -7 11.32 -7 12 C-11.33889229 11.49935858 -13.81003171 8.78273829 -17 6 C-17.99 5.34 -18.98 4.68 -20 4 C-15.48521602 4.53115106 -12.65333143 6.36620292 -9 9 C-9 7.68 -9 6.36 -9 5 C-8.43410156 4.80664062 -7.86820312 4.61328125 -7.28515625 4.4140625 C-6.55167969 4.15367188 -5.81820313 3.89328125 -5.0625 3.625 C-4.33160156 3.36976562 -3.60070312 3.11453125 -2.84765625 2.8515625 C-0.81317884 2.14728587 -0.81317884 2.14728587 0 0 Z " fill="#F1A91F" transform="translate(337,102)"/>
<path d="M0 0 C0.86367187 0.14179687 1.72734375 0.28359375 2.6171875 0.4296875 C3.73480469 0.65011719 3.73480469 0.65011719 4.875 0.875 C5.63554687 1.01679687 6.39609375 1.15859375 7.1796875 1.3046875 C7.78039062 1.53414063 8.38109375 1.76359375 9 2 C9.495 3.485 9.495 3.485 10 5 C10.66 5 11.32 5 12 5 C12 5.66 12 6.32 12 7 C11.21625 6.731875 10.4325 6.46375 9.625 6.1875 C8.42875 5.795625 7.2325 5.40375 6 5 C5.319375 4.73574219 4.63875 4.47148438 3.9375 4.19921875 C-5.99393713 0.65946666 -16.72100688 1.3468286 -27 3 C-23.45070151 -0.41172878 -19.88505953 -0.56782318 -15.1875 -0.75 C-14.50107422 -0.79253906 -13.81464844 -0.83507812 -13.10742188 -0.87890625 C-8.60991516 -1.10867481 -4.45513362 -0.77158898 0 0 Z " fill="#E9AE39" transform="translate(188,101)"/>
<path d="M0 0 C0.98560279 3.17583121 0.97974018 5.63514924 0.59765625 8.92578125 C-0.06703546 15.3411765 -0.33223276 21.74379227 -0.5625 28.1875 C-0.60568359 29.33025391 -0.64886719 30.47300781 -0.69335938 31.65039062 C-0.79816296 34.43350811 -0.90033299 37.21669465 -1 40 C-1.33 40 -1.66 40 -2 40 C-4.22758587 26.67041357 -3.97061795 12.95177759 0 0 Z " fill="#D4883F" transform="translate(96,121)"/>
<path d="M0 0 C1.41243647 2.82487294 0.58079392 4.30290829 -0.25 7.3125 C-0.62898437 8.72982422 -0.62898437 8.72982422 -1.015625 10.17578125 C-2 13 -2 13 -3.59765625 15.2109375 C-5.74613863 19.48396374 -5.3172197 23.60600322 -5.1875 28.3125 C-5.17396484 29.24384766 -5.16042969 30.17519531 -5.14648438 31.13476562 C-5.11126882 33.42377646 -5.06202099 35.71158458 -5 38 C-8.68786991 31.36257156 -8.19605758 21.27915071 -6.53271484 13.9375 C-4.99479325 8.9131938 -2.90880629 4.36320944 0 0 Z " fill="#FDEFCC" transform="translate(141,120)"/>
<path d="M0 0 C0 3.55729657 -0.77621165 4.41604151 -2.8125 7.25 C-5.82222677 11.61622334 -7.86291889 15.99184892 -9.73828125 20.953125 C-10.41753014 22.6669222 -11.20226173 24.33804527 -12 26 C-12.99 26.33 -13.98 26.66 -15 27 C-15 28.32 -15 29.64 -15 31 C-15.66 31 -16.32 31 -17 31 C-13.65847821 20.06411052 -8.59147272 7.86028355 0 0 Z " fill="#E3AD26" transform="translate(234,89)"/>
<path d="M0 0 C0.99 0.99 1.98 1.98 3 3 C3.66 2.67 4.32 2.34 5 2 C2.81879195 9.38255034 2.81879195 9.38255034 0 12 C-3.1875 12.25 -3.1875 12.25 -6 12 C-5.29445932 8.33118845 -3.72264494 5.29549466 -2 2 C-1.34 2 -0.68 2 0 2 C0 1.34 0 0.68 0 0 Z " fill="#F9F4DC" transform="translate(223,94)"/>
<path d="M0 0 C-0.33 0.99 -0.66 1.98 -1 3 C-9.54405939 7.19435643 -18.71616171 6.27040306 -28 6 C-28 5.34 -28 4.68 -28 4 C-29.65 3.67 -31.3 3.34 -33 3 C-30.29219676 1.64609838 -28.95103742 2.39497559 -26 3 C-16.81093541 3.47207859 -8.45116651 0 0 0 Z " fill="#D17A27" transform="translate(316,185)"/>
<path d="M0 0 C3.63 0 7.26 0 11 0 C4.42313285 4.3845781 -1.16148291 5.14219481 -9.0625 5.125 C-10.24972656 5.12757813 -11.43695313 5.13015625 -12.66015625 5.1328125 C-15.57434445 5.01692665 -18.17085017 4.67386177 -21 4 C-21 3.67 -21 3.34 -21 3 C-11.1 2.505 -11.1 2.505 -1 2 C-0.67 1.34 -0.34 0.68 0 0 Z " fill="#FDEFCF" transform="translate(306,184)"/>
<path d="M0 0 C0.99 0.33 1.98 0.66 3 1 C1.68 2.32 0.36 3.64 -1 5 C-0.46375 5.53625 0.0725 6.0725 0.625 6.625 C2 9 2 9 1.1875 12.25 C0.795625 13.1575 0.40375 14.065 0 15 C-5.75 11.375 -5.75 11.375 -8 8 C-7.236875 7.4225 -6.47375 6.845 -5.6875 6.25 C-3.33799083 4.28296907 -1.70676495 2.51523256 0 0 Z " fill="#F9A815" transform="translate(125,196)"/>
<path d="M0 0 C-0.42152344 0.55429688 -0.84304687 1.10859375 -1.27734375 1.6796875 C-1.82519531 2.40414062 -2.37304688 3.12859375 -2.9375 3.875 C-3.48277344 4.59429687 -4.02804688 5.31359375 -4.58984375 6.0546875 C-6.03964624 7.94357079 -6.03964624 7.94357079 -7 10 C-7.66 10 -8.32 10 -9 10 C-9.268125 10.94875 -9.53625 11.8975 -9.8125 12.875 C-11 16 -11 16 -14 18 C-14 16.68 -14 15.36 -14 14 C-13.34 14 -12.68 14 -12 14 C-12 13.01 -12 12.02 -12 11 C-11.34 11 -10.68 11 -10 11 C-9.9175 9.741875 -9.835 8.48375 -9.75 7.1875 C-9.37831228 4.27078389 -9.23051884 3.26345011 -7.25 1 C-4.65652481 -0.15265564 -2.80710077 -0.07436029 0 0 Z " fill="#FEF1D1" transform="translate(117,86)"/>
<path d="M0 0 C1.485 0.99 1.485 0.99 3 2 C3 3.32 3 4.64 3 6 C3.99 6 4.98 6 6 6 C6 6.66 6 7.32 6 8 C6.66 8 7.32 8 8 8 C8.33 9.98 8.66 11.96 9 14 C7.68 14 6.36 14 5 14 C5.33 12.68 5.66 11.36 6 10 C4.68 10.33 3.36 10.66 2 11 C2 10.34 2 9.68 2 9 C1.34 9 0.68 9 0 9 C-1.125 2.25 -1.125 2.25 0 0 Z " fill="#FCFAF6" transform="translate(216,180)"/>
<path d="M0 0 C0.78511411 2.7648999 1.1113092 5.17662315 1.0625 8.046875 C1.05476562 8.81 1.04703125 9.573125 1.0390625 10.359375 C1.01327608 11.93750419 0.98723951 13.51562932 0.9609375 15.09375 C0.90987797 20.16566308 1.26634941 24.97907875 2 30 C-0.17636042 28.29676141 -0.94045743 27.24757174 -1.59375 24.53125 C-2.12874043 19.88094855 -2.10585853 15.30105062 -2.0625 10.625 C-2.05798828 9.69816406 -2.05347656 8.77132812 -2.04882812 7.81640625 C-2.03711574 5.54420291 -2.02071372 3.27213612 -2 1 C-1.34 0.67 -0.68 0.34 0 0 Z " fill="#D17721" transform="translate(134,132)"/>
<path d="M0 0 C-10.90560358 7.27040239 -25.52794684 5.30910655 -38 5 C-38 4.67 -38 4.34 -38 4 C-37.04222656 3.96261719 -36.08445312 3.92523438 -35.09765625 3.88671875 C-26.81466325 3.49899524 -18.81431685 2.61949955 -10.67407227 1.01635742 C-7.05955147 0.31241069 -3.68544602 -0.16459273 0 0 Z " fill="#CB7727" transform="translate(325,224)"/>
<path d="M0 0 C0.33 0 0.66 0 1 0 C1.33 2.97 1.66 5.94 2 9 C1.34 9 0.68 9 0 9 C0 9.66 0 10.32 0 11 C-1.03125 10.5875 -2.0625 10.175 -3.125 9.75 C-7.06321549 8.56099329 -7.06321549 8.56099329 -10.4375 10.875 C-11.283125 11.57625 -12.12875 12.2775 -13 13 C-13.33 12.01 -13.66 11.02 -14 10 C-8.5 7.05813953 -8.5 7.05813953 -5.3125 6.6875 C-2.63627466 6.17700946 -2.63627466 6.17700946 -1.1875 2.9375 C-0.5996875 1.4834375 -0.5996875 1.4834375 0 0 Z " fill="#FEFDF0" transform="translate(214,169)"/>
<path d="M0 0 C0.66 0 1.32 0 2 0 C1.41734728 4.42323682 -0.26766211 7.5155864 -2.5625 11.3125 C-3.52349609 12.91544922 -3.52349609 12.91544922 -4.50390625 14.55078125 C-4.99761719 15.35902344 -5.49132812 16.16726562 -6 17 C-9.90669429 15.56171454 -12.19713709 14.11429212 -15 11 C-13.02 11 -11.04 11 -9 11 C-9 11.99 -9 12.98 -9 14 C-8.01 14 -7.02 14 -6 14 C-6 13.01 -6 12.02 -6 11 C-5.34 11 -4.68 11 -4 11 C-4 9.68 -4 8.36 -4 7 C-3.34 7 -2.68 7 -2 7 C-2.04125 6.21625 -2.0825 5.4325 -2.125 4.625 C-2 2 -2 2 0 0 Z " fill="#DDB83F" transform="translate(215,97)"/>
<path d="M0 0 C0.33 1.32 0.66 2.64 1 4 C0.01 3.835 -0.98 3.67 -2 3.5 C-11.47292303 2.31588462 -21.58930543 2.43155091 -31 4 C-30.34 3.67 -29.68 3.34 -29 3 C-29 2.34 -29 1.68 -29 1 C-25.29176238 0.83115799 -21.58339644 0.66531406 -17.875 0.5 C-16.82828125 0.45230469 -15.7815625 0.40460938 -14.703125 0.35546875 C-9.79846413 0.13817365 -4.91101213 -0.06797249 0 0 Z " fill="#E6B138" transform="translate(311,100)"/>
<path d="M0 0 C3.3 0.33 6.6 0.66 10 1 C10.33 1.99 10.66 2.98 11 4 C14.02282643 5.03547047 14.02282643 5.03547047 17.5625 5.6875 C18.76003906 5.93886719 19.95757812 6.19023437 21.19140625 6.44921875 C22.11824219 6.63097656 23.04507813 6.81273437 24 7 C24 7.66 24 8.32 24 9 C18.20468763 8.47667748 13.41935152 7.29854313 8.0625 5.0625 C7.39154297 4.79759766 6.72058594 4.53269531 6.02929688 4.25976562 C1.13212798 2.26425595 1.13212798 2.26425595 0 0 Z " fill="#E2B030" transform="translate(136,218)"/>
<path d="M0 0 C0.9075 0.86625 1.815 1.7325 2.75 2.625 C7.60069549 6.81108077 13.23767371 9.30170335 19 12 C20.33553352 12.66224803 21.66985635 13.32699176 23 14 C16.51590363 13.51969656 10.80816053 12.00031684 5 9 C4.67 8.34 4.34 7.68 4 7 C3.01 7.33 2.02 7.66 1 8 C-0.35439668 5.29120665 -0.06501451 2.99066732 0 0 Z " fill="#E5B026" transform="translate(145,175)"/>
<path d="M0 0 C4.77999522 1.29472784 7.68580782 3.08597415 11.3125 6.4375 C12.17488281 7.21996094 13.03726562 8.00242187 13.92578125 8.80859375 C16 11 16 11 17 14 C13.83976631 13.29772585 10.88719595 12.48261414 8 11 C7.3125 8.9375 7.3125 8.9375 7 7 C6.34 6.67 5.68 6.34 5 6 C4.67 5.01 4.34 4.02 4 3 C1.99983534 1.79117904 1.99983534 1.79117904 0 1 C0 0.67 0 0.34 0 0 Z " fill="#FBEBCB" transform="translate(315,106)"/>
<path d="M0 0 C2.5654594 2.5654594 2.54046087 4.47686668 3 8 C3.66 8 4.32 8 5 8 C6.39300182 9.95890881 7.72245446 11.9639118 9 14 C9.99 15.485 9.99 15.485 11 17 C10.01 17.66 9.02 18.32 8 19 C8 17.68 8 16.36 8 15 C5.69 14.67 3.38 14.34 1 14 C0.67 9.38 0.34 4.76 0 0 Z " fill="#ECAF1E" transform="translate(255,160)"/>
<path d="M0 0 C0.85078125 0.06058594 1.7015625 0.12117187 2.578125 0.18359375 C13.37910427 0.93046998 24.18574296 1.48398977 35 2 C35 2.33 35 2.66 35 3 C24.11 3 13.22 3 2 3 C2 2.34 2 1.68 2 1 C1.34 0.67 0.68 0.34 0 0 Z " fill="#FEF1D6" transform="translate(277,228)"/>
<path d="M0 0 C-2.01860909 6.05582728 -8.2094379 9.98255455 -13 14 C-12.67 11.36 -12.34 8.72 -12 6 C-10.5459375 5.5978125 -10.5459375 5.5978125 -9.0625 5.1875 C-7.5465625 4.5996875 -7.5465625 4.5996875 -6 4 C-5.67 3.01 -5.34 2.02 -5 1 C-3 0 -3 0 0 0 Z " fill="#FCA114" transform="translate(352,90)"/>
<path d="M0 0 C3.62498334 -0.02893932 7.24993713 -0.04677792 10.875 -0.0625 C12.42380859 -0.07506836 12.42380859 -0.07506836 14.00390625 -0.08789062 C14.99003906 -0.09111328 15.97617188 -0.09433594 16.9921875 -0.09765625 C18.35899658 -0.10551147 18.35899658 -0.10551147 19.75341797 -0.11352539 C22 0 22 0 24 1 C25.70363822 1.22622081 27.41328701 1.40888473 29.125 1.5625 C30.03507812 1.64628906 30.94515625 1.73007812 31.8828125 1.81640625 C32.58148438 1.87699219 33.28015625 1.93757813 34 2 C34 2.99 34 3.98 34 5 C26.62130178 4.23668639 26.62130178 4.23668639 23.375 3 C18.79484345 1.64291658 14.37867318 1.53775058 9.625 1.375 C8.69816406 1.33632813 7.77132812 1.29765625 6.81640625 1.2578125 C4.5444623 1.16412409 2.27251404 1.07840652 0 1 C0 0.67 0 0.34 0 0 Z " fill="#FBECB1" transform="translate(172,61)"/>
<path d="M0 0 C1.14275391 0.48919922 1.14275391 0.48919922 2.30859375 0.98828125 C8.47534524 3.59817982 14.61613942 5.97844415 21 8 C21 8.33 21 8.66 21 9 C18.03 9 15.06 9 12 9 C11.67 8.34 11.34 7.68 11 7 C8.94824595 6.34848903 8.94824595 6.34848903 6.5625 5.9375 C2.167979 5.0839895 2.167979 5.0839895 0 4 C0 2.68 0 1.36 0 0 Z " fill="#FDE9C0" transform="translate(256,219)"/>
<path d="M0 0 C1.9375 0.375 1.9375 0.375 4 1 C5.87078832 4.74157665 5.18475528 9.25792688 5.1875 13.375 C5.19974609 14.3340625 5.21199219 15.293125 5.22460938 16.28125 C5.22654297 17.20679688 5.22847656 18.13234375 5.23046875 19.0859375 C5.23457764 19.9320459 5.23868652 20.7781543 5.24291992 21.64990234 C4.98097254 24.18407868 4.27330955 25.81294812 3 28 C3.03480469 26.98421875 3.06960938 25.9684375 3.10546875 24.921875 C3.3108502 16.14181781 2.69112948 8.45783552 0 0 Z " fill="#D27620" transform="translate(337,128)"/>
<path d="M0 0 C0.66 0 1.32 0 2 0 C2 1.65 2 3.3 2 5 C0.02 5.66 -1.96 6.32 -4 7 C-3.34 5.35 -2.68 3.7 -2 2 C-1.34 2 -0.68 2 0 2 C0 1.34 0 0.68 0 0 Z M-7 7 C-6.01 7.33 -5.02 7.66 -4 8 C-4.42152344 8.48210937 -4.84304687 8.96421875 -5.27734375 9.4609375 C-5.82519531 10.09257812 -6.37304688 10.72421875 -6.9375 11.375 C-7.48277344 12.00148437 -8.02804688 12.62796875 -8.58984375 13.2734375 C-10.06958624 14.95632334 -10.06958624 14.95632334 -11 17 C-11.99 16.67 -12.98 16.34 -14 16 C-13.67 15.01 -13.34 14.02 -13 13 C-12.34 13 -11.68 13 -11 13 C-10.71125 12.38125 -10.4225 11.7625 -10.125 11.125 C-9 9 -9 9 -7 7 Z " fill="#FCA50E" transform="translate(142,179)"/>
<path d="M0 0 C7.30627306 3.4095941 7.30627306 3.4095941 9 6 C8.6875 8.6875 8.6875 8.6875 8 11 C7.34 11 6.68 11 6 11 C5.7525 11.86625 5.505 12.7325 5.25 13.625 C3.93221387 17.18302254 2.19813178 19.9226155 0 23 C-0.33 22.01 -0.66 21.02 -1 20 C-0.67 19.34 -0.34 18.68 0 18 C0.66 18 1.32 18 2 18 C2 16.68 2 15.36 2 14 C2.66 14 3.32 14 4 14 C4.66 11.69 5.32 9.38 6 7 C3.28395285 4.12579877 3.28395285 4.12579877 0 2 C0 1.34 0 0.68 0 0 Z " fill="#E3B33A" transform="translate(219,73)"/>
<path d="M0 0 C2.33524782 2.25740623 4.18705073 4.2805761 6 7 C6 7.99 6 8.98 6 10 C6.66 10 7.32 10 8 10 C8.33 11.32 8.66 12.64 9 14 C6.525 15.485 6.525 15.485 4 17 C4 14.03 4 11.06 4 8 C3.01 8 2.02 8 1 8 C-0.35439668 5.29120665 -0.06501451 2.99066732 0 0 Z " fill="#E6B644" transform="translate(220,198)"/>
<path d="M0 0 C-3.22791555 2.1519437 -4.28400809 2.20086443 -8 2 C-8.33 3.32 -8.66 4.64 -9 6 C-11.31 6 -13.62 6 -16 6 C-16 6.66 -16 7.32 -16 8 C-16.99 7.67 -17.98 7.34 -19 7 C-14.2067127 2.52626518 -6.68156434 -2.391784 0 0 Z " fill="#FCEBBF" transform="translate(288,104)"/>
<path d="M0 0 C0.66 0 1.32 0 2 0 C0.7874262 3.72433382 -0.50859979 7.37802806 -2 11 C-3.32 11 -4.64 11 -6 11 C-6 11.66 -6 12.32 -6 13 C-6.99 13.33 -7.98 13.66 -9 14 C-7.65686815 10.21908383 -5.97035316 7.34348084 -3.5 4.1875 C-2.8915625 3.39730469 -2.283125 2.60710937 -1.65625 1.79296875 C-0.83640625 0.90544922 -0.83640625 0.90544922 0 0 Z " fill="#FBECB7" transform="translate(266,113)"/>
<path d="M0 0 C2.475 0.495 2.475 0.495 5 1 C5.33 2.65 5.66 4.3 6 6 C7.65 5.67 9.3 5.34 11 5 C11 7.97 11 10.94 11 14 C8.16737886 11.26138177 5.66021341 8.42826734 3.25 5.3125 C2.63640625 4.52488281 2.0228125 3.73726563 1.390625 2.92578125 C0 1 0 1 0 0 Z " fill="#F9F3DA" transform="translate(357,86)"/>
<path d="M0 0 C0 1.32 0 2.64 0 4 C-2.64 3.67 -5.28 3.34 -8 3 C-8 3.66 -8 4.32 -8 5 C-11.96 5 -15.92 5 -20 5 C-20 4.67 -20 4.34 -20 4 C-17.41806023 3.32749476 -14.83467929 2.66182099 -12.25 2 C-11.15558594 1.71382812 -11.15558594 1.71382812 -10.0390625 1.421875 C-6.55428354 0.53484036 -3.61876278 0 0 0 Z " fill="#FBEEAB" transform="translate(208,224)"/>
<path d="M0 0 C3.93801896 0.91581836 6.21378588 1.91756467 8.6875 5.0625 C10.73489697 8.2170827 10.73489697 8.2170827 14 9 C14.6875 11.0625 14.6875 11.0625 15 13 C7.86298659 10.69096625 3.75020967 6.20226984 0 0 Z " fill="#FCE8B2" transform="translate(142,171)"/>
<path d="M0 0 C0.99 0.33 1.98 0.66 3 1 C-2 6 -7 11 -12 16 C-12 14.35 -12 12.7 -12 11 C-10.68 10.67 -9.36 10.34 -8 10 C-7.67 8.68 -7.34 7.36 -7 6 C-6.01 6 -5.02 6 -4 6 C-4 5.34 -4 4.68 -4 4 C-3.34 4 -2.68 4 -2 4 C-2 3.34 -2 2.68 -2 2 C-1.34 2 -0.68 2 0 2 C0 1.34 0 0.68 0 0 Z " fill="#FEEDB3" transform="translate(240,80)"/>
<path d="M0 0 C0.33 0 0.66 0 1 0 C1 1.65 1 3.3 1 5 C2.65 5.33 4.3 5.66 6 6 C6 6.99 6 7.98 6 9 C6.99 9.33 7.98 9.66 9 10 C9 10.66 9 11.32 9 12 C10.32 12 11.64 12 13 12 C12.67 12.99 12.34 13.98 12 15 C6.88276824 11.80173015 2.47307108 8.04165813 -2 4 C-1.34 2.68 -0.68 1.36 0 0 Z " fill="#D27E29" transform="translate(240,202)"/>
<path d="M0 0 C3.54627879 2.36418586 4.04799721 3.86070477 5.625 7.75 C6.05039062 8.77609375 6.47578125 9.8021875 6.9140625 10.859375 C7.97186036 13.91861772 8.56858496 16.7979417 9 20 C8.34 20.33 7.68 20.66 7 21 C6.82984375 20.443125 6.6596875 19.88625 6.484375 19.3125 C4.96845985 14.53897995 3.21743153 10.19743386 0.76953125 5.82421875 C0 4 0 4 0 0 Z " fill="#CF7E2B" transform="translate(369,104)"/>
<path d="M0 0 C2.9905617 4.48584256 3.12600227 8.43757589 3.09765625 13.73828125 C3.09443359 14.80498047 3.09121094 15.87167969 3.08789062 16.97070312 C3.07951172 18.07349609 3.07113281 19.17628906 3.0625 20.3125 C3.05798828 21.43462891 3.05347656 22.55675781 3.04882812 23.71289062 C3.03707313 26.4753151 3.02064077 29.23762998 3 32 C1 30 1 30 0.83984375 26.03515625 C0.86401673 24.3774608 0.89706458 22.71987851 0.9375 21.0625 C1.03367124 13.97454615 0.88662273 7.04548417 0 0 Z " fill="#FCFBED" transform="translate(381,128)"/>
<path d="M0 0 C2.97 0 5.94 0 9 0 C8.67 0.66 8.34 1.32 8 2 C6.68 2 5.36 2 4 2 C4 2.66 4 3.32 4 4 C3.360625 4.103125 2.72125 4.20625 2.0625 4.3125 C1.381875 4.539375 0.70125 4.76625 0 5 C-0.33 5.99 -0.66 6.98 -1 8 C-2.9375 9.0625 -2.9375 9.0625 -5 10 C-5.66 10.66 -6.32 11.32 -7 12 C-7 10.35 -7 8.7 -7 7 C-5.68 7 -4.36 7 -3 7 C-3 6.01 -3 5.02 -3 4 C-1.68 3.34 -0.36 2.68 1 2 C0.67 1.34 0.34 0.68 0 0 Z " fill="#E7B130" transform="translate(152,104)"/>
<path d="M0 0 C0.66 0.33 1.32 0.66 2 1 C1.38125 1.5775 0.7625 2.155 0.125 2.75 C-1.81347053 4.80249821 -2.90014249 6.43366582 -4 9 C-5.32 9 -6.64 9 -8 9 C-8.33 10.32 -8.66 11.64 -9 13 C-10.32 12.67 -11.64 12.34 -13 12 C-11.71451591 10.66070495 -10.42141845 9.32871357 -9.125 8 C-8.04605469 6.88625 -8.04605469 6.88625 -6.9453125 5.75 C-5 4 -5 4 -3 4 C-3 3.34 -3 2.68 -3 2 C-2.01 1.34 -1.02 0.68 0 0 Z " fill="#E4B334" transform="translate(248,76)"/>
<path d="M0 0 C2.52671978 0.91880719 3.56050219 1.49700328 5.0625 3.75 C5.43845528 7.8855081 5.57885926 11.30656101 3.0625 14.75 C2.0725 15.08 1.0825 15.41 0.0625 15.75 C0.3925 14.43 0.7225 13.11 1.0625 11.75 C1.7225 11.75 2.3825 11.75 3.0625 11.75 C3.48120553 9.41928121 3.48120553 9.41928121 3.0625 6.75 C0.73928298 4.50808599 0.73928298 4.50808599 -1.9375 2.75 C-2.5975 2.09 -3.2575 1.43 -3.9375 0.75 C-1.9375 -0.25 -1.9375 -0.25 0 0 Z " fill="#FAECB8" transform="translate(223.9375,72.25)"/>
<path d="M0 0 C0.33 1.32 0.66 2.64 1 4 C0.34 4 -0.32 4 -1 4 C-1.12375 5.0725 -1.2475 6.145 -1.375 7.25 C-1.89643936 10.37863615 -2.40088254 12.33480424 -4 15 C-4.99 14.67 -5.98 14.34 -7 14 C-7 12.68 -7 11.36 -7 10 C-6.34 10 -5.68 10 -5 10 C-4.731875 9.278125 -4.46375 8.55625 -4.1875 7.8125 C-3.01017502 5.02409874 -1.60854116 2.55904276 0 0 Z " fill="#FBF7D4" transform="translate(214,104)"/>
<path d="M0 0 C0.33 0.66 0.66 1.32 1 2 C1.6496875 2.12890625 2.299375 2.2578125 2.96875 2.390625 C5 3 5 3 5.90625 4.671875 C6.1021875 5.35765625 6.298125 6.0434375 6.5 6.75 C7.71883788 10.49405449 9.32866664 13.05232181 12 16 C11.67 16.66 11.34 17.32 11 18 C9.5369343 16.25395451 8.0797192 14.50300547 6.625 12.75 C5.81289062 11.77546875 5.00078125 10.8009375 4.1640625 9.796875 C1.5003195 6.35420354 0 4.37407348 0 0 Z " fill="#E3B036" transform="translate(223,184)"/>
<path d="M0 0 C2.41794061 0.78793587 4.8343187 1.58019174 7.25 2.375 C8.27287109 2.70757812 8.27287109 2.70757812 9.31640625 3.046875 C12.6756032 4.15573613 15.89741865 5.28878245 19 7 C17.39592672 7.02708567 15.7917215 7.04643483 14.1875 7.0625 C12.84751953 7.07990234 12.84751953 7.07990234 11.48046875 7.09765625 C9 7 9 7 6 6 C6 5.34 6 4.68 6 4 C5.071875 3.7834375 5.071875 3.7834375 4.125 3.5625 C2 3 2 3 0 2 C0 1.34 0 0.68 0 0 Z " fill="#FBEDB6" transform="translate(141,221)"/>
<path d="M0 0 C-2.021743 5.88143419 -5.57471435 10.86207153 -9 16 C-9 13.69 -9 11.38 -9 9 C-8.34 9 -7.68 9 -7 9 C-6.81824219 8.15115234 -6.81824219 8.15115234 -6.6328125 7.28515625 C-6.46523437 6.55167969 -6.29765625 5.81820312 -6.125 5.0625 C-5.96257812 4.33160156 -5.80015625 3.60070312 -5.6328125 2.84765625 C-4.57280927 -0.24729146 -3.12573999 0 0 0 Z " fill="#D37C24" transform="translate(145,114)"/>
<path d="M0 0 C-0.54074373 3.78520613 -2.07572746 5.59177555 -5 8 C-5.99 8 -6.98 8 -8 8 C-8 6.35 -8 4.7 -8 3 C-2.25 0 -2.25 0 0 0 Z " fill="#F7FEEE" transform="translate(344,216)"/>
<path d="M0 0 C5.94 0 11.88 0 18 0 C18 0.33 18 0.66 18 1 C10.08 1.99 2.16 2.98 -6 4 C-5.67 3.34 -5.34 2.68 -5 2 C-3.35 2 -1.7 2 0 2 C0 1.34 0 0.68 0 0 Z " fill="#FEF7CB" transform="translate(162,60)"/>
<path d="M0 0 C6.75 1.75 6.75 1.75 9 4 C10.175625 4.495 11.35125 4.99 12.5625 5.5 C16 7 16 7 17 9 C10.35844129 8.16980516 4.3559098 5.08189476 0 0 Z " fill="#FBE4BF" transform="translate(268,178)"/>
<path d="M0 0 C0.33 0 0.66 0 1 0 C1.04898438 1.134375 1.09796875 2.26875 1.1484375 3.4375 C1.2235414 4.95835398 1.29908584 6.47918625 1.375 8 C1.4059375 8.74378906 1.436875 9.48757812 1.46875 10.25390625 C1.73753793 15.40567483 2.61063884 20.02992756 4 25 C3.01 25 2.02 25 1 25 C0.24636948 21.64908229 -0.11979937 18.56890188 -0.09765625 15.13671875 C-0.09443359 14.25048828 -0.09121094 13.36425781 -0.08789062 12.45117188 C-0.07951172 11.53916016 -0.07113281 10.62714844 -0.0625 9.6875 C-0.05798828 8.75615234 -0.05347656 7.82480469 -0.04882812 6.86523438 C-0.03709234 4.57675627 -0.02067363 2.28841192 0 0 Z " fill="#E7AE1D" transform="translate(251,135)"/>
<path d="M0 0 C9.46045504 0.96208017 9.46045504 0.96208017 13 3 C13.62890625 5.07421875 13.62890625 5.07421875 14 7 C8.547001 5.43181728 4.23513217 3.96189783 0 0 Z " fill="#F9EDAF" transform="translate(206,66)"/>
<path d="M0 0 C0.66 0 1.32 0 2 0 C2 0.66 2 1.32 2 2 C3.32 1.67 4.64 1.34 6 1 C6.8441938 4.97977076 7.44687265 8.97007218 8 13 C3.68614204 9.45647382 2.0278602 5.04807753 0 0 Z " fill="#FDF5C7" transform="translate(216,189)"/>
<path d="M0 0 C2.09721098 3.14581646 3.05667086 5.8408918 4.1875 9.4375 C4.55230469 10.57058594 4.91710937 11.70367187 5.29296875 12.87109375 C5.96248932 15.8339997 6.07236414 17.22004965 5 20 C0.68966091 13.53449136 -0.26617818 7.58607823 0 0 Z " fill="#FCEDBD" transform="translate(213,160)"/>
<path d="M0 0 C0.33 0 0.66 0 1 0 C0.88581333 2.58422459 0.75907638 5.16679513 0.625 7.75 C0.5940625 8.47960937 0.563125 9.20921875 0.53125 9.9609375 C0.3251506 13.73942656 0.08487157 16.77946668 -2 20 C-2.0544452 17.79194476 -2.09299283 15.58349446 -2.125 13.375 C-2.14820313 12.14523438 -2.17140625 10.91546875 -2.1953125 9.6484375 C-2.0030428 6.05683959 -1.30258556 3.33338825 0 0 Z " fill="#FDF7D8" transform="translate(256,128)"/>
<path d="M0 0 C0.66 0 1.32 0 2 0 C2 0.99 2 1.98 2 3 C2.94746094 3.3403125 2.94746094 3.3403125 3.9140625 3.6875 C6 5 6 5 6.8984375 7.3125 C7.05570312 8.199375 7.21296875 9.08625 7.375 10 C7.54773438 10.886875 7.72046875 11.77375 7.8984375 12.6875 C7.93195313 13.450625 7.96546875 14.21375 8 15 C7.34 15.66 6.68 16.32 6 17 C1.77676538 5.47835991 1.77676538 5.47835991 0 0 Z " fill="#FBE7C1" transform="translate(371,105)"/>
<path d="M0 0 C4.62 0 9.24 0 14 0 C11.42853943 2.57146057 9.3949583 2.80117997 5.875 3.625 C4.23144531 4.01558594 4.23144531 4.01558594 2.5546875 4.4140625 C1.71164063 4.60742188 0.86859375 4.80078125 0 5 C0 3.35 0 1.7 0 0 Z " fill="#FCF8D8" transform="translate(140,64)"/>
<path d="M0 0 C6.6104333 1.34656975 12.06830376 3.81535981 18 7 C14.38111229 8.2062959 13.18429287 7.38198652 9.84375 5.83203125 C7.29603129 4.6823192 4.65548157 3.8645754 2 3 C1.34 2.67 0.68 2.34 0 2 C0 1.34 0 0.68 0 0 Z " fill="#E5B331" transform="translate(200,65)"/>
<path d="M0 0 C7.92 0.33 15.84 0.66 24 1 C24 1.33 24 1.66 24 2 C20.3754207 2.19632025 16.75032733 2.38055978 13.125 2.5625 C12.09246094 2.61857422 11.05992187 2.67464844 9.99609375 2.73242188 C8.51689453 2.80493164 8.51689453 2.80493164 7.0078125 2.87890625 C5.64100342 2.94960327 5.64100342 2.94960327 4.24658203 3.02172852 C2 3 2 3 0 2 C0 1.34 0 0.68 0 0 Z " fill="#FEEFBA" transform="translate(160,228)"/>
<path d="M0 0 C1.32 0.33 2.64 0.66 4 1 C3.34 1.66 2.68 2.32 2 3 C2.165 3.825 2.33 4.65 2.5 5.5 C2.665 6.325 2.83 7.15 3 8 C2.34 8.66 1.68 9.32 1 10 C1 9.34 1 8.68 1 8 C0.34 8 -0.32 8 -1 8 C-2.625 6 -2.625 6 -4 4 C-3.34 4 -2.68 4 -2 4 C-1.34 2.68 -0.68 1.36 0 0 Z " fill="#EFAA28" transform="translate(121,82)"/>
<path d="M0 0 C5.66153846 2.46153846 5.66153846 2.46153846 7.375 5.1875 C7.58125 5.785625 7.7875 6.38375 8 7 C6.68 7.33 5.36 7.66 4 8 C4 7.01 4 6.02 4 5 C2.35 5 0.7 5 -1 5 C-0.67 3.35 -0.34 1.7 0 0 Z " fill="#ECB636" transform="translate(349,80)"/>
<path d="M0 0 C2.31 0 4.62 0 7 0 C4.63202009 2.61724095 2.10399646 4.32861729 -1 6 C-1.66 6 -2.32 6 -3 6 C-3.33 6.66 -3.66 7.32 -4 8 C-4 6.35 -4 4.7 -4 3 C-2.68 3 -1.36 3 0 3 C0 2.01 0 1.02 0 0 Z " fill="#FEF0CA" transform="translate(248,72)"/>
<path d="M0 0 C-2.29808633 2.68721915 -3.98288218 3.48417713 -7.4375 4.125 C-8.19933594 4.27195312 -8.96117187 4.41890625 -9.74609375 4.5703125 C-10.48988281 4.71210937 -11.23367187 4.85390625 -12 5 C-13.33558511 5.32419331 -14.66975194 5.65455973 -16 6 C-12.14840347 1.74297226 -5.82230846 -2.91115423 0 0 Z " fill="#E9AD0E" transform="translate(158,66)"/>
<path d="M0 0 C0.99 0.33 1.98 0.66 3 1 C3 1.66 3 2.32 3 3 C3.66 3 4.32 3 5 3 C9 7.47058824 9 7.47058824 9 10 C9.66 10 10.32 10 11 10 C11.33 10.99 11.66 11.98 12 13 C8.64065168 11.56875447 6.68207173 9.82271696 4.3125 7.0625 C3.71050781 6.37285156 3.10851562 5.68320313 2.48828125 4.97265625 C1 3 1 3 0 0 Z " fill="#D0781F" transform="translate(107,191)"/>
<path d="M0 0 C2.77643441 2.35996925 4.31420364 5.12962594 6.03515625 8.28125 C6.94447862 9.90109552 7.96957564 11.45436346 9 13 C6.75 13 6.75 13 4 12 C1.19020589 8.07706062 0 4.83245843 0 0 Z " fill="#D67D29" transform="translate(136,162)"/>
<path d="M0 0 C2 0 2 0 3.3125 1.25 C4.1478125 2.11625 4.1478125 2.11625 5 3 C5.886875 3.680625 6.77375 4.36125 7.6875 5.0625 C8.450625 5.701875 9.21375 6.34125 10 7 C10 7.66 10 8.32 10 9 C6.55243044 7.78869178 4.50594374 6.61489782 2 4 C-0.09989652 2.82425289 -0.09989652 2.82425289 -2 2 C-1.34 1.34 -0.68 0.68 0 0 Z " fill="#FDEFBF" transform="translate(342,72)"/>
<path d="M0 0 C3.71599191 -0.20086443 4.77208445 -0.1519437 8 2 C9.65549531 2.38499891 11.3222433 2.72793135 13 3 C13.33 4.32 13.66 5.64 14 7 C9.0276578 5.50829734 4.58154261 3.39542583 0 1 C0 0.67 0 0.34 0 0 Z " fill="#FBF2BE" transform="translate(326,66)"/>
<path d="M0 0 C-0.845625 0.4125 -1.69125 0.825 -2.5625 1.25 C-5.02314316 2.50269106 -7.37667651 3.78937861 -9.75 5.1875 C-13 7 -13 7 -15 7 C-15 6.34 -15 5.68 -15 5 C-12.04518508 2.25624329 -11.22528092 2 -7 2 C-7 1.34 -7 0.68 -7 0 C-3.98968256 -0.93423645 -3.13349732 -1.04449911 0 0 Z " fill="#E4AE2D" transform="translate(223,216)"/>
<path d="M0 0 C2.97246802 2.54782974 4.41535288 5.45340883 6 9 C6 9.66 6 10.32 6 11 C6.66 11 7.32 11 8 11 C8.33 11.99 8.66 12.98 9 14 C8.34 14.66 7.68 15.32 7 16 C5.82845707 13.71070947 4.66261926 11.41881638 3.5 9.125 C3.16613281 8.47402344 2.83226563 7.82304687 2.48828125 7.15234375 C0 2.2265625 0 2.2265625 0 0 Z " fill="#CF7D30" transform="translate(99,175)"/>
<path d="M0 0 C5.61 0.33 11.22 0.66 17 1 C17.33 1.99 17.66 2.98 18 4 C11.91766294 3.32418477 5.98685848 2.26361972 0 1 C0 0.67 0 0.34 0 0 Z " fill="#FDE8B0" transform="translate(308,62)"/>
<path d="M0 0 C4.571279 0.54855348 8.67435795 1.41744803 13 3 C13 3.66 13 4.32 13 5 C11.3934324 4.74379316 9.7897517 4.46944129 8.1875 4.1875 C7.29417969 4.03667969 6.40085937 3.88585937 5.48046875 3.73046875 C2.81678744 2.94604607 1.74309678 2.11372201 0 0 Z " fill="#D37623" transform="translate(256,218)"/>
<path d="M0 0 C4.21814817 3.9700218 7.61227103 8.30840284 11 13 C10.01 13.495 10.01 13.495 9 14 C6 10.25 6 10.25 6 8 C5.34 8 4.68 8 4 8 C4 7.34 4 6.68 4 6 C3.34 6 2.68 6 2 6 C0 3 0 3 0 0 Z " fill="#D18035" transform="translate(357,87)"/>
<path d="M0 0 C2.88437779 1.29299694 4.87219421 2.65941363 7 5 C3.71023192 6.09658936 2.28696233 5.79953138 -1 5 C-0.67 3.35 -0.34 1.7 0 0 Z " fill="#D47C27" transform="translate(265,177)"/>
<path d="M0 0 C0.66 0 1.32 0 2 0 C1.46884894 4.51478398 -0.36620292 7.34666857 -3 11 C-3.33 9.68 -3.66 8.36 -4 7 C-3.34 7 -2.68 7 -2 7 C-2.04125 6.21625 -2.0825 5.4325 -2.125 4.625 C-2 2 -2 2 0 0 Z " fill="#EAB02D" transform="translate(215,97)"/>
<path d="M0 0 C-0.33 0.66 -0.66 1.32 -1 2 C-5.95 2 -10.9 2 -16 2 C-16 1.67 -16 1.34 -16 1 C-14.0852312 0.63571223 -12.16807707 0.28394694 -10.25 -0.0625 C-9.18265625 -0.25972656 -8.1153125 -0.45695313 -7.015625 -0.66015625 C-4.25228095 -0.97156937 -2.59053383 -0.8991416 0 0 Z " fill="#DEB738" transform="translate(192,188)"/>
<path d="M0 0 C4.19360449 0.67097672 7.40334352 2.8558394 11 5 C11 5.99 11 6.98 11 8 C9.125 7.6875 9.125 7.6875 7 7 C6.34 6.01 5.68 5.02 5 4 C3.34738161 2.97695052 1.68208635 1.97383946 0 1 C0 0.67 0 0.34 0 0 Z " fill="#FDF7D9" transform="translate(309,104)"/>
<path d="M0 0 C2.5999298 2.51027705 4.99091227 4.9863684 7 8 C7 8.66 7 9.32 7 10 C4.625 9.5 4.625 9.5 2 8 C0.91758097 5.33474712 0.50727893 2.8592085 0 0 Z " fill="#FBE5C0" transform="translate(104,188)"/>
<path d="M0 0 C1.32 0.33 2.64 0.66 4 1 C0.7 3.31 -2.6 5.62 -6 8 C-6.33 7.01 -6.66 6.02 -7 5 C-5.35 4.67 -3.7 4.34 -2 4 C-2 3.34 -2 2.68 -2 2 C-1.34 2 -0.68 2 0 2 C0 1.34 0 0.68 0 0 Z " fill="#FBEECA" transform="translate(324,176)"/>
<path d="M0 0 C1.19799449 4.14659373 0.8896192 7.99369047 0.5625 12.25 C0.48418945 13.36761719 0.48418945 13.36761719 0.40429688 14.5078125 C0.2751783 16.33894861 0.13834886 18.16953813 0 20 C-0.33 20 -0.66 20 -1 20 C-1.33 13.73 -1.66 7.46 -2 1 C-1.34 0.67 -0.68 0.34 0 0 Z " fill="#DB904D" transform="translate(134,132)"/>
<path d="M0 0 C1.98 0.99 1.98 0.99 4 2 C4 2.66 4 3.32 4 4 C4.99 4 5.98 4 7 4 C8.66670026 7.52948291 9.13583456 9.28272326 8 13 C7.59007812 12.31292969 7.18015625 11.62585938 6.7578125 10.91796875 C6.21898437 10.01691406 5.68015625 9.11585937 5.125 8.1875 C4.32449219 6.84751953 4.32449219 6.84751953 3.5078125 5.48046875 C2.38116908 3.62705276 1.20313389 1.80470083 0 0 Z " fill="#D07D23" transform="translate(328,114)"/>
<path d="M0 0 C1.1446875 0.12375 1.1446875 0.12375 2.3125 0.25 C-0.79766455 3.53788824 -3.70368925 6.08735988 -7.6875 8.25 C-4.03125 0.375 -4.03125 0.375 0 0 Z " fill="#DEAD2C" transform="translate(271.6875,106.75)"/>
<path d="M0 0 C2.97 0 5.94 0 9 0 C9.33 0.99 9.66 1.98 10 3 C10.66 3 11.32 3 12 3 C12 3.66 12 4.32 12 5 C8 3.66666667 4 2.33333333 0 1 C0 0.67 0 0.34 0 0 Z " fill="#E3B63C" transform="translate(188,103)"/>
<path d="M0 0 C0 0.33 0 0.66 0 1 C-1.91345327 1.53251766 -3.8309295 2.05059483 -5.75 2.5625 C-6.81734375 2.85253906 -7.8846875 3.14257812 -8.984375 3.44140625 C-11.84335927 3.97098494 -13.31597383 3.98370862 -16 3 C-15.37351563 2.79503906 -14.74703125 2.59007812 -14.1015625 2.37890625 C-13.28429687 2.10949219 -12.46703125 1.84007812 -11.625 1.5625 C-10.81289062 1.29566406 -10.00078125 1.02882812 -9.1640625 0.75390625 C-5.37977385 -0.56444701 -4.03790425 -0.95634574 0 0 Z " fill="#FFFEEA" transform="translate(162,61)"/>
<path d="M0 0 C2.64 1.98 5.28 3.96 8 6 C7.67 6.66 7.34 7.32 7 8 C4.13792848 6.71700242 1.9754912 5.469364 0 3 C0 2.01 0 1.02 0 0 Z " fill="#FCECCD" transform="translate(240,208)"/>
<path d="M0 0 C0.66 1.65 1.32 3.3 2 5 C0.824375 4.690625 0.824375 4.690625 -0.375 4.375 C-1.674375 4.189375 -1.674375 4.189375 -3 4 C-3.66 4.66 -4.32 5.32 -5 6 C-7.125 5.625 -7.125 5.625 -9 5 C-7.87926138 4.16094435 -6.75325453 3.32892169 -5.625 2.5 C-4.99851563 2.0359375 -4.37203125 1.571875 -3.7265625 1.09375 C-2 0 -2 0 0 0 Z " fill="#DFB746" transform="translate(209,177)"/>
<path d="M0 0 C1.25955231 3.77865693 0.48087189 5.03411786 -0.9375 8.6875 C-1.31777344 9.68136719 -1.69804688 10.67523438 -2.08984375 11.69921875 C-2.39019531 12.45847656 -2.69054687 13.21773437 -3 14 C-4.45606519 9.47907032 -3.27032841 6.48351204 -2 2 C-1.34 2 -0.68 2 0 2 C0 1.34 0 0.68 0 0 Z " fill="#FCEFCC" transform="translate(99,110)"/>
<path d="M0 0 C1.423125 0.495 1.423125 0.495 2.875 1 C5.77062452 2.10159191 5.77062452 2.10159191 8 2 C8 2.66 8 3.32 8 4 C8.99 4.33 9.98 4.66 11 5 C11 5.66 11 6.32 11 7 C6.89188572 5.55007731 3.53144334 3.54592427 0 1 C0 0.67 0 0.34 0 0 Z " fill="#E9B937" transform="translate(125,211)"/>
<path d="M0 0 C2 1.75 2 1.75 4 4 C4 5.32 4 6.64 4 8 C3.01 8 2.02 8 1 8 C-0.35439668 5.29120665 -0.06501451 2.99066732 0 0 Z " fill="#EDB32E" transform="translate(220,198)"/>
<path d="M0 0 C2.38672669 2.96283313 4.7353371 5.94270509 7 9 C6.01 9.66 5.02 10.32 4 11 C4 9.68 4 8.36 4 7 C3.01 7 2.02 7 1 7 C0.67 4.69 0.34 2.38 0 0 Z " fill="#E5B23A" transform="translate(259,168)"/>
<path d="M0 0 C2.4375 1 2.4375 1 5 3 C5.76381481 5.72714162 5.85942648 8.14167178 6 11 C3.02753198 8.45217026 1.58464712 5.54659117 0 2 C0 1.34 0 0.68 0 0 Z " fill="#FCE0BC" transform="translate(136,160)"/>
<path d="M0 0 C0.33 0 0.66 0 1 0 C1.36463732 1.74784829 1.7163078 3.49840502 2.0625 5.25 C2.25972656 6.22453125 2.45695312 7.1990625 2.66015625 8.203125 C2.98397535 10.868119 2.85503199 12.48871723 2 15 C-0.35119399 11.47320901 -0.21443452 9.97120515 -0.125 5.8125 C-0.10695313 4.72582031 -0.08890625 3.63914063 -0.0703125 2.51953125 C-0.04710938 1.68808594 -0.02390625 0.85664063 0 0 Z " fill="#FAE2BE" transform="translate(93,154)"/>
<path d="M0 0 C1.32 0.33 2.64 0.66 4 1 C4 4.63 4 8.26 4 12 C1.94116077 7.88232154 1.03834872 4.45006595 0 0 Z " fill="#D18433" transform="translate(337,128)"/>
<path d="M0 0 C-1.26117725 3.88862987 -2.45264167 5.89375599 -6 8 C-6.66 8 -7.32 8 -8 8 C-8 7.01 -8 6.02 -8 5 C-7.01 5 -6.02 5 -5 5 C-5 4.34 -5 3.68 -5 3 C-2.46153846 0 -2.46153846 0 0 0 Z " fill="#FCA824" transform="translate(339,102)"/>
<path d="M0 0 C0.99 0 1.98 0 3 0 C1.52307692 5.66153846 1.52307692 5.66153846 -1.125 7.375 C-2.053125 7.684375 -2.053125 7.684375 -3 8 C-1.125 1.125 -1.125 1.125 0 0 Z " fill="#FEECC1" transform="translate(218,96)"/>
<path d="M0 0 C0.66 0 1.32 0 2 0 C1.75 2.375 1.75 2.375 1 5 C-1.0625 6.3125 -1.0625 6.3125 -3 7 C-3.33 6.34 -3.66 5.68 -4 5 C-2.71937515 3.2925002 -1.38232443 1.62626404 0 0 Z " fill="#DD7A07" transform="translate(355,87)"/>
<path d="M0 0 C0 1.32 0 2.64 0 4 C-2.31 3.67 -4.62 3.34 -7 3 C-4.49955934 -0.00052879 -4.2621484 0 0 0 Z " fill="#FEF4D0" transform="translate(208,224)"/>
<path d="M0 0 C2.64 0.99 5.28 1.98 8 3 C6.68 3.33 5.36 3.66 4 4 C2.6520257 4.63654342 1.31403276 5.29605388 0 6 C0 4.02 0 2.04 0 0 Z " fill="#DC7B27" transform="translate(272,182)"/>
<path d="M0 0 C0.33 0.66 0.66 1.32 1 2 C-1.17424117 4.50037734 -2.73045798 5.43628586 -6 6 C-6 6.66 -6 7.32 -6 8 C-7.32 7.67 -8.64 7.34 -10 7 C-6.7 4.69 -3.4 2.38 0 0 Z " fill="#CF8838" transform="translate(328,176)"/>
<path d="M0 0 C1.32 0 2.64 0 4 0 C3.45773019 3.79588866 1.79872437 5.47211993 -1 8 C-0.67 5.36 -0.34 2.72 0 0 Z " fill="#FCEDCC" transform="translate(332,164)"/>
<path d="M0 0 C0.99 0.33 1.98 0.66 3 1 C2.67 1.99 2.34 2.98 2 4 C0.68 4 -0.64 4 -2 4 C-2 4.66 -2 5.32 -2 6 C-2.99 6.33 -3.98 6.66 -5 7 C-3.75023244 3.34683329 -3.32901247 2.21934164 0 0 Z " fill="#F9F4CF" transform="translate(262,120)"/>
<path d="M0 0 C0.66 0.99 1.32 1.98 2 3 C1.01 4.485 1.01 4.485 0 6 C-0.70812814 8.32108669 -1.38024152 10.65377147 -2 13 C-2.66 12.67 -3.32 12.34 -4 12 C-3.52309796 10.37433394 -3.04340334 8.74948689 -2.5625 7.125 C-2.29566406 6.22007813 -2.02882813 5.31515625 -1.75390625 4.3828125 C-1 2 -1 2 0 0 Z " fill="#D1883A" transform="translate(101,108)"/>
<path d="M0 0 C9.59453303 1.74259681 9.59453303 1.74259681 13 5 C11.02 5 9.04 5 7 5 C7 4.34 7 3.68 7 3 C4.69 2.34 2.38 1.68 0 1 C0 0.67 0 0.34 0 0 Z " fill="#FDF6BF" transform="translate(185,103)"/>
<path d="M0 0 C-3.03525486 2.02350324 -4.19426202 2.32124018 -7.6875 2.625 C-8.49574219 2.69976562 -9.30398438 2.77453125 -10.13671875 2.8515625 C-10.75160156 2.90054688 -11.36648438 2.94953125 -12 3 C-7.91789166 -0.35316042 -5.14839074 -1.65483988 0 0 Z " fill="#F7E8B0" transform="translate(288,104)"/>
<path d="M0 0 C0.7425 0.0825 1.485 0.165 2.25 0.25 C1.125 2.25 1.125 2.25 -0.75 4.25 C-3.9375 4.5 -3.9375 4.5 -6.75 4.25 C-3.42692308 0.31153846 -3.42692308 0.31153846 0 0 Z " fill="#FCF8E4" transform="translate(114.75,85.75)"/>
<path d="M0 0 C2.475 0.495 2.475 0.495 5 1 C5.66 3.31 6.32 5.62 7 8 C4.35247996 5.42215154 2.05567935 3.08351902 0 0 Z " fill="#FCECCC" transform="translate(357,86)"/>
<path d="M0 0 C0 2 0 2 -1.125 3.625 C-3.75887944 5.55651159 -5.81916956 5.21205536 -9 5 C-6.45523312 2.20075644 -3.92372883 0 0 0 Z " fill="#FAE1BE" transform="translate(336,220)"/>
<path d="M0 0 C2.475 0.99 2.475 0.99 5 2 C5 2.99 5 3.98 5 5 C5.99 5.33 6.98 5.66 8 6 C2.25 5.125 2.25 5.125 0 4 C0 2.68 0 1.36 0 0 Z " fill="#FEEDCF" transform="translate(256,219)"/>
<path d="M0 0 C3.68754757 0.49831724 5.60490662 1.10067643 8 4 C7.67 4.99 7.34 5.98 7 7 C5.83040013 6.02433888 4.66438823 5.044375 3.5 4.0625 C2.8503125 3.51722656 2.200625 2.97195312 1.53125 2.41015625 C1.0259375 1.94480469 0.520625 1.47945312 0 1 C0 0.67 0 0.34 0 0 Z " fill="#E3B142" transform="translate(117,204)"/>
<path d="M0 0 C0.33 0.66 0.66 1.32 1 2 C0.22265625 3.9453125 0.22265625 3.9453125 -0.9375 6.125 C-1.31777344 6.84945312 -1.69804687 7.57390625 -2.08984375 8.3203125 C-2.54037109 9.15175781 -2.54037109 9.15175781 -3 10 C-4.32 9.67 -5.64 9.34 -7 9 C-5.76302083 7.53515625 -4.52604167 6.0703125 -3.2890625 4.60546875 C-2.10798901 3.1344954 -1.04641471 1.56962206 0 0 Z " fill="#FAE3C1" transform="translate(367,191)"/>
<path d="M0 0 C0.66 0 1.32 0 2 0 C2.99 2.64 3.98 5.28 5 8 C4.34 8 3.68 8 3 8 C3 7.34 3 6.68 3 6 C2.01 6 1.02 6 0 6 C0 4.02 0 2.04 0 0 Z " fill="#FAE8B3" transform="translate(219,180)"/>
<path d="M0 0 C-2.64 1.65 -5.28 3.3 -8 5 C-8.33 4.01 -8.66 3.02 -9 2 C-3.375 -1.125 -3.375 -1.125 0 0 Z " fill="#FAF3C1" transform="translate(209,177)"/>
<path d="M0 0 C0.66 0 1.32 0 2 0 C2.125 5.75 2.125 5.75 1 8 C0.01 7.67 -0.98 7.34 -2 7 C-2 6.01 -2 5.02 -2 4 C-1.34 4 -0.68 4 0 4 C0 2.68 0 1.36 0 0 Z " fill="#FEFCE9" transform="translate(158,176)"/>
<path d="M0 0 C0.598125 0.639375 1.19625 1.27875 1.8125 1.9375 C3.90810337 4.20310389 3.90810337 4.20310389 7 5 C7.6875 7.0625 7.6875 7.0625 8 9 C3.12314139 7.64531705 1.51407619 5.28324091 -1 1 C-0.67 0.67 -0.34 0.34 0 0 Z " fill="#FDEFCA" transform="translate(149,175)"/>
<path d="M0 0 C0.99 0.33 1.98 0.66 3 1 C2.02433888 2.16959987 1.044375 3.33561177 0.0625 4.5 C-0.48277344 5.1496875 -1.02804687 5.799375 -1.58984375 6.46875 C-2.05519531 6.9740625 -2.52054687 7.479375 -3 8 C-3.33 8 -3.66 8 -4 8 C-4 6.35 -4 4.7 -4 3 C-3.01 3 -2.02 3 -1 3 C-0.67 2.01 -0.34 1.02 0 0 Z " fill="#D7782A" transform="translate(357,200)"/>
<path d="M0 0 C5.875 4.625 5.875 4.625 7 8 C6.34 8 5.68 8 5 8 C5 7.34 5 6.68 5 6 C3.68 6 2.36 6 1 6 C0.67 4.02 0.34 2.04 0 0 Z " fill="#FBE0B7" transform="translate(111,198)"/>
<path d="M0 0 C-1 3 -1 3 -3 4 C-4.54023996 4.06950541 -6.08334988 4.08452357 -7.625 4.0625 C-8.85089844 4.04896484 -8.85089844 4.04896484 -10.1015625 4.03515625 C-11.04128906 4.01775391 -11.04128906 4.01775391 -12 4 C-12 3.67 -12 3.34 -12 3 C-8.97265625 2.26757812 -8.97265625 2.26757812 -5.9453125 1.53515625 C-0.3649635 0 -0.3649635 0 0 0 Z " fill="#D58132" transform="translate(316,185)"/>
<path d="M0 0 C0.66 0 1.32 0 2 0 C1.67 2.64 1.34 5.28 1 8 C0.34 8 -0.32 8 -1 8 C-1.04241723 5.66705225 -1.04092937 3.33297433 -1 1 C-0.67 0.67 -0.34 0.34 0 0 Z " fill="#FBF1D7" transform="translate(375,176)"/>
<path d="M0 0 C0.8125 1.6875 0.8125 1.6875 1 4 C-1.4375 6.75 -1.4375 6.75 -4 9 C-4 7.35 -4 5.7 -4 4 C-2.68 3.67 -1.36 3.34 0 3 C0 2.01 0 1.02 0 0 Z " fill="#FEF4CD" transform="translate(232,87)"/>
<path d="M0 0 C1.98 0 3.96 0 6 0 C5.34 1.32 4.68 2.64 4 4 C3.01 4 2.02 4 1 4 C0.67 2.68 0.34 1.36 0 0 Z " fill="#F4A62F" transform="translate(235,200)"/>
<path d="M0 0 C1.11375 0.3403125 1.11375 0.3403125 2.25 0.6875 C-0.37647188 2.43848126 -3.03775382 4.07481308 -5.75 5.6875 C-6.08 4.6975 -6.41 3.7075 -6.75 2.6875 C-4.29511132 0.41445492 -3.41240272 -0.38777304 0 0 Z " fill="#E07317" transform="translate(278.75,185.3125)"/>
<path d="M0 0 C2.50037734 2.17424117 3.43628586 3.73045798 4 7 C3.01 7.495 3.01 7.495 2 8 C1.34 7.67 0.68 7.34 0 7 C0 4.69 0 2.38 0 0 Z " fill="#F8EAC5" transform="translate(332,120)"/>
<path d="M0 0 C1.65 0 3.3 0 5 0 C5 1.98 5 3.96 5 6 C4.34 5.67 3.68 5.34 3 5 C3 4.34 3 3.68 3 3 C2.01 2.67 1.02 2.34 0 2 C0 1.34 0 0.68 0 0 Z " fill="#FEFCDC" transform="translate(352,80)"/>
<path d="M0 0 C-3.72965139 2.03435531 -5.66905042 3 -10 3 C-10 2.34 -10 1.68 -10 1 C-3.375 -1.125 -3.375 -1.125 0 0 Z " fill="#FBEEB0" transform="translate(268,67)"/>
<path d="M0 0 C0 0.66 0 1.32 0 2 C-0.66 2 -1.32 2 -2 2 C-2 2.66 -2 3.32 -2 4 C-3.875 4.625 -3.875 4.625 -6 5 C-6.66 4.34 -7.32 3.68 -8 3 C-2.25 0 -2.25 0 0 0 Z " fill="#FCE9C1" transform="translate(344,216)"/>
<path d="M0 0 C4.455 2.97 4.455 2.97 9 6 C6 7 6 7 3.375 6.375 C2.199375 5.694375 2.199375 5.694375 1 5 C0.67 3.35 0.34 1.7 0 0 Z " fill="#FDF2B6" transform="translate(122,209)"/>
<path d="M0 0 C1 2 1 2 0.3125 4.5625 C-1 7 -1 7 -3.125 7.8125 C-3.74375 7.874375 -4.3625 7.93625 -5 8 C-1.125 1.125 -1.125 1.125 0 0 Z " fill="#D47C27" transform="translate(334,168)"/>
<path d="M0 0 C6.875 3.75 6.875 3.75 8 6 C6.35 6 4.7 6 3 6 C2.67 4.68 2.34 3.36 2 2 C1.34 2 0.68 2 0 2 C0 1.34 0 0.68 0 0 Z " fill="#FAF2C2" transform="translate(199,108)"/>
<path d="M0 0 C1.37562854 1.28965176 2.70766393 2.62689293 4 4 C4 4.66 4 5.32 4 6 C4.99 6.33 5.98 6.66 7 7 C6.67 7.66 6.34 8.32 6 9 C5.01 8.34 4.02 7.68 3 7 C3 6.34 3 5.68 3 5 C2.01 5 1.02 5 0 5 C0 3.35 0 1.7 0 0 Z " fill="#D57016" transform="translate(362,95)"/>
<path d="M0 0 C0.33 1.32 0.66 2.64 1 4 C0.34 4 -0.32 4 -1 4 C-1 4.66 -1 5.32 -1 6 C-2.32 6.33 -3.64 6.66 -5 7 C-3.70700306 4.11562221 -2.34058637 2.12780579 0 0 Z " fill="#D8913F" transform="translate(116,87)"/>
<path d="M0 0 C0 0.66 0 1.32 0 2 C-2.8125 2.625 -2.8125 2.625 -6 3 C-6.99 2.34 -7.98 1.68 -9 1 C-5.846632 0.29925156 -3.27275026 0 0 0 Z " fill="#DF7F27" transform="translate(312,226)"/>
<path d="M0 0 C0 1.32 0 2.64 0 4 C-1.98 4 -3.96 4 -6 4 C-6 3.34 -6 2.68 -6 2 C-3 0 -3 0 0 0 Z " fill="#EBB304" transform="translate(136,210)"/>
<path d="M0 0 C1.98 1.65 3.96 3.3 6 5 C4.68 5.33 3.36 5.66 2 6 C2 5.34 2 4.68 2 4 C1.34 4 0.68 4 0 4 C0 2.68 0 1.36 0 0 Z " fill="#FEEBC1" transform="translate(234,202)"/>
<path d="M0 0 C-4.455 1.485 -4.455 1.485 -9 3 C-9 2.01 -9 1.02 -9 0 C-5.32431536 -0.91892116 -3.83619425 -0.95904856 0 0 Z " fill="#FADCB5" transform="translate(317,185)"/>
<path d="M0 0 C0.99 0 1.98 0 3 0 C2.67 2.97 2.34 5.94 2 9 C1.67 9 1.34 9 1 9 C0.67 6.03 0.34 3.06 0 0 Z " fill="#D3781F" transform="translate(376,160)"/>
<path d="M0 0 C0.66 0 1.32 0 2 0 C1.67 1.65 1.34 3.3 1 5 C0.01 5.33 -0.98 5.66 -2 6 C-2.33 5.01 -2.66 4.02 -3 3 C-2.34 3 -1.68 3 -1 3 C-0.67 2.01 -0.34 1.02 0 0 Z " fill="#EA6F11" transform="translate(334,112)"/>
<path d="M0 0 C1.32 0.33 2.64 0.66 4 1 C2.35 2.98 0.7 4.96 -1 7 C-1.33 6.34 -1.66 5.68 -2 5 C-1.0625 2.375 -1.0625 2.375 0 0 Z " fill="#FEF9E9" transform="translate(268,112)"/>
<path d="M0 0 C4.35535069 1.16142685 6.64619703 2.07699505 9 6 C7.68 6 6.36 6 5 6 C4.67 5.01 4.34 4.02 4 3 C1.99983534 1.79117904 1.99983534 1.79117904 0 1 C0 0.67 0 0.34 0 0 Z " fill="#F5E093" transform="translate(315,106)"/>
<path d="M0 0 C3.78786597 0.5260925 6.17152224 1.38103911 9 4 C9 4.66 9 5.32 9 6 C5.56404834 4.47291037 2.88087546 2.40072955 0 0 Z " fill="#E0B22D" transform="translate(317,106)"/>
<path d="M0 0 C1.98 0 3.96 0 6 0 C6.33 1.32 6.66 2.64 7 4 C5.68 4 4.36 4 3 4 C3 3.01 3 2.02 3 1 C2.01 0.67 1.02 0.34 0 0 Z " fill="#EAB323" transform="translate(305,100)"/>
<path d="M0 0 C4.05606165 0.46800711 7.46588679 0.87953208 11 3 C8.36 3 5.72 3 3 3 C3 2.34 3 1.68 3 1 C2.01 0.67 1.02 0.34 0 0 Z " fill="#E8AE28" transform="translate(181,100)"/>
</svg>
