<?xml version="1.0" encoding="UTF-8"?>
<svg version="1.1" xmlns="http://www.w3.org/2000/svg" width="1024" height="1024">
<path d="M0 0 C1.95213386 1.0027381 3.91247278 1.98800536 5.87353516 2.97314453 C31.49091406 16.01133593 54.95532318 32.57982094 76.94775391 51.00048828 C77.54007813 51.49371582 78.13240234 51.98694336 78.74267578 52.49511719 C138.15897846 102.09150139 181.52639855 167.43034299 207.94775391 240.00048828 C208.17485046 240.62379028 208.40194702 241.24709229 208.63592529 241.88928223 C235.39041091 315.61996791 247.27817101 397.81827572 206.55151367 591.35449219 C206.19371826 592.17868652 205.83592285 593.00288086 205.46728516 593.85205078 C204.98932495 594.91673584 204.98932495 594.91673584 204.50170898 596.00292969 C203.83628078 598.40245969 204.08848813 599.68542385 204.94775391 602.00048828 C206.35603607 603.62142027 206.35603607 603.62142027 208.19775391 605.18798828 C218.53352543 615.15196946 226.88363441 627.56642783 233.94775391 640.00048828 C234.92808594 641.68271484 234.92808594 641.68271484 235.92822266 643.39892578 C243.44544559 656.6258923 248.7934257 670.95921277 252.76025391 685.62548828 C252.94289795 686.2909668 253.12554199 686.95644531 253.3137207 687.64208984 C256.93832503 701.93960531 258.45343117 716.33273158 258.33886719 731.05273438 C258.32275232 733.50072884 258.33885809 735.9470735 258.35791016 738.39501953 C258.37758274 753.00000232 256.58262068 767.45832078 252.69775391 781.56298828 C252.38414917 782.72084839 252.38414917 782.72084839 252.06420898 783.90209961 C242.29629327 818.67446649 222.43557101 849.0163544 196.13525391 873.50048828 C195.36314575 874.2208728 195.36314575 874.2208728 194.57543945 874.95581055 C190.90363054 878.30490073 187.00957966 881.13908148 182.94775391 884.00048828 C182.28775391 884.66048828 181.62775391 885.32048828 180.94775391 886.00048828 C169.23868358 894.09814036 156.73732384 901.02182132 143.63525391 906.56298828 C142.81669922 906.90966553 141.99814453 907.25634277 141.15478516 907.61352539 C135.34538815 910.00048828 135.34538815 910.00048828 131.94775391 910.00048828 C131.61775391 910.66048828 131.28775391 911.32048828 130.94775391 912.00048828 C126.65193864 913.2681059 123.43831093 914.00048828 118.94775391 914.00048828 C118.61775391 914.66048828 118.28775391 915.32048828 117.94775391 916.00048828 C115.71728516 916.56298828 115.71728516 916.56298828 112.76025391 917.00048828 C111.67099609 917.16419922 110.58173828 917.32791016 109.45947266 917.49658203 C107.72117187 917.74601563 107.72117187 917.74601563 105.94775391 918.00048828 C104.81982422 918.17708984 103.69189453 918.35369141 102.52978516 918.53564453 C88.52244626 920.67235724 74.62646886 921.15253041 60.484375 921.16162109 C58.77766313 921.16626218 57.07095226 921.17128852 55.36424255 921.17666626 C50.77143748 921.18965817 46.17864693 921.1962077 41.5858264 921.20067692 C38.70884353 921.20362594 35.83186449 921.20773375 32.95488358 921.21218109 C23.93032108 921.225814 14.90576749 921.23550416 5.88119543 921.23938298 C-4.49595433 921.2438697 -14.87297277 921.26146374 -25.25008261 921.29038358 C-33.30399167 921.31204261 -41.35786385 921.32208932 -49.4118017 921.3234241 C-54.20862369 921.32446803 -59.00532153 921.33028904 -63.80211258 921.34824371 C-68.31174358 921.36480038 -72.82115795 921.36684332 -77.33080864 921.35810471 C-78.97704464 921.3573387 -80.62329268 921.3616189 -82.26949883 921.37156296 C-98.12670558 921.46167182 -112.74130862 919.4493449 -124.55224609 907.87548828 C-128.65312032 903.54871844 -131.4168416 899.54749317 -133.67724609 894.00048828 C-134.31533203 892.45361328 -134.31533203 892.45361328 -134.96630859 890.87548828 C-136.87610684 885.81933176 -137.20677192 881.46129443 -137.17724609 876.06298828 C-137.18111328 875.35980469 -137.18498047 874.65662109 -137.18896484 873.93212891 C-137.18189874 870.16236316 -136.9557131 866.66454891 -136.05224609 863.00048828 C-136.61806396 863.13100586 -137.18388184 863.26152344 -137.7668457 863.39599609 C-150.47392445 866.30265286 -163.17299899 868.7944602 -176.0637207 870.74365234 C-177.06540283 870.89543945 -178.06708496 871.04722656 -179.09912109 871.20361328 C-179.98438477 871.33413086 -180.86964844 871.46464844 -181.78173828 871.59912109 C-184.20668076 871.97071238 -184.20668076 871.97071238 -187.05224609 873.00048828 C-188.71891276 873.00048828 -190.38557943 873.00048828 -192.05224609 873.00048828 C-192.71224609 873.33048828 -193.37224609 873.66048828 -194.05224609 874.00048828 C-196.4592383 874.21177713 -198.84757959 874.37348358 -201.25927734 874.49658203 C-202.72367136 874.57907108 -204.18802633 874.66225598 -205.65234375 874.74609375 C-206.39228577 874.78772644 -207.13222778 874.82935913 -207.89459229 874.87225342 C-211.03704019 875.0590171 -214.17504477 875.29744801 -217.31396484 875.53564453 C-256.45185977 878.38108236 -296.24028266 878.2875234 -335.05224609 872.00048828 C-335.07802734 872.79970703 -335.10380859 873.59892578 -335.13037109 874.42236328 C-335.81609004 887.70037567 -339.14912412 897.920231 -348.05224609 908.00048828 C-349.69291687 909.36568239 -351.35655094 910.70427321 -353.05224609 912.00048828 C-353.71224609 912.66048828 -354.37224609 913.32048828 -355.05224609 914.00048828 C-356.73499046 914.88435401 -358.44835523 915.71068856 -360.17724609 916.50048828 C-361.08732422 916.92330078 -361.99740234 917.34611328 -362.93505859 917.78173828 C-369.23478027 920.24478736 -374.88490251 921.25034947 -381.63485718 921.26118469 C-382.35430374 921.26501024 -383.0737503 921.26883579 -383.81499827 921.27277726 C-386.20323929 921.28301775 -388.59123583 921.27913203 -390.97949219 921.27514648 C-392.70201335 921.27949855 -394.42453257 921.28468334 -396.14704895 921.29063416 C-400.81554935 921.30399842 -405.48396862 921.3046045 -410.15248442 921.30207086 C-414.06980425 921.30099702 -417.98710795 921.30589627 -421.90442431 921.31067628 C-431.17115852 921.32176771 -440.43785221 921.32221427 -449.70458984 921.31616211 C-459.19960809 921.31015476 -468.69447694 921.32235119 -478.1894697 921.34373218 C-486.3844589 921.3614936 -494.57940125 921.36732596 -502.77440894 921.36409444 C-507.64888604 921.36230059 -512.52325718 921.36472173 -517.39771652 921.37880898 C-564.98077055 921.504458 -564.98077055 921.504458 -588.05224609 916.00048828 C-589.50014551 915.66708003 -590.94806008 915.33373755 -592.39599609 915.00048828 C-593.78169626 914.66833543 -595.16711596 914.33501028 -596.55224609 914.00048828 C-597.26638672 913.83548828 -597.98052734 913.67048828 -598.71630859 913.50048828 C-600.51150751 913.06363379 -602.28491099 912.53910469 -604.05224609 912.00048828 C-604.38224609 911.34048828 -604.71224609 910.68048828 -605.05224609 910.00048828 C-605.89142578 909.86513672 -606.73060547 909.72978516 -607.59521484 909.59033203 C-611.87326405 908.86040499 -615.42589465 907.3391486 -619.36474609 905.56298828 C-620.14946289 905.21026855 -620.93417969 904.85754883 -621.74267578 904.49414062 C-634.31591821 898.70601801 -645.87925481 891.43369684 -657.00146484 883.22705078 C-659.13003393 881.67354966 -661.22836747 880.24182964 -663.44677734 878.83642578 C-664.73648438 877.92763672 -664.73648438 877.92763672 -666.05224609 877.00048828 C-666.05224609 876.34048828 -666.05224609 875.68048828 -666.05224609 875.00048828 C-666.71224609 875.00048828 -667.37224609 875.00048828 -668.05224609 875.00048828 C-669.22359943 873.89803808 -670.38508785 872.78342278 -671.49755859 871.62158203 C-673.31201647 869.72962218 -675.18285177 867.90063818 -677.05224609 866.06298828 C-679.47484489 863.64953136 -681.77094362 861.21689902 -683.92724609 858.56298828 C-685.7938865 855.96174309 -685.7938865 855.96174309 -688.05224609 855.00048828 C-688.44412109 854.34048828 -688.83599609 853.68048828 -689.23974609 853.00048828 C-691.41308308 849.40324085 -693.9806761 846.24807451 -696.62646484 842.98876953 C-698.05224609 841.00048828 -698.05224609 841.00048828 -698.05224609 839.00048828 C-698.71224609 839.00048828 -699.37224609 839.00048828 -700.05224609 839.00048828 C-700.42736328 838.31083984 -700.80248047 837.62119141 -701.18896484 836.91064453 C-701.95660156 835.50105469 -701.95660156 835.50105469 -702.73974609 834.06298828 C-703.28244141 833.06525391 -703.82513672 832.06751953 -704.38427734 831.03955078 C-706.27395084 827.59653911 -708.2116018 824.18248921 -710.16943359 820.77783203 C-711.05224609 819.00048828 -711.05224609 819.00048828 -711.05224609 817.00048828 C-711.71224609 816.67048828 -712.37224609 816.34048828 -713.05224609 816.00048828 C-713.05224609 815.01048828 -713.05224609 814.02048828 -713.05224609 813.00048828 C-713.71224609 812.67048828 -714.37224609 812.34048828 -715.05224609 812.00048828 C-716.11688255 809.50941691 -717.07826335 807.0471608 -717.98974609 804.50048828 C-718.25480957 803.7737793 -718.51987305 803.04707031 -718.79296875 802.29833984 C-719.55402225 800.20181755 -720.3042751 798.10170659 -721.05224609 796.00048828 C-721.57625 794.55416016 -721.57625 794.55416016 -722.11083984 793.07861328 C-723.36392581 789.50521981 -724.05224609 786.82664737 -724.05224609 783.00048828 C-724.71224609 782.67048828 -725.37224609 782.34048828 -726.05224609 782.00048828 C-725.72224609 781.01048828 -725.39224609 780.02048828 -725.05224609 779.00048828 C-725.71224609 778.67048828 -726.37224609 778.34048828 -727.05224609 778.00048828 C-727.64990234 775.30517578 -727.64990234 775.30517578 -728.11474609 771.87548828 C-728.36224609 770.11398437 -728.36224609 770.11398437 -728.61474609 768.31689453 C-728.75912109 767.22248047 -728.90349609 766.12806641 -729.05224609 765.00048828 C-729.54644578 760.36052264 -729.54644578 760.36052264 -731.05224609 756.00048828 C-731.17605967 753.40171633 -731.24021818 750.8308878 -731.25537109 748.23095703 C-731.26238541 747.44694016 -731.26939972 746.66292328 -731.27662659 745.85514832 C-731.2942496 743.29937089 -731.30049034 740.74382446 -731.30224609 738.18798828 C-731.30292084 737.32046936 -731.30359558 736.45295044 -731.30429077 735.55914307 C-731.28806601 722.47955679 -730.81469768 709.82848687 -728.05224609 697.00048828 C-727.88595703 696.1912793 -727.71966797 695.38207031 -727.54833984 694.54833984 C-724.89424702 681.92173896 -720.67593991 670.1013878 -715.88671875 658.14208984 C-714.84145386 655.45950832 -713.92358161 652.74407806 -713.05224609 650.00048828 C-712.39224609 650.00048828 -711.73224609 650.00048828 -711.05224609 650.00048828 C-710.80603516 649.15744141 -710.55982422 648.31439453 -710.30615234 647.44580078 C-708.92286405 643.64498997 -707.08804463 640.31118357 -704.98974609 636.87548828 C-704.59271484 636.2209668 -704.19568359 635.56644531 -703.78662109 634.89208984 C-697.9554527 625.4325367 -691.0819473 616.85238394 -683.80224609 608.47314453 C-681.9739416 605.88984823 -681.40876603 604.11446711 -681.05224609 601.00048828 C-681.71224609 600.67048828 -682.37224609 600.34048828 -683.05224609 600.00048828 C-683.69041676 597.69598308 -684.07261932 595.38552505 -684.48974609 593.03173828 C-684.76818359 592.02626953 -684.76818359 592.02626953 -685.05224609 591.00048828 C-685.71224609 590.67048828 -686.37224609 590.34048828 -687.05224609 590.00048828 C-687.38557943 587.66715495 -687.71891276 585.33382161 -688.05224609 583.00048828 C-688.71224609 582.67048828 -689.37224609 582.34048828 -690.05224609 582.00048828 C-690.69287109 580.16455078 -690.69287109 580.16455078 -691.30224609 577.62548828 C-692.92770161 571.27370826 -694.89513937 565.05660765 -696.89501953 558.81542969 C-698.360538 554.23023381 -699.75705752 549.63758317 -701.05224609 545.00048828 C-701.58205078 543.12490234 -701.58205078 543.12490234 -702.12255859 541.21142578 C-702.47060547 539.94556641 -702.81865234 538.67970703 -703.17724609 537.37548828 C-703.70705078 535.46896484 -703.70705078 535.46896484 -704.24755859 533.52392578 C-704.93632002 530.50808692 -705.22849541 528.06722639 -705.05224609 525.00048828 C-705.71224609 524.67048828 -706.37224609 524.34048828 -707.05224609 524.00048828 C-707.54443359 522.01611328 -707.54443359 522.01611328 -707.92724609 519.25048828 C-708.84602929 513.15711811 -709.95024497 507.11421652 -711.11474609 501.06298828 C-711.28925293 500.15129883 -711.46375977 499.23960937 -711.64355469 498.30029297 C-712.56716345 493.46476842 -712.56716345 493.46476842 -713.55004883 488.64111328 C-714.15336884 485.46877045 -714.57527191 482.29287296 -714.98974609 479.09033203 C-715.16419792 477.75764616 -715.33867793 476.42496398 -715.51318359 475.09228516 C-715.78377756 473.0099416 -716.05360149 470.92750108 -716.32275391 468.8449707 C-716.58478494 466.82232937 -716.84963932 464.80007217 -717.11474609 462.77783203 C-717.27072266 461.57376709 -717.42669922 460.36970215 -717.58740234 459.12915039 C-717.97863846 456.14488812 -717.97863846 456.14488812 -718.59326172 453.84130859 C-719.10554121 451.78674086 -719.24425072 449.88461271 -719.33349609 447.77001953 C-719.38957031 446.56442383 -719.38957031 446.56442383 -719.44677734 445.33447266 C-719.48158203 444.50238281 -719.51638672 443.67029297 -719.55224609 442.81298828 C-719.62245214 441.17354704 -719.69536078 439.53421926 -719.77099609 437.89501953 C-719.80128906 437.17161377 -719.83158203 436.44820801 -719.86279297 435.70288086 C-720.02202644 433.43154675 -720.27614282 431.2133195 -720.56152344 428.95605469 C-721.21000478 423.24404303 -721.19577567 417.55978259 -721.18505859 411.81689453 C-721.18601532 410.68017807 -721.18697205 409.54346161 -721.18795776 408.37229919 C-721.18863469 405.98639876 -721.18681458 403.60049644 -721.18261719 401.21459961 C-721.17722712 397.5500888 -721.18259647 393.88569862 -721.18896484 390.22119141 C-721.18830466 387.89892551 -721.18702473 385.57665969 -721.18505859 383.25439453 C-721.18708282 382.15551407 -721.18910706 381.05663361 -721.19119263 379.92445374 C-721.18804047 378.91257492 -721.18488831 377.90069611 -721.18164062 376.8581543 C-721.18084503 375.96596695 -721.18004944 375.0737796 -721.17922974 374.15455627 C-721.05224609 372.00048828 -721.05224609 372.00048828 -720.05224609 370.00048828 C-719.92437324 368.59766373 -719.85026216 367.18968804 -719.80615234 365.78173828 C-719.77448975 364.93627441 -719.74282715 364.09081055 -719.71020508 363.21972656 C-719.67870361 362.32237793 -719.64720215 361.4250293 -719.61474609 360.50048828 C-719.35401253 354.14714902 -718.94289965 348.09812099 -717.45458984 341.89501953 C-716.9418852 339.80362498 -716.9418852 339.80362498 -717.05224609 336.81298828 C-717.05224609 333.29060021 -716.03277878 330.37106938 -715.05224609 327.00048828 C-715.05224609 326.15486328 -715.05224609 325.30923828 -715.05224609 324.43798828 C-715.05224609 321.32244239 -714.04743706 318.95121274 -713.05224609 316.00048828 C-712.55652231 313.99554992 -712.08998994 311.9832128 -711.64990234 309.96533203 C-711.39917969 308.82515625 -711.14845703 307.68498047 -710.89013672 306.51025391 C-710.63425781 305.33140625 -710.37837891 304.15255859 -710.11474609 302.93798828 C-709.09802646 298.29124149 -708.07712753 293.64544169 -707.05224609 289.00048828 C-706.8032959 287.86111816 -706.5543457 286.72174805 -706.29785156 285.54785156 C-704.88332754 279.21428569 -703.28556572 273.0931627 -701.05224609 267.00048828 C-700.49682129 265.4797168 -700.49682129 265.4797168 -699.93017578 263.92822266 C-692.01066242 242.49462103 -683.74883736 221.22505644 -673.05224609 201.00048828 C-672.64780273 200.23414063 -672.24335937 199.46779297 -671.82666016 198.67822266 C-665.47943867 186.72882601 -658.5945175 175.21530647 -651.20629883 163.88134766 C-650.03295136 161.96904199 -649.02569615 160.02082458 -648.05224609 158.00048828 C-647.39224609 158.00048828 -646.73224609 158.00048828 -646.05224609 158.00048828 C-645.82021484 157.47970703 -645.58818359 156.95892578 -645.34912109 156.42236328 C-643.60646139 153.16799878 -641.46374772 150.23376723 -639.30224609 147.25048828 C-638.85196045 146.62577637 -638.4016748 146.00106445 -637.93774414 145.35742188 C-636.646127 143.56917179 -635.34986537 141.7843855 -634.05224609 140.00048828 C-633.47603516 139.20384766 -632.89982422 138.40720703 -632.30615234 137.58642578 C-629.2896757 133.48270959 -626.03646005 129.67485006 -622.64208984 125.87939453 C-620.8663657 123.86184738 -620.8663657 123.86184738 -618.98974609 120.81298828 C-617.14324701 118.13258639 -615.2499337 116.41718747 -612.70458984 114.42236328 C-608.56868848 110.86333705 -605.0696631 106.52661378 -602.05224609 102.00048828 C-601.39224609 102.00048828 -600.73224609 102.00048828 -600.05224609 102.00048828 C-600.05224609 101.34048828 -600.05224609 100.68048828 -600.05224609 100.00048828 C-598.44287109 98.44970703 -598.44287109 98.44970703 -596.30224609 96.68798828 C-593.93096146 94.7338741 -591.98560235 92.91636205 -590.07177734 90.50048828 C-588.0485375 87.99589737 -586.04664137 86.25488074 -583.48974609 84.31298828 C-579.76968092 81.41296667 -576.25522299 78.40124596 -572.80224609 75.18798828 C-568.52217634 71.25032411 -564.11557691 67.54344456 -559.55224609 63.93798828 C-558.6526416 63.22195435 -558.6526416 63.22195435 -557.73486328 62.49145508 C-555.18523279 60.50005565 -553.14589955 59.0317061 -550.05224609 58.00048828 C-550.05224609 57.34048828 -550.05224609 56.68048828 -550.05224609 56.00048828 C-548.57568359 54.84423828 -548.57568359 54.84423828 -546.42724609 53.50048828 C-543.0524847 51.33062624 -539.76599683 49.08811178 -536.52929688 46.71679688 C-522.7082315 36.61756723 -508.11542182 27.35318696 -493.10302734 19.12744141 C-491.57115035 18.28563853 -490.04311559 17.4368368 -488.51708984 16.58447266 C-415.40189522 -24.2441096 -332.09908051 -47.15703687 0 0 Z " fill="#FCD535" transform="translate(752.05224609375,102.99951171875)"/>
<path d="M0 0 C1.95213386 1.0027381 3.91247278 1.98800536 5.87353516 2.97314453 C31.49091406 16.01133593 54.95532318 32.57982094 76.94775391 51.00048828 C77.54007813 51.49371582 78.13240234 51.98694336 78.74267578 52.49511719 C138.15897846 102.09150139 181.52639855 167.43034299 207.94775391 240.00048828 C208.17485046 240.62379028 208.40194702 241.24709229 208.63592529 241.88928223 C235.39041091 315.61996791 247.27817101 397.81827572 206.55151367 591.35449219 C206.19371826 592.17868652 205.83592285 593.00288086 205.46728516 593.85205078 C204.98932495 594.91673584 204.98932495 594.91673584 204.50170898 596.00292969 C203.83628078 598.40245969 204.08848813 599.68542385 204.94775391 602.00048828 C206.35603607 603.62142027 206.35603607 603.62142027 208.19775391 605.18798828 C218.53352543 615.15196946 226.88363441 627.56642783 233.94775391 640.00048828 C234.92808594 641.68271484 234.92808594 641.68271484 235.92822266 643.39892578 C243.44544559 656.6258923 248.7934257 670.95921277 252.76025391 685.62548828 C252.94289795 686.2909668 253.12554199 686.95644531 253.3137207 687.64208984 C256.93832503 701.93960531 258.45343117 716.33273158 258.33886719 731.05273438 C258.32275232 733.50072884 258.33885809 735.9470735 258.35791016 738.39501953 C258.37758274 753.00000232 256.58262068 767.45832078 252.69775391 781.56298828 C252.38414917 782.72084839 252.38414917 782.72084839 252.06420898 783.90209961 C242.29629327 818.67446649 222.43557101 849.0163544 196.13525391 873.50048828 C195.36314575 874.2208728 195.36314575 874.2208728 194.57543945 874.95581055 C190.90363054 878.30490073 187.00957966 881.13908148 182.94775391 884.00048828 C182.28775391 884.66048828 181.62775391 885.32048828 180.94775391 886.00048828 C169.23868358 894.09814036 156.73732384 901.02182132 143.63525391 906.56298828 C142.81669922 906.90966553 141.99814453 907.25634277 141.15478516 907.61352539 C135.34538815 910.00048828 135.34538815 910.00048828 131.94775391 910.00048828 C131.61775391 910.66048828 131.28775391 911.32048828 130.94775391 912.00048828 C126.65193864 913.2681059 123.43831093 914.00048828 118.94775391 914.00048828 C118.61775391 914.66048828 118.28775391 915.32048828 117.94775391 916.00048828 C115.71728516 916.56298828 115.71728516 916.56298828 112.76025391 917.00048828 C111.67099609 917.16419922 110.58173828 917.32791016 109.45947266 917.49658203 C107.72117187 917.74601563 107.72117187 917.74601563 105.94775391 918.00048828 C104.81982422 918.17708984 103.69189453 918.35369141 102.52978516 918.53564453 C88.52244626 920.67235724 74.62646886 921.15253041 60.484375 921.16162109 C58.77766313 921.16626218 57.07095226 921.17128852 55.36424255 921.17666626 C50.77143748 921.18965817 46.17864693 921.1962077 41.5858264 921.20067692 C38.70884353 921.20362594 35.83186449 921.20773375 32.95488358 921.21218109 C23.93032108 921.225814 14.90576749 921.23550416 5.88119543 921.23938298 C-4.49595433 921.2438697 -14.87297277 921.26146374 -25.25008261 921.29038358 C-33.30399167 921.31204261 -41.35786385 921.32208932 -49.4118017 921.3234241 C-54.20862369 921.32446803 -59.00532153 921.33028904 -63.80211258 921.34824371 C-68.31174358 921.36480038 -72.82115795 921.36684332 -77.33080864 921.35810471 C-78.97704464 921.3573387 -80.62329268 921.3616189 -82.26949883 921.37156296 C-98.12670558 921.46167182 -112.74130862 919.4493449 -124.55224609 907.87548828 C-128.65312032 903.54871844 -131.4168416 899.54749317 -133.67724609 894.00048828 C-134.31533203 892.45361328 -134.31533203 892.45361328 -134.96630859 890.87548828 C-136.87610684 885.81933176 -137.20677192 881.46129443 -137.17724609 876.06298828 C-137.18111328 875.35980469 -137.18498047 874.65662109 -137.18896484 873.93212891 C-137.18189874 870.16236316 -136.9557131 866.66454891 -136.05224609 863.00048828 C-136.61806396 863.13100586 -137.18388184 863.26152344 -137.7668457 863.39599609 C-150.47392445 866.30265286 -163.17299899 868.7944602 -176.0637207 870.74365234 C-177.06540283 870.89543945 -178.06708496 871.04722656 -179.09912109 871.20361328 C-179.98438477 871.33413086 -180.86964844 871.46464844 -181.78173828 871.59912109 C-184.20668076 871.97071238 -184.20668076 871.97071238 -187.05224609 873.00048828 C-188.71891276 873.00048828 -190.38557943 873.00048828 -192.05224609 873.00048828 C-192.71224609 873.33048828 -193.37224609 873.66048828 -194.05224609 874.00048828 C-196.4592383 874.21177713 -198.84757959 874.37348358 -201.25927734 874.49658203 C-202.72367136 874.57907108 -204.18802633 874.66225598 -205.65234375 874.74609375 C-206.39228577 874.78772644 -207.13222778 874.82935913 -207.89459229 874.87225342 C-211.03704019 875.0590171 -214.17504477 875.29744801 -217.31396484 875.53564453 C-256.45185977 878.38108236 -296.24028266 878.2875234 -335.05224609 872.00048828 C-335.07802734 872.79970703 -335.10380859 873.59892578 -335.13037109 874.42236328 C-335.81609004 887.70037567 -339.14912412 897.920231 -348.05224609 908.00048828 C-349.69291687 909.36568239 -351.35655094 910.70427321 -353.05224609 912.00048828 C-353.71224609 912.66048828 -354.37224609 913.32048828 -355.05224609 914.00048828 C-356.73499046 914.88435401 -358.44835523 915.71068856 -360.17724609 916.50048828 C-361.08732422 916.92330078 -361.99740234 917.34611328 -362.93505859 917.78173828 C-369.23478027 920.24478736 -374.88490251 921.25034947 -381.63485718 921.26118469 C-382.35430374 921.26501024 -383.0737503 921.26883579 -383.81499827 921.27277726 C-386.20323929 921.28301775 -388.59123583 921.27913203 -390.97949219 921.27514648 C-392.70201335 921.27949855 -394.42453257 921.28468334 -396.14704895 921.29063416 C-400.81554935 921.30399842 -405.48396862 921.3046045 -410.15248442 921.30207086 C-414.06980425 921.30099702 -417.98710795 921.30589627 -421.90442431 921.31067628 C-431.17115852 921.32176771 -440.43785221 921.32221427 -449.70458984 921.31616211 C-459.19960809 921.31015476 -468.69447694 921.32235119 -478.1894697 921.34373218 C-486.3844589 921.3614936 -494.57940125 921.36732596 -502.77440894 921.36409444 C-507.64888604 921.36230059 -512.52325718 921.36472173 -517.39771652 921.37880898 C-564.98077055 921.504458 -564.98077055 921.504458 -588.05224609 916.00048828 C-589.50014551 915.66708003 -590.94806008 915.33373755 -592.39599609 915.00048828 C-593.78169626 914.66833543 -595.16711596 914.33501028 -596.55224609 914.00048828 C-597.26638672 913.83548828 -597.98052734 913.67048828 -598.71630859 913.50048828 C-600.51150751 913.06363379 -602.28491099 912.53910469 -604.05224609 912.00048828 C-604.38224609 911.34048828 -604.71224609 910.68048828 -605.05224609 910.00048828 C-605.89142578 909.86513672 -606.73060547 909.72978516 -607.59521484 909.59033203 C-611.87326405 908.86040499 -615.42589465 907.3391486 -619.36474609 905.56298828 C-620.14946289 905.21026855 -620.93417969 904.85754883 -621.74267578 904.49414062 C-634.31591821 898.70601801 -645.87925481 891.43369684 -657.00146484 883.22705078 C-659.13003393 881.67354966 -661.22836747 880.24182964 -663.44677734 878.83642578 C-664.73648438 877.92763672 -664.73648438 877.92763672 -666.05224609 877.00048828 C-666.05224609 876.34048828 -666.05224609 875.68048828 -666.05224609 875.00048828 C-666.71224609 875.00048828 -667.37224609 875.00048828 -668.05224609 875.00048828 C-669.22359943 873.89803808 -670.38508785 872.78342278 -671.49755859 871.62158203 C-673.31201647 869.72962218 -675.18285177 867.90063818 -677.05224609 866.06298828 C-679.47484489 863.64953136 -681.77094362 861.21689902 -683.92724609 858.56298828 C-685.7938865 855.96174309 -685.7938865 855.96174309 -688.05224609 855.00048828 C-688.44412109 854.34048828 -688.83599609 853.68048828 -689.23974609 853.00048828 C-691.41308308 849.40324085 -693.9806761 846.24807451 -696.62646484 842.98876953 C-698.05224609 841.00048828 -698.05224609 841.00048828 -698.05224609 839.00048828 C-698.71224609 839.00048828 -699.37224609 839.00048828 -700.05224609 839.00048828 C-700.42736328 838.31083984 -700.80248047 837.62119141 -701.18896484 836.91064453 C-701.95660156 835.50105469 -701.95660156 835.50105469 -702.73974609 834.06298828 C-703.28244141 833.06525391 -703.82513672 832.06751953 -704.38427734 831.03955078 C-706.27395084 827.59653911 -708.2116018 824.18248921 -710.16943359 820.77783203 C-711.05224609 819.00048828 -711.05224609 819.00048828 -711.05224609 817.00048828 C-711.71224609 816.67048828 -712.37224609 816.34048828 -713.05224609 816.00048828 C-713.05224609 815.01048828 -713.05224609 814.02048828 -713.05224609 813.00048828 C-713.71224609 812.67048828 -714.37224609 812.34048828 -715.05224609 812.00048828 C-716.11688255 809.50941691 -717.07826335 807.0471608 -717.98974609 804.50048828 C-718.25480957 803.7737793 -718.51987305 803.04707031 -718.79296875 802.29833984 C-719.55402225 800.20181755 -720.3042751 798.10170659 -721.05224609 796.00048828 C-721.57625 794.55416016 -721.57625 794.55416016 -722.11083984 793.07861328 C-723.36392581 789.50521981 -724.05224609 786.82664737 -724.05224609 783.00048828 C-724.71224609 782.67048828 -725.37224609 782.34048828 -726.05224609 782.00048828 C-725.72224609 781.01048828 -725.39224609 780.02048828 -725.05224609 779.00048828 C-725.71224609 778.67048828 -726.37224609 778.34048828 -727.05224609 778.00048828 C-727.64990234 775.30517578 -727.64990234 775.30517578 -728.11474609 771.87548828 C-728.36224609 770.11398437 -728.36224609 770.11398437 -728.61474609 768.31689453 C-728.75912109 767.22248047 -728.90349609 766.12806641 -729.05224609 765.00048828 C-729.54644578 760.36052264 -729.54644578 760.36052264 -731.05224609 756.00048828 C-731.17605967 753.40171633 -731.24021818 750.8308878 -731.25537109 748.23095703 C-731.26238541 747.44694016 -731.26939972 746.66292328 -731.27662659 745.85514832 C-731.2942496 743.29937089 -731.30049034 740.74382446 -731.30224609 738.18798828 C-731.30292084 737.32046936 -731.30359558 736.45295044 -731.30429077 735.55914307 C-731.28806601 722.47955679 -730.81469768 709.82848687 -728.05224609 697.00048828 C-727.88595703 696.1912793 -727.71966797 695.38207031 -727.54833984 694.54833984 C-724.89424702 681.92173896 -720.67593991 670.1013878 -715.88671875 658.14208984 C-714.84145386 655.45950832 -713.92358161 652.74407806 -713.05224609 650.00048828 C-712.39224609 650.00048828 -711.73224609 650.00048828 -711.05224609 650.00048828 C-710.80603516 649.15744141 -710.55982422 648.31439453 -710.30615234 647.44580078 C-708.92286405 643.64498997 -707.08804463 640.31118357 -704.98974609 636.87548828 C-704.59271484 636.2209668 -704.19568359 635.56644531 -703.78662109 634.89208984 C-697.9554527 625.4325367 -691.0819473 616.85238394 -683.80224609 608.47314453 C-681.9739416 605.88984823 -681.40876603 604.11446711 -681.05224609 601.00048828 C-681.71224609 600.67048828 -682.37224609 600.34048828 -683.05224609 600.00048828 C-683.69041676 597.69598308 -684.07261932 595.38552505 -684.48974609 593.03173828 C-684.76818359 592.02626953 -684.76818359 592.02626953 -685.05224609 591.00048828 C-685.71224609 590.67048828 -686.37224609 590.34048828 -687.05224609 590.00048828 C-687.38557943 587.66715495 -687.71891276 585.33382161 -688.05224609 583.00048828 C-688.71224609 582.67048828 -689.37224609 582.34048828 -690.05224609 582.00048828 C-690.69287109 580.16455078 -690.69287109 580.16455078 -691.30224609 577.62548828 C-692.92770161 571.27370826 -694.89513937 565.05660765 -696.89501953 558.81542969 C-698.360538 554.23023381 -699.75705752 549.63758317 -701.05224609 545.00048828 C-701.58205078 543.12490234 -701.58205078 543.12490234 -702.12255859 541.21142578 C-702.47060547 539.94556641 -702.81865234 538.67970703 -703.17724609 537.37548828 C-703.70705078 535.46896484 -703.70705078 535.46896484 -704.24755859 533.52392578 C-704.93632002 530.50808692 -705.22849541 528.06722639 -705.05224609 525.00048828 C-705.71224609 524.67048828 -706.37224609 524.34048828 -707.05224609 524.00048828 C-707.54443359 522.01611328 -707.54443359 522.01611328 -707.92724609 519.25048828 C-708.84602929 513.15711811 -709.95024497 507.11421652 -711.11474609 501.06298828 C-711.28925293 500.15129883 -711.46375977 499.23960937 -711.64355469 498.30029297 C-712.56716345 493.46476842 -712.56716345 493.46476842 -713.55004883 488.64111328 C-714.15336884 485.46877045 -714.57527191 482.29287296 -714.98974609 479.09033203 C-715.16419792 477.75764616 -715.33867793 476.42496398 -715.51318359 475.09228516 C-715.78377756 473.0099416 -716.05360149 470.92750108 -716.32275391 468.8449707 C-716.58478494 466.82232937 -716.84963932 464.80007217 -717.11474609 462.77783203 C-717.27072266 461.57376709 -717.42669922 460.36970215 -717.58740234 459.12915039 C-717.97863846 456.14488812 -717.97863846 456.14488812 -718.59326172 453.84130859 C-719.10554121 451.78674086 -719.24425072 449.88461271 -719.33349609 447.77001953 C-719.38957031 446.56442383 -719.38957031 446.56442383 -719.44677734 445.33447266 C-719.48158203 444.50238281 -719.51638672 443.67029297 -719.55224609 442.81298828 C-719.62245214 441.17354704 -719.69536078 439.53421926 -719.77099609 437.89501953 C-719.80128906 437.17161377 -719.83158203 436.44820801 -719.86279297 435.70288086 C-720.02202644 433.43154675 -720.27614282 431.2133195 -720.56152344 428.95605469 C-721.21000478 423.24404303 -721.19577567 417.55978259 -721.18505859 411.81689453 C-721.18601532 410.68017807 -721.18697205 409.54346161 -721.18795776 408.37229919 C-721.18863469 405.98639876 -721.18681458 403.60049644 -721.18261719 401.21459961 C-721.17722712 397.5500888 -721.18259647 393.88569862 -721.18896484 390.22119141 C-721.18830466 387.89892551 -721.18702473 385.57665969 -721.18505859 383.25439453 C-721.18708282 382.15551407 -721.18910706 381.05663361 -721.19119263 379.92445374 C-721.18804047 378.91257492 -721.18488831 377.90069611 -721.18164062 376.8581543 C-721.18084503 375.96596695 -721.18004944 375.0737796 -721.17922974 374.15455627 C-721.05224609 372.00048828 -721.05224609 372.00048828 -720.05224609 370.00048828 C-719.92437324 368.59766373 -719.85026216 367.18968804 -719.80615234 365.78173828 C-719.77448975 364.93627441 -719.74282715 364.09081055 -719.71020508 363.21972656 C-719.67870361 362.32237793 -719.64720215 361.4250293 -719.61474609 360.50048828 C-719.35401253 354.14714902 -718.94289965 348.09812099 -717.45458984 341.89501953 C-716.9418852 339.80362498 -716.9418852 339.80362498 -717.05224609 336.81298828 C-717.05224609 333.29060021 -716.03277878 330.37106938 -715.05224609 327.00048828 C-715.05224609 326.15486328 -715.05224609 325.30923828 -715.05224609 324.43798828 C-715.05224609 321.32244239 -714.04743706 318.95121274 -713.05224609 316.00048828 C-712.55652231 313.99554992 -712.08998994 311.9832128 -711.64990234 309.96533203 C-711.39917969 308.82515625 -711.14845703 307.68498047 -710.89013672 306.51025391 C-710.63425781 305.33140625 -710.37837891 304.15255859 -710.11474609 302.93798828 C-709.09802646 298.29124149 -708.07712753 293.64544169 -707.05224609 289.00048828 C-706.8032959 287.86111816 -706.5543457 286.72174805 -706.29785156 285.54785156 C-704.88332754 279.21428569 -703.28556572 273.0931627 -701.05224609 267.00048828 C-700.49682129 265.4797168 -700.49682129 265.4797168 -699.93017578 263.92822266 C-692.01066242 242.49462103 -683.74883736 221.22505644 -673.05224609 201.00048828 C-672.64780273 200.23414063 -672.24335937 199.46779297 -671.82666016 198.67822266 C-665.47943867 186.72882601 -658.5945175 175.21530647 -651.20629883 163.88134766 C-650.03295136 161.96904199 -649.02569615 160.02082458 -648.05224609 158.00048828 C-647.39224609 158.00048828 -646.73224609 158.00048828 -646.05224609 158.00048828 C-645.82021484 157.47970703 -645.58818359 156.95892578 -645.34912109 156.42236328 C-643.60646139 153.16799878 -641.46374772 150.23376723 -639.30224609 147.25048828 C-638.85196045 146.62577637 -638.4016748 146.00106445 -637.93774414 145.35742188 C-636.646127 143.56917179 -635.34986537 141.7843855 -634.05224609 140.00048828 C-633.47603516 139.20384766 -632.89982422 138.40720703 -632.30615234 137.58642578 C-629.2896757 133.48270959 -626.03646005 129.67485006 -622.64208984 125.87939453 C-620.8663657 123.86184738 -620.8663657 123.86184738 -618.98974609 120.81298828 C-617.14324701 118.13258639 -615.2499337 116.41718747 -612.70458984 114.42236328 C-608.56868848 110.86333705 -605.0696631 106.52661378 -602.05224609 102.00048828 C-601.39224609 102.00048828 -600.73224609 102.00048828 -600.05224609 102.00048828 C-600.05224609 101.34048828 -600.05224609 100.68048828 -600.05224609 100.00048828 C-598.44287109 98.44970703 -598.44287109 98.44970703 -596.30224609 96.68798828 C-593.93096146 94.7338741 -591.98560235 92.91636205 -590.07177734 90.50048828 C-588.0485375 87.99589737 -586.04664137 86.25488074 -583.48974609 84.31298828 C-579.76968092 81.41296667 -576.25522299 78.40124596 -572.80224609 75.18798828 C-568.52217634 71.25032411 -564.11557691 67.54344456 -559.55224609 63.93798828 C-558.6526416 63.22195435 -558.6526416 63.22195435 -557.73486328 62.49145508 C-555.18523279 60.50005565 -553.14589955 59.0317061 -550.05224609 58.00048828 C-550.05224609 57.34048828 -550.05224609 56.68048828 -550.05224609 56.00048828 C-548.57568359 54.84423828 -548.57568359 54.84423828 -546.42724609 53.50048828 C-543.0524847 51.33062624 -539.76599683 49.08811178 -536.52929688 46.71679688 C-522.7082315 36.61756723 -508.11542182 27.35318696 -493.10302734 19.12744141 C-491.57115035 18.28563853 -490.04311559 17.4368368 -488.51708984 16.58447266 C-415.40189522 -24.2441096 -332.09908051 -47.15703687 0 0 Z M-335.05224609 -6.99951172 C-336.98145065 -6.5715476 -338.9111256 -6.14569733 -340.84130859 -5.72216797 C-350.91093664 -3.46926868 -360.72127271 -0.66684329 -370.52490234 2.54345703 C-374.06254018 3.69865004 -377.61765468 4.74288672 -381.20214844 5.74145508 C-445.4261081 23.75586792 -508.27195568 59.80793805 -557.03271484 105.22705078 C-559.27201874 107.30745831 -561.56508494 109.31369528 -563.88037109 111.30908203 C-568.31113031 115.17096013 -572.47125878 119.27200239 -576.61474609 123.43798828 C-577.33082031 124.15019531 -578.04689453 124.86240234 -578.78466797 125.59619141 C-583.41349145 130.23343859 -587.79380959 135.02257491 -592.05224609 140.00048828 C-592.94136895 141.02149587 -593.83067668 142.0423425 -594.72021484 143.06298828 C-617.23863249 169.3170194 -636.31261369 198.70531248 -651.05224609 230.00048828 C-651.40883301 230.75620117 -651.76541992 231.51191406 -652.1328125 232.29052734 C-660.41971846 249.98506518 -667.57955787 267.89360614 -672.47558594 286.82519531 C-673.04856313 288.98659532 -673.66156586 291.13210761 -674.29052734 293.27783203 C-675.62230112 297.83248802 -676.86559476 302.40592264 -678.05224609 307.00048828 C-678.25849609 307.7990625 -678.46474609 308.59763672 -678.67724609 309.42041016 C-701.10702513 399.20961936 -685.38234828 495.24934155 -655.05224609 581.00048828 C-650.15490809 581.00048828 -647.71740601 579.1140595 -643.80224609 576.50048828 C-617.39301221 559.46930136 -585.12904994 547.68126973 -553.44726562 547.70996094 C-552.35609436 547.70324371 -551.2649231 547.69652649 -550.14068604 547.68960571 C-546.57209588 547.67077493 -543.00369519 547.66670943 -539.43505859 547.66455078 C-536.92983933 547.65811374 -534.42462081 547.65138472 -531.91940308 547.64437866 C-526.68290464 547.63244408 -521.446472 547.62869403 -516.20996094 547.62988281 C-510.85827749 547.63095089 -505.50688278 547.61685441 -500.15527344 547.58886719 C-493.6574621 547.55538244 -487.15990935 547.54177617 -480.66201401 547.54310226 C-478.20066739 547.5407568 -475.73931753 547.53199345 -473.27801895 547.51643753 C-455.97936099 547.41731463 -438.91095602 547.3225157 -425.24755859 559.62548828 C-418.35604493 567.03129401 -416.40284672 574.50483609 -416.73583984 584.51611328 C-417.7400253 595.57455067 -422.18149871 605.70845121 -428.65820312 614.68310547 C-429.10696808 615.30642761 -429.55573303 615.92974976 -430.01809692 616.57196045 C-430.35936615 617.04337463 -430.70063538 617.51478882 -431.05224609 618.00048828 C-430.47817048 618.00379843 -429.90409487 618.00710857 -429.31262302 618.01051903 C-415.31447879 618.09190181 -401.31643949 618.1840437 -387.31844425 618.28801537 C-380.54898884 618.33803946 -373.77954492 618.3844831 -367.01000977 618.42236328 C-360.47416619 618.45894602 -353.93844046 618.50568467 -347.40270805 618.55855179 C-344.91214696 618.57705045 -342.4215584 618.59217502 -339.93095589 618.60383224 C-336.43617803 618.62077204 -332.9416913 618.64982625 -329.44702148 618.68164062 C-328.42274551 618.68380081 -327.39846954 618.685961 -326.34315491 618.68818665 C-313.72773883 618.83440359 -303.12804733 621.89968521 -293.73974609 630.75048828 C-284.4773957 640.75306749 -280.36847439 652.05670394 -280.69287109 665.64892578 C-281.53024138 673.45831384 -284.00723075 680.32447442 -288.05224609 687.00048828 C-288.05224609 687.66048828 -288.05224609 688.32048828 -288.05224609 689.00048828 C-287.15763672 689.15904297 -286.26302734 689.31759766 -285.34130859 689.48095703 C-272.60470591 691.93865968 -262.17580446 695.99559572 -254.10693359 706.54345703 C-246.03189552 718.52086706 -243.98704335 731.26880973 -246.70849609 745.41064453 C-249.80425963 755.752096 -256.08137025 764.89530889 -265.05224609 771.00048828 C-268.64272671 772.87551705 -272.3131435 774.45027028 -276.05224609 776.00048828 C-277.39181329 776.65453871 -278.72769071 777.3165473 -280.05224609 778.00048828 C-279.29964102 781.54970539 -277.94899901 784.72133814 -276.55224609 788.06298828 C-272.17139446 799.4405044 -272.02243396 810.06484661 -276.39599609 821.52001953 C-279.92887907 829.21070583 -283.90840817 834.54121459 -290.11083984 840.20751953 C-290.75150391 840.79919922 -291.39216797 841.39087891 -292.05224609 842.00048828 C-292.05224609 842.33048828 -292.05224609 842.66048828 -292.05224609 843.00048828 C-288.63437599 843.76801502 -285.45990978 844.13403553 -281.95947266 844.16162109 C-280.96409988 844.17109772 -279.96872711 844.18057434 -278.94319153 844.19033813 C-277.87058578 844.19471893 -276.79798004 844.19909973 -275.69287109 844.20361328 C-274.00486641 844.21393082 -274.00486641 844.21393082 -272.28276062 844.22445679 C-268.62255655 844.24170686 -264.96248879 844.2479254 -261.30224609 844.25048828 C-260.06105011 844.25216003 -258.81985413 844.25383179 -257.54104614 844.2555542 C-233.03396666 844.25753708 -209.29306196 842.58473343 -185.05224609 839.00048828 C-185.46152344 838.46891113 -185.87080078 837.93733398 -186.29248047 837.38964844 C-196.29132187 824.33785446 -200.29980734 813.60654005 -199.05224609 797.00048828 C-197.89983937 790.57874354 -195.34263061 785.56010351 -192.05224609 780.00048828 C-192.05224609 779.01048828 -192.05224609 778.02048828 -192.05224609 777.00048828 C-193.08671875 776.67177734 -193.08671875 776.67177734 -194.14208984 776.33642578 C-200.11574568 774.32062422 -205.07145146 771.97735203 -210.17724609 768.27001953 C-212.13063859 766.82433823 -212.13063859 766.82433823 -215.05224609 766.00048828 C-216.06005859 764.18408203 -216.06005859 764.18408203 -217.05224609 762.00048828 C-218.00067677 760.68081473 -218.95980196 759.36878722 -219.92724609 758.06298828 C-226.16306213 748.72454809 -228.35300881 738.09679064 -227.05224609 727.00048828 C-224.35240629 713.83497734 -217.97895907 703.87788601 -207.05224609 696.00048828 C-199.71776495 691.76726767 -192.42956667 689.8823115 -184.05224609 689.00048828 C-184.66712891 687.80166016 -184.66712891 687.80166016 -185.29443359 686.57861328 C-191.7007215 673.52082072 -194.0292185 661.40793873 -189.36474609 647.37548828 C-185.01700709 636.45955786 -177.40347134 626.66737493 -166.37551498 621.878438 C-157.93822238 618.69003451 -149.64881387 617.55493487 -140.68408203 617.56811523 C-139.61919052 617.55792358 -138.55429901 617.54773193 -137.45713806 617.53723145 C-133.98357712 617.50735597 -130.51029306 617.49787458 -127.03662109 617.48876953 C-124.60995587 617.47190398 -122.18329928 617.45375124 -119.75665283 617.43437195 C-113.40446675 617.3870698 -107.0523157 617.35713263 -100.70001221 617.33093262 C-94.20407191 617.30102694 -87.70825208 617.25453115 -81.21240234 617.20947266 C-68.49241602 617.12366478 -55.77240036 617.05565531 -43.05224609 617.00048828 C-43.60146729 616.05512207 -44.15068848 615.10975586 -44.71655273 614.13574219 C-45.44449403 612.87460296 -46.17226838 611.61336736 -46.89990234 610.35205078 C-47.26104126 609.73144775 -47.62218018 609.11084473 -47.9942627 608.47143555 C-54.33449279 597.45469803 -57.07965029 587.79378163 -56.05224609 575.00048828 C-55.13221671 571.69696308 -53.80342991 568.93736948 -52.05224609 566.00048828 C-51.47474609 564.94861328 -50.89724609 563.89673828 -50.30224609 562.81298828 C-45.6828046 557.03868642 -39.96117293 553.54588238 -33.05224609 551.00048828 C-32.00230469 550.60023438 -32.00230469 550.60023438 -30.93115234 550.19189453 C-22.56694046 547.16222333 -14.20098033 546.85095843 -5.36767578 546.83935547 C-4.44424377 546.83439056 -3.52081177 546.82942566 -2.56939697 546.8243103 C0.4623695 546.80980168 3.49408352 546.8029027 6.52587891 546.79736328 C7.57260521 546.7945359 8.61933151 546.79170853 9.69777679 546.78879547 C15.24627429 546.77384243 20.79474609 546.76459065 26.34326172 546.76025391 C32.01443586 546.75480047 37.68536613 546.73082763 43.35646439 546.70228195 C47.76829666 546.68345264 52.18007282 546.67843914 56.59194183 546.67691803 C58.67907787 546.6739323 60.76621392 546.66604609 62.85330963 546.65273285 C76.82601237 546.5700239 90.17353456 547.6614572 103.94775391 550.00048828 C105.29039793 550.21608365 106.63318073 550.43081752 107.97613525 550.64447021 C125.84665282 553.60202144 143.13064326 560.30917492 158.94775391 569.00048828 C160.57003906 569.85707031 160.57003906 569.85707031 162.22509766 570.73095703 C169.39400801 574.54621156 169.39400801 574.54621156 172.05712891 576.73095703 C172.68103516 577.14990234 173.30494141 577.56884766 173.94775391 578.00048828 C177.1738516 577.31389849 177.1738516 577.31389849 178.29467773 574.37451172 C178.74351318 573.21467773 179.19234863 572.05484375 179.65478516 570.85986328 C179.90071411 570.23071014 180.14664307 569.60155701 180.40002441 568.95333862 C181.20046497 566.89069161 181.98184988 564.82154443 182.76025391 562.75048828 C183.02953705 562.0418866 183.29882019 561.33328491 183.57626343 560.60321045 C200.81952111 515.15673077 207.3833914 467.48888116 207.38525391 419.06298828 C207.38684195 418.05754597 207.38684195 418.05754597 207.38846207 417.03179169 C207.43234382 387.49766739 204.60868483 358.96480675 198.94775391 330.00048828 C198.78299561 329.1485791 198.6182373 328.29666992 198.44848633 327.41894531 C182.89137101 248.16842951 149.85730388 172.06533818 94.33447266 112.57080078 C92.27827368 110.35643265 90.28855991 108.10717836 88.32275391 105.81298828 C82.6864657 99.32923908 76.54312523 93.38326215 70.02197266 87.79736328 C67.74617673 85.82586398 65.53852724 83.78914433 63.32275391 81.75048828 C-8.66212623 16.98597606 -107.98671459 -15.6516583 -335.05224609 -6.99951172 Z " fill="#EB8F00" transform="translate(752.05224609375,102.99951171875)"/>
<path d="M0 0 C1.53342293 -0.00788544 1.53342293 -0.00788544 3.0978241 -0.01593018 C6.47007657 -0.02910551 9.84185419 -0.02039197 13.21411133 -0.01025391 C15.57758168 -0.01227736 17.94105142 -0.01519105 20.30451965 -0.01895142 C25.2632948 -0.02337316 30.22190779 -0.01695583 35.18066406 -0.00292969 C41.48202515 0.01404014 47.78299938 0.00439784 54.08434582 -0.01364708 C58.9722626 -0.02459342 63.86009088 -0.02098731 68.74801064 -0.0132637 C71.06762044 -0.01128514 73.38723872 -0.01363687 75.70683861 -0.02070236 C93.27666338 -0.06242805 110.86686892 0.653272 127.73364258 6.07568359 C128.95301514 6.45587646 128.95301514 6.45587646 130.19702148 6.84375 C172.69323907 20.56468642 207.06559389 50.71496098 227.53393555 90.171875 C246.55586263 127.57590995 249.80133711 171.65898356 237.20239258 211.62646484 C222.63872232 255.78358342 192.51514332 289.09848499 151.30786133 310.06787109 C133.45356441 318.65038493 113.58916961 325.0104161 93.66333008 325.56396484 C92.81383789 325.5878125 91.9643457 325.61166016 91.08911133 325.63623047 C89.34457354 325.6793862 87.59969947 325.71053437 85.85473633 325.72998047 C80.37277505 325.90937494 76.74381185 326.43526342 72.60864258 330.38818359 C71.66284639 332.38133219 71.66284639 332.38133219 70.94799805 334.54174805 C70.56513138 335.62224174 70.56513138 335.62224174 70.17453003 336.7245636 C69.98778717 337.2735582 69.80104431 337.8225528 69.60864258 338.38818359 C28.42400166 338.493176 -12.75962292 338.51522088 -53.94221497 338.04075241 C-56.458324 338.01313457 -58.97444313 337.98932846 -61.49060059 337.96658325 C-65.42877797 337.93047361 -69.36670985 337.88444093 -73.30467796 337.83018303 C-74.74702333 337.81173591 -76.18941457 337.79655101 -77.63183022 337.78482246 C-79.5896151 337.76814486 -81.54727152 337.73798042 -83.50488281 337.70703125 C-85.14790123 337.68704575 -85.14790123 337.68704575 -86.82411194 337.66665649 C-89.39135742 337.38818359 -89.39135742 337.38818359 -91.39135742 335.38818359 C-90.82545898 334.83388672 -90.25956055 334.27958984 -89.67651367 333.70849609 C-88.94303711 332.98404297 -88.20956055 332.25958984 -87.45385742 331.51318359 C-86.35750977 330.43423828 -86.35750977 330.43423828 -85.23901367 329.33349609 C-83.33467743 327.51791167 -83.33467743 327.51791167 -82.39135742 325.38818359 C-83.52573242 325.38818359 -84.66010742 325.38818359 -85.82885742 325.38818359 C-91.8147812 324.63195479 -95.58828769 320.8328281 -99.39135742 316.38818359 C-102.35098326 311.52727914 -103.35164952 305.99716243 -102.39135742 300.38818359 C-100.2102584 293.5073355 -95.73785131 288.88716876 -89.54679585 285.32766628 C-87.20964528 284.30898142 -85.65865141 284.13555886 -83.12309265 284.12989807 C-82.27788055 284.12307007 -81.43266846 284.11624207 -80.56184387 284.10920715 C-79.6427977 284.1117601 -78.72375153 284.11431305 -77.77685547 284.11694336 C-76.80240479 284.11171661 -75.8279541 284.10648987 -74.82397461 284.10110474 C-72.70853473 284.09086584 -70.59306966 284.08508452 -68.47760582 284.08322334 C-65.12735095 284.07956173 -61.77739264 284.06283982 -58.42720032 284.04246521 C-48.90204384 283.98703735 -39.37684338 283.95638378 -29.8515625 283.93188477 C-24.02431102 283.91599344 -18.1972694 283.88575585 -12.37012672 283.84712029 C-10.15143884 283.83548235 -7.93271339 283.82954004 -5.71399498 283.82943916 C-2.60712208 283.82924671 0.4991739 283.8109499 3.60595703 283.78881836 C4.51893051 283.79339554 5.43190399 283.79797272 6.37254333 283.8026886 C12.97835552 283.72803256 17.74960715 282.66075021 23.04614258 278.45068359 C25.53209612 273.57821465 25.35768774 268.74274404 24.60864258 263.38818359 C22.35806454 259.50787664 19.78305701 256.97991019 15.34211445 255.77138996 C12.1551199 255.32460409 9.0922748 255.26029143 5.87309265 255.25688171 C4.8767227 255.25370814 4.8767227 255.25370814 3.86022407 255.25047046 C1.64182535 255.24449493 -0.5765161 255.24546886 -2.79492188 255.24633789 C-4.38857113 255.24330477 -5.98221951 255.23978289 -7.5758667 255.23580933 C-11.00471912 255.22793173 -14.43356119 255.22277971 -17.86242104 255.21951866 C-23.28804823 255.21359843 -28.71361018 255.19704853 -34.13920593 255.17817688 C-35.99826904 255.17183982 -37.85733219 255.16551419 -39.71639538 255.15919971 C-40.6473079 255.1560339 -41.57822043 255.15286809 -42.53734243 255.14960635 C-55.16534569 255.10756274 -67.7933181 255.07455447 -80.42138672 255.06225586 C-88.94421537 255.05387021 -97.4668819 255.03136237 -105.98962945 254.99290019 C-110.49695433 254.97315953 -115.00403698 254.96072842 -119.51140785 254.96573448 C-123.75263162 254.97038781 -127.99339633 254.95653842 -132.23452759 254.92872238 C-133.78727397 254.92182259 -135.34006795 254.92167099 -136.89281273 254.92892265 C-153.47898147 254.99853567 -153.47898147 254.99853567 -159.89558887 248.97643566 C-164.79116098 243.52735436 -165.9139844 238.29230638 -165.77026367 231.17333984 C-164.97629235 225.33724138 -161.66251093 221.3065088 -157.32885742 217.51318359 C-152.81662461 214.24901518 -150.13943236 213.13896583 -144.5218811 213.12316895 C-142.72180351 213.1107592 -142.72180351 213.1107592 -140.88536072 213.09809875 C-139.57201248 213.09908066 -138.25866425 213.10006256 -136.90551758 213.10107422 C-135.50580955 213.09504869 -134.10610515 213.0881241 -132.70640564 213.08036804 C-129.69386356 213.06548522 -126.68138769 213.05673137 -123.6688118 213.05265808 C-118.90327592 213.04594092 -114.13788153 213.02418174 -109.37240601 213.00012207 C-99.25375631 212.9511569 -89.13507664 212.91884176 -79.01635742 212.88818359 C-68.09916461 212.85508974 -57.18202717 212.8191271 -46.26491964 212.76405287 C-41.52982975 212.74073344 -36.79483807 212.72697048 -32.05969644 212.72055817 C-29.11050306 212.71460992 -26.16138904 212.70050497 -23.2122364 212.68421364 C-21.19764564 212.67555789 -19.18302005 212.67675759 -17.16841125 212.67826843 C-15.35987419 212.66585869 -15.35987419 212.66585869 -13.51480103 212.65319824 C-11.94909331 212.64879856 -11.94909331 212.64879856 -10.35175514 212.64431 C-5.5987817 212.23309431 -2.29907028 211.15148759 1.35864258 208.07568359 C4.77199878 203.99861924 5.63124835 201.81234721 5.54614258 196.45068359 C4.81780432 191.86388668 2.90288364 189.6058144 -0.39135742 186.38818359 C-3.97803044 184.00436084 -7.18703887 184.14013988 -11.42425537 184.14335632 C-12.13256665 184.14109175 -12.84087794 184.13882718 -13.5706532 184.13649398 C-15.94424743 184.13119674 -18.31758083 184.14003019 -20.69116211 184.14868164 C-22.39303674 184.14756876 -24.09491098 184.14551095 -25.79678345 184.14257812 C-29.46249273 184.13785419 -33.12813796 184.1389779 -36.79384613 184.14435387 C-42.59326296 184.15195907 -48.39255623 184.14131274 -54.19195557 184.12715149 C-70.68355779 184.08940038 -87.17510456 184.07121615 -103.66674805 184.08276367 C-112.77444691 184.08898384 -121.88194669 184.07737919 -130.98959661 184.04631835 C-136.75126893 184.02767703 -142.51237686 184.03097063 -148.27403975 184.05048597 C-151.86475325 184.05737977 -155.45516242 184.04338653 -159.04581833 184.02353668 C-160.70661704 184.01849971 -162.36746732 184.02194768 -164.02822495 184.03466988 C-173.60313607 184.10278303 -180.6819092 183.87838915 -187.89158249 176.94556713 C-192.33127156 172.11800012 -193.91144844 166.98540071 -193.69995117 160.46630859 C-192.73488267 153.96736629 -189.13642502 149.6534886 -184.17260742 145.61474609 C-179.83341632 142.62679432 -176.78257971 142.13566563 -171.45889282 142.12316895 C-170.76142106 142.11878767 -170.06394931 142.1144064 -169.34534204 142.10989237 C-167.00856446 142.09757216 -164.67201138 142.09938048 -162.33520508 142.10107422 C-160.65963915 142.09504996 -158.98407625 142.08812571 -157.30851746 142.08036804 C-153.70011126 142.06547616 -150.09176043 142.05672909 -146.48332596 142.05265808 C-140.77686274 142.04594639 -135.07051798 142.02419375 -129.36410522 142.00012207 C-117.24821704 141.95113848 -105.13230376 141.9188328 -93.01635742 141.88818359 C-79.94347985 141.85509996 -66.87064858 141.81916228 -53.79784238 141.76405287 C-48.12611142 141.74071294 -42.45446263 141.72696532 -36.78268838 141.72055817 C-33.25225098 141.71461623 -29.72188012 141.70051673 -26.19147682 141.68421364 C-24.55564425 141.67834174 -22.91979539 141.67586457 -21.28395271 141.67705345 C-19.04842372 141.67821487 -16.81326756 141.66717819 -14.57778931 141.65319824 C-12.70235915 141.64879856 -12.70235915 141.64879856 -10.78904152 141.64431 C-5.78131336 141.26681422 -2.45536069 140.30709551 1.35864258 137.01318359 C4.40257789 133.46192573 5.46423174 131.68788115 5.98364258 127.01318359 C5.42548182 121.61762957 3.2021867 118.86065531 -0.71340942 115.24255371 C-5.73301014 112.03940948 -11.88322751 112.85415169 -17.61352539 112.90576172 C-18.9610229 112.90357387 -20.3085185 112.89957411 -21.65600586 112.89390564 C-24.55021821 112.8853602 -27.44405915 112.88909648 -30.33825302 112.90232849 C-34.91972669 112.92271746 -39.50082853 112.91266496 -44.08230591 112.89807129 C-54.63642316 112.86907297 -65.19043019 112.87975522 -75.74456787 112.89076996 C-85.41516254 112.90045581 -95.08556217 112.90166822 -104.75612366 112.87088919 C-109.30518535 112.85755231 -113.85368569 112.86342296 -118.40271354 112.88425446 C-121.23950536 112.89327283 -124.07608325 112.88573732 -126.91285706 112.87384224 C-128.8435921 112.87071372 -130.7743278 112.88744724 -132.70498657 112.90489197 C-140.60503947 112.84967434 -146.63025126 112.17070023 -152.44995117 106.31787109 C-152.90499023 105.63982422 -153.3600293 104.96177734 -153.82885742 104.26318359 C-154.30194336 103.57998047 -154.7750293 102.89677734 -155.26245117 102.19287109 C-158.50029995 97.0167945 -158.00996931 91.33102814 -157.39135742 85.38818359 C-155.41638601 80.15164114 -152.03370847 76.4830843 -147.39135742 73.38818359 C-146.8632163 73.02999511 -146.33507519 72.67180662 -145.79092979 72.30276394 C-142.12000061 70.90361477 -138.43588123 71.11162245 -134.56069946 71.12989807 C-133.2082254 71.12438451 -133.2082254 71.12438451 -131.82842863 71.11875957 C-128.80068233 71.1087624 -125.77311907 71.11293381 -122.74536133 71.11694336 C-120.57719222 71.1125573 -118.4090248 71.10725559 -116.24085999 71.10110474 C-111.56840611 71.08959429 -106.89599764 71.08414455 -102.22352982 71.08322334 C-94.83683381 71.08128521 -87.45023194 71.06324616 -80.06356812 71.04246521 C-61.71487088 70.99324105 -43.36614464 70.96238365 -25.01739502 70.94116211 C-10.76138192 70.92464837 3.4945507 70.90185826 17.75050986 70.85814136 C25.09484659 70.83633808 32.43903056 70.82830969 39.78339744 70.8305341 C44.35179388 70.8288688 48.9200904 70.81482896 53.488451 70.79732132 C55.60805218 70.79171615 57.72767403 70.79124176 59.84727669 70.79625893 C62.73975276 70.80238801 65.63159634 70.79019054 68.52401733 70.77345276 C69.36371138 70.77966457 70.20340543 70.78587639 71.06854475 70.79227644 C75.98658018 70.74038218 79.33982236 70.09215734 83.60864258 67.38818359 C87.01255156 63.70828199 88.47772078 61.12289741 88.85864258 56.07568359 C88.52755752 51.19217898 87.2729105 47.9450794 83.67114258 44.57568359 C79.37853188 42.10418046 75.08871754 42.25230371 70.24487305 42.27807617 C68.72061156 42.27753356 67.19635008 42.27694657 65.67208862 42.27632141 C64.86662472 42.27774958 64.06116081 42.27917774 63.23128891 42.28064919 C58.9455521 42.28418262 54.6599443 42.25834487 50.37426758 42.23779297 C44.92982031 42.21350903 39.48575353 42.1977137 34.04125977 42.21313477 C29.63370238 42.22485019 25.22708613 42.2072552 20.81967545 42.17069054 C19.14772691 42.16212012 17.47568727 42.16408622 15.80376816 42.1771946 C4.40090585 42.25988123 -3.17675492 40.85177673 -11.97729492 33.11474609 C-17.90577787 26.15072027 -22.0263825 19.99857747 -22.61401367 10.65380859 C-22.39135742 8.38818359 -22.39135742 8.38818359 -20.39135742 5.45068359 C-13.50850735 0.71872417 -8.18356994 -0.05213126 0 0 Z " fill="#FCD12E" transform="translate(741.391357421875,673.61181640625)"/>
<path d="M0 0 C2.28013102 0.00052041 4.56026249 -0.00000427 6.84039307 -0.00151062 C11.57335273 -0.00142178 16.30613889 0.00883338 21.0390625 0.02709961 C27.08769739 0.04994049 33.13608328 0.05029308 39.1847496 0.04358196 C43.87402542 0.04023586 48.56324495 0.04688165 53.25251007 0.0567112 C55.48352005 0.06054068 57.71453631 0.06172083 59.94554901 0.06012535 C63.05724499 0.05975264 66.16862516 0.07242735 69.28027344 0.08862305 C70.18740082 0.08614563 71.0945282 0.08366821 72.02914429 0.08111572 C78.8888898 0.13781883 86.24175017 0.44299283 92.078125 4.42578125 C94.91454846 7.84403517 95.40561211 9.42929838 95.1015625 13.765625 C92.86449909 23.68327277 86.87112766 32.69454525 78.390625 38.23828125 C73.40691844 41.260529 68.94415097 41.50956183 63.19604492 41.50512695 C62.4654335 41.50860138 61.73482208 41.51207581 60.98207092 41.51565552 C59.39864547 41.52299475 57.81520985 41.52834988 56.23177147 41.53194618 C53.72167574 41.53913241 51.21177314 41.55481515 48.70173645 41.57328796 C41.56607717 41.62565521 34.43052506 41.67371837 27.29467773 41.68920898 C22.92617247 41.6993128 18.55815595 41.72869601 14.18984413 41.77052879 C12.52938859 41.78280785 10.86886393 41.78796572 9.20836449 41.78573036 C6.87951201 41.78336671 4.55205228 41.80562139 2.22338867 41.83325195 C1.54418365 41.82665054 0.86497864 41.82004913 0.16519165 41.81324768 C-5.83076887 41.92945083 -10.12559187 44.03349955 -14.390625 48.24609375 C-16.6590633 52.63714217 -16.17426612 57.58514646 -15.484375 62.36328125 C-13.59017079 66.30202334 -10.56826907 68.87458792 -6.484375 70.36328125 C-3.51358902 70.55309156 -0.63751634 70.63127272 2.33282471 70.61483765 C3.23306295 70.61780779 4.1333012 70.62077792 5.06081939 70.62383807 C8.08390485 70.63148977 11.10679669 70.62497917 14.12988281 70.61865234 C16.29480623 70.62140171 18.45972865 70.62508128 20.62464905 70.62962341 C25.29055391 70.63774239 29.95641084 70.63990209 34.62232208 70.63767624 C42.00116399 70.63484645 49.37990989 70.64918306 56.75872803 70.66665649 C77.74262039 70.71371418 98.72650646 70.73762314 119.71044922 70.74414062 C131.29678952 70.74789122 142.88302144 70.76592174 154.46931529 70.79923499 C161.80310714 70.8194574 169.13661961 70.8218148 176.47042799 70.81095481 C181.03675956 70.80834701 185.60292863 70.82235548 190.16921806 70.84103584 C192.2847554 70.84635682 194.40032269 70.84486269 196.51584816 70.83600044 C199.4077838 70.82486425 202.29862186 70.83832872 205.19049072 70.85775757 C206.02435909 70.84863291 206.85822745 70.83950825 207.71736455 70.83010709 C214.31764288 70.91617526 219.43428676 72.81136212 224.5390625 77.0390625 C228.86164749 82.27363797 230.84723055 86.95565889 230.390625 93.86328125 C229.51387612 99.7888944 227.10711546 104.17206031 222.578125 108.17578125 C217.95249625 111.47980179 214.43067102 112.61292885 208.76040649 112.61483765 C207.03616203 112.62291191 207.03616203 112.62291191 205.27708435 112.63114929 C204.02500687 112.6270253 202.77292938 112.62290131 201.48291016 112.61865234 C200.14379158 112.621404 198.80467463 112.62508496 197.46556091 112.62962341 C194.58671487 112.63772201 191.70794643 112.63990725 188.82909012 112.63767624 C184.27323335 112.6348381 179.71753103 112.6492139 175.16171265 112.66665649 C162.20841791 112.71363521 149.25513398 112.73762138 136.30175781 112.74414062 C129.14389102 112.74789509 121.98619937 112.76595451 114.82840765 112.79923499 C110.30337719 112.81941526 105.77879945 112.82183613 101.25374246 112.81095481 C98.43335495 112.80834104 95.6132291 112.82238377 92.79290962 112.84103584 C90.87035524 112.84886366 88.94775188 112.83694536 87.02522278 112.82435608 C80.30700411 112.88846239 75.94274681 113.26998436 70.515625 117.36328125 C67.31780108 120.97372761 66.98524567 124.41629794 67.171875 129.08203125 C67.77233292 133.06688837 69.0116102 135.15300587 71.515625 138.36328125 C76.47142468 140.9546303 80.14028099 141.73858225 85.80212402 141.74182129 C86.85111822 141.74861648 86.85111822 141.74861648 87.92130423 141.75554895 C90.24655798 141.76710459 92.57122883 141.75755415 94.89648438 141.74804688 C96.57087066 141.75215512 98.24525408 141.75761749 99.91963196 141.764328 C103.51656096 141.77602959 107.11333662 141.77854575 110.71028137 141.77397156 C116.40048014 141.76714988 122.09047786 141.78305011 127.78063965 141.80236816 C139.8589573 141.84018984 151.93725721 141.85302012 164.015625 141.86328125 C177.05615639 141.87435978 190.09659493 141.88972154 203.13706255 141.93399382 C208.79101153 141.95233301 214.44472987 141.95624862 220.09870148 141.94905853 C223.61827578 141.94753493 227.13773502 141.9583314 230.65727806 141.9724369 C232.28624729 141.97643372 233.91523848 141.9753245 235.54419899 141.96866417 C237.77278809 141.96025363 240.00058426 141.97030512 242.22912598 141.98474121 C243.4745945 141.98545372 244.72006302 141.98616623 246.00327301 141.98690033 C253.78986661 142.82130567 258.35381055 146.52393513 263.265625 152.48828125 C266.29710321 157.03549856 265.96349024 162.1088623 265.515625 167.36328125 C263.91880119 173.4805254 260.59328356 177.94718315 255.41346741 181.47766113 C248.73769839 184.68245455 241.0727619 183.89906814 233.83764648 183.84570312 C232.14340908 183.84789117 230.44917319 183.85189124 228.75494385 183.8575592 C225.11814134 183.86610043 221.48163449 183.86237428 217.84484673 183.84913635 C212.09154021 183.82874895 206.3385298 183.83879847 200.58522034 183.85339355 C188.37449513 183.88011442 176.16386688 183.87342346 163.953125 183.86328125 C150.7658846 183.85233022 137.57879732 183.8471112 124.39158303 183.88057566 C118.67482353 183.89393795 112.95851009 183.88800593 107.2417773 183.86721039 C103.68395001 183.85821705 100.12629426 183.86570482 96.56848145 183.8776226 C94.9217629 183.87975099 93.27501883 183.87504625 91.62834358 183.86291695 C89.37554312 183.84726114 87.12409887 183.85630234 84.87132263 183.87121582 C83.61240424 183.86970772 82.35348585 183.86819962 81.05641842 183.86664581 C75.91583539 184.58766944 72.12897773 186.59379761 68.578125 190.48828125 C66.97875758 194.81598131 66.858751 198.80895484 67.515625 203.36328125 C69.74748246 207.90965756 72.0266937 210.12766237 76.515625 212.36328125 C79.43177117 212.80081761 79.43177117 212.80081761 82.59233093 212.72163391 C83.81321915 212.7255011 85.03410736 212.72936829 86.29199219 212.73335266 C87.63696474 212.72261054 88.98193541 212.71163153 90.3269043 212.70043945 C91.74982186 212.6996327 93.17274081 212.70022812 94.59565735 212.70211792 C97.65625724 212.70367745 100.71665981 212.6963044 103.7772274 212.68227577 C108.62375827 212.6611064 113.47004925 212.66591333 118.31660461 212.67533875 C132.09711658 212.69818996 145.87748547 212.68635954 159.65795898 212.64819336 C167.27183403 212.62733574 174.88541052 212.62811394 182.49928027 212.65172833 C187.30973488 212.66535643 192.11912748 212.65233689 196.92947519 212.61913073 C199.93361851 212.60470898 202.93729423 212.61549303 205.94140434 212.63311386 C207.32563596 212.63627068 208.70993679 212.62932319 210.09405136 212.61104774 C219.04695373 212.49991431 225.48440019 213.54873075 232.515625 219.36328125 C236.57583089 223.70403933 237.83080997 227.41273165 238.078125 233.36328125 C237.78774416 239.58684893 236.4074367 244.34002357 232.0546875 248.890625 C227.03826625 253.28317661 223.50970396 254.61197804 216.89360046 254.6282959 C216.22950269 254.63267717 215.56540492 254.63705844 214.88118297 254.64157248 C212.65729227 254.65388785 210.43363763 254.6520847 208.2097168 254.65039062 C206.61458995 254.65641526 205.01946629 254.66333961 203.42434692 254.6710968 C199.98946386 254.6859869 196.55463894 254.69473533 193.11972618 254.69880676 C187.68602567 254.70552087 182.25244943 254.72727687 176.81880188 254.75134277 C165.28027205 254.80032265 153.74171586 254.8326239 142.203125 254.86328125 C129.75668714 254.89637232 117.31029788 254.93234357 104.86393481 254.98741198 C99.4651115 255.01073063 94.06637432 255.02449427 88.66750562 255.03090668 C85.30418217 255.03685591 81.94092827 255.05096188 78.57764053 255.06725121 C77.02124373 255.07311461 75.46482987 255.07560204 73.90842247 255.07441139 C71.77833479 255.07324672 69.64863523 255.0843124 67.51860046 255.0982666 C66.32823024 255.10119972 65.13786001 255.10413284 63.91141796 255.10715485 C59.18266777 255.46381905 54.9904469 256.87167395 50.515625 258.36328125 C49.33171277 260.7395347 49.33171277 260.7395347 48.515625 263.36328125 C48.185625 264.35328125 47.855625 265.34328125 47.515625 266.36328125 C46.92847516 272.2347797 47.48136976 275.20670794 51.03125 279.91796875 C53.95922442 282.76889121 56.7912822 283.61300873 60.81512451 283.61483765 C61.6673056 283.62022049 62.51948669 283.62560333 63.39749146 283.63114929 C64.78773026 283.6249633 64.78773026 283.6249633 66.20605469 283.61865234 C67.18865265 283.6222728 68.17125061 283.62589325 69.18362427 283.62962341 C71.31707582 283.63651571 73.450545 283.63902316 75.58400726 283.63767624 C78.96394265 283.6367112 82.34355983 283.64965167 85.72344971 283.66665649 C95.33318603 283.71293027 104.9428905 283.73752783 114.55273438 283.74414062 C120.43190284 283.74916182 126.3107402 283.77344524 132.18979645 283.80946732 C134.42719788 283.8192532 136.66464493 283.82160391 138.90206146 283.81629562 C142.03760512 283.80920692 145.17216628 283.8265461 148.30761719 283.84912109 C149.22634613 283.84094864 150.14507507 283.83277618 151.09164429 283.82435608 C157.98537145 283.91235786 163.23111044 285.58602762 168.5390625 290.07421875 C172.95999331 295.51733009 174.98555319 300.13516881 174.765625 307.3515625 C174.04552306 313.1461328 170.9813098 318.62407144 166.515625 322.36328125 C158.38888524 327.17002457 149.75436417 326.915182 140.62719727 326.83325195 C139.04080563 326.83376165 137.45441374 326.83602309 135.86802673 326.83988953 C131.5821843 326.84528318 127.29677855 326.82595832 123.01101422 326.80178857 C118.50092312 326.78036412 113.99083153 326.78108147 109.48069763 326.77909851 C101.89924708 326.77266038 94.31795839 326.75146247 86.73657227 326.7199707 C77.05998193 326.67982403 67.38349736 326.66229656 57.70683384 326.65266132 C49.33097267 326.64429694 40.95513306 326.62707881 32.57929111 326.60762382 C30.79591646 326.60359753 29.01254116 326.59985467 27.22916532 326.59640145 C-47.57879903 326.45096182 -47.57879903 326.45096182 -80.484375 309.36328125 C-81.73783407 308.73868512 -82.99174824 308.11500153 -84.24609375 307.4921875 C-100.99791794 299.03023625 -114.27824717 287.56940908 -127.484375 274.36328125 C-128.02320313 273.87085938 -128.56203125 273.3784375 -129.1171875 272.87109375 C-139.99988633 262.78607965 -147.73172564 249.4218813 -154.484375 236.36328125 C-154.80390137 235.7501709 -155.12342773 235.13706055 -155.45263672 234.50537109 C-163.05582905 219.70835852 -167.8601697 203.76928419 -170.484375 187.36328125 C-170.76087891 185.66171875 -170.76087891 185.66171875 -171.04296875 183.92578125 C-171.84781502 177.17397042 -171.7287942 170.34157924 -171.734375 163.55078125 C-171.73504974 162.8144043 -171.73572449 162.07802734 -171.73641968 161.31933594 C-171.71963414 149.77841459 -171.20785666 138.61908783 -168.484375 127.36328125 C-168.31808594 126.66992676 -168.15179688 125.97657227 -167.98046875 125.26220703 C-161.3862116 98.83022629 -149.06312111 74.42942437 -130.4375 54.46875 C-128.84376776 52.75070664 -127.36978574 51.0146279 -125.921875 49.17578125 C-122.73230371 45.49550668 -119.2242642 42.47311184 -115.484375 39.36328125 C-114.98180176 38.93241211 -114.47922852 38.50154297 -113.96142578 38.05761719 C-80.9574271 9.81838279 -42.65786895 -0.19566896 0 0 Z " fill="#FBD02E" transform="translate(217.484375,673.63671875)"/>
<path d="M0 0 C4.26425261 2.31404834 7.31237475 4.96856213 10 9 C13.04681391 22.72414409 0.5249682 37.31183857 -6.30566406 48.16772461 C-11.28252958 55.98174788 -16.43469788 63.59523883 -22 71 C-22.39461426 71.53061035 -22.78922852 72.0612207 -23.19580078 72.60791016 C-39.73099104 94.80774942 -58.7784112 117.00702536 -80.61328125 134.109375 C-82.90390402 135.92387814 -85.04098612 137.83110257 -87.1875 139.8125 C-103.358865 154.29217965 -122.20190321 166.24210535 -141 177 C-141.78793945 177.45342773 -142.57587891 177.90685547 -143.38769531 178.37402344 C-186.19836698 202.8442699 -233.2271256 218.13418851 -281.8125 225.8125 C-282.4723288 225.91782043 -283.13215759 226.02314087 -283.8119812 226.13165283 C-297.20565963 228.24757964 -310.51762797 229.14598863 -324.078125 229.23828125 C-325.27713943 229.24789383 -326.47615387 229.25750641 -327.71150208 229.26741028 C-331.55769745 229.29194515 -335.40373568 229.30464528 -339.25 229.3125 C-341.21572464 229.31742462 -341.21572464 229.31742462 -343.22116089 229.32244873 C-398.30022382 229.36708706 -450.71539097 217.40010836 -501 195 C-502.31291016 194.41798828 -502.31291016 194.41798828 -503.65234375 193.82421875 C-521.2616395 185.95150043 -537.73812483 176.32692964 -553.8125 165.6875 C-554.80854248 165.02999756 -555.80458496 164.37249512 -556.83081055 163.69506836 C-573.73330347 152.33348263 -573.73330347 152.33348263 -575 146 C-575.47696886 140.75334256 -574.86233294 137.44155111 -572 133 C-567.72950284 129.1461367 -565.14783597 127.70111023 -559.33837891 127.78564453 C-554.95595342 128.18737449 -550.87235303 129.63340428 -546.6875 130.9375 C-534.64364232 134.49542563 -522.47395837 137.1842542 -510.1875 139.75 C-509.28800629 139.94004608 -508.38851257 140.13009216 -507.46176147 140.32589722 C-447.8900465 152.87441633 -383.30152143 154.76884852 -323 146 C-321.69853027 145.81808105 -320.39706055 145.63616211 -319.05615234 145.44873047 C-287.22833425 140.90305996 -255.61976073 133.79296558 -225 124 C-224.30861938 123.77892578 -223.61723877 123.55785156 -222.90490723 123.33007812 C-149.14128965 99.63308068 -79.28644799 62.65827894 -22 10 C-8.90749419 -1.86435925 -8.90749419 -1.86435925 0 0 Z " fill="#242424" transform="translate(809,434)"/>
<path d="M0 0 C0.65742188 0.50273437 1.31484375 1.00546875 1.9921875 1.5234375 C14.77168738 11.71170238 29.04239536 30.88703631 31.3359375 47.421875 C31.49635792 56.9829319 28.42915402 64.32974493 21.84375 71.25 C14.63753989 78.08979264 7.10130722 81.01748579 -2.875 81.5 C-13.74372976 81.12521622 -21.22717621 76.21594231 -29.06958008 69.23461914 C-37.98840237 61.33972605 -50.40665189 52.35701244 -62.5625 51.25 C-69.16358121 51.75416784 -74.04282411 55.68627751 -78.33642578 60.49755859 C-84.91217226 68.4524346 -90.14831741 77.27479728 -94.94506836 86.38964844 C-99.73425356 95.16438294 -106.49515309 100.82602958 -116 104 C-125.40229875 106.26689727 -134.52295547 105.83177243 -143 101 C-149.58757082 96.5311031 -154.11739581 90.74435638 -156.609375 83.140625 C-160.73761892 60.5178483 -150.83731285 35.22707306 -138.29931641 16.77880859 C-134.36993716 11.39935403 -129.73348632 6.66732998 -125 2 C-124.24976563 1.23945313 -123.49953125 0.47890625 -122.7265625 -0.3046875 C-88.15407998 -33.33490314 -35.13907453 -28.17272739 0 0 Z " fill="#252424" transform="translate(395,314)"/>
<path d="M0 0 C11.07710904 10.26590661 19.77505266 22.08011585 26.03125 35.84375 C26.56105469 36.96523438 26.56105469 36.96523438 27.1015625 38.109375 C29.54611973 45.29924921 29.17822859 54.47082051 25.96875 61.34375 C20.75317004 70.16335431 14.16711034 74.43753026 4.84375 78.09375 C-4.53453908 79.93865933 -13.66062673 79.90967882 -21.96875 74.84375 C-25.8622626 71.98998855 -29.56434183 68.90177537 -33.28125 65.82421875 C-43.2527006 57.63228064 -54.61480286 50.19964968 -67.83984375 50.390625 C-75.33081599 51.47545993 -79.71812412 57.26208942 -84.21875 62.90625 C-87.11847119 66.9009708 -89.65882115 70.98084192 -92.109375 75.265625 C-92.66463867 76.23363037 -93.21990234 77.20163574 -93.79199219 78.19897461 C-94.88486921 80.12646724 -95.95945218 82.06448355 -97.01269531 84.01391602 C-101.91451879 92.72955583 -108.59743759 98.75995801 -118.09765625 102.18359375 C-126.35647831 104.082561 -135.39940683 104.19514169 -142.98046875 100.09765625 C-143.63660156 99.68386719 -144.29273438 99.27007812 -144.96875 98.84375 C-145.67644531 98.41964844 -146.38414062 97.99554688 -147.11328125 97.55859375 C-153.37987961 93.38473696 -156.61333542 87.90999374 -158.96875 80.84375 C-160.28561198 52.97527551 -152.29032963 28.02170062 -133.96875 6.84375 C-133.205625 5.833125 -132.4425 4.8225 -131.65625 3.78125 C-96.89273736 -34.21607777 -37.17486976 -33.39572913 0 0 Z " fill="#252424" transform="translate(691.96875,259.15625)"/>
<path d="" fill="#FF9000" transform="translate(0,0)"/>
</svg>
