<?xml version="1.0" encoding="UTF-8"?>
<svg version="1.1" xmlns="http://www.w3.org/2000/svg" width="1000" height="1000">
<path d="M0 0 C330 0 660 0 1000 0 C1000 330 1000 660 1000 1000 C670 1000 340 1000 0 1000 C0 670 0 340 0 0 Z " fill="#FEFEFE" transform="translate(0,0)"/>
<path d="M0 0 C1.77059154 0.38392929 3.54142123 0.76676214 5.3125 1.1484375 C15.04589758 3.29997309 24.56132817 5.98569392 34.0625 9 C35.073125 9.32009033 36.08375 9.64018066 37.125 9.9699707 C44.24880789 12.28860167 51.11727121 15.04900591 58 18 C59.68694869 18.70314705 61.37442318 19.40503439 63.0625 20.10546875 C99.53133727 35.41202532 132.696869 55.57323491 163 81 C163.9590625 81.7734375 164.918125 82.546875 165.90625 83.34375 C174.35301318 90.25473805 182.08560987 97.86981592 189.8125 105.5625 C190.61605927 106.35829468 190.61605927 106.35829468 191.43585205 107.17016602 C198.43246118 114.11345999 204.84991836 121.28226594 211 129 C211.94636952 130.11366848 212.89946218 131.22171087 213.86328125 132.3203125 C243.73647514 166.52916929 266.45205261 209.12552043 281 252 C280.34 252 279.68 252 279 252 C277.75815799 250.56615249 276.58457712 249.07322975 275.4375 247.5625 C266.42306722 236.3053812 255.94079012 225.91290096 244.58203125 217.0234375 C241.77395527 214.82285753 239.08257665 212.51037361 236.375 210.1875 C216.74905815 193.84517776 194.54965613 180.83400878 172 169 C171.11473633 168.53207031 170.22947266 168.06414062 169.31738281 167.58203125 C128.82065048 146.29777149 83.78395644 131.95426707 39.08203125 122.64355469 C36.39475838 122.08242895 33.71299646 121.50083215 31.03125 120.9140625 C19.26350372 118.4265615 7.36013339 116.89894774 -4.5625 115.375 C-5.36489105 115.2704953 -6.1672821 115.1659906 -6.99398804 115.05831909 C-32.39364253 111.77846434 -57.77595483 110.58952051 -83.375 110.625 C-84.74423218 110.62488739 -86.11346436 110.62476521 -87.48269653 110.62463379 C-119.63737002 110.64750769 -151.85967375 112.33254974 -183.47631836 118.53710938 C-186.37403646 119.06860531 -189.27983401 119.49095852 -192.1953125 119.9140625 C-199.48327712 121.01708851 -206.63212177 122.59651304 -213.8125 124.25 C-215.17325311 124.56105858 -216.53401166 124.87209336 -217.89477539 125.18310547 C-245.74833805 131.57479501 -272.5434442 139.19459881 -299.0625 149.9375 C-300.08540131 150.35160629 -300.08540131 150.35160629 -301.12896729 150.77407837 C-339.05848111 166.1990253 -375.38758781 185.76945553 -407 212 C-408.50820313 213.24716797 -408.50820313 213.24716797 -410.046875 214.51953125 C-417.93668096 221.09377373 -425.53356361 227.9500587 -433 235 C-433.68964844 235.64710938 -434.37929688 236.29421875 -435.08984375 236.9609375 C-439.873427 241.58181384 -443.93179737 246.74832024 -448 252 C-449.2488781 248.25336571 -448.58001163 247.27904447 -447.11328125 243.6796875 C-446.6754834 242.59921143 -446.23768555 241.51873535 -445.78662109 240.40551758 C-445.30016113 239.24044678 -444.81370117 238.07537598 -444.3125 236.875 C-443.56734131 235.07228638 -443.56734131 235.07228638 -442.80712891 233.2331543 C-435.3318035 215.29582511 -427.00789827 197.67249865 -417 181 C-416.61666504 180.35836914 -416.23333008 179.71673828 -415.83837891 179.05566406 C-398.29460028 149.88061134 -376.79704493 123.77481486 -352.8125 99.6875 C-352.06403809 98.93436523 -351.31557617 98.18123047 -350.54443359 97.40527344 C-293.75420711 40.77798514 -215.83838945 5.27879351 -137 -6 C-135.94586914 -6.15098145 -134.89173828 -6.30196289 -133.80566406 -6.45751953 C-89.37989136 -12.49780866 -43.64530987 -9.99427858 0 0 Z " fill="#F37828" transform="translate(598,93)"/>
<path d="M0 0 C1 2 1 2 0.20239258 4.49243164 C-0.44499878 6.06045532 -0.44499878 6.06045532 -1.10546875 7.66015625 C-1.58822266 8.83384766 -2.07097656 10.00753906 -2.56835938 11.21679688 C-3.1071655 12.49907959 -3.6469028 13.78097136 -4.1875 15.0625 C-4.45876709 15.71081787 -4.73003418 16.35913574 -5.00952148 17.02709961 C-19.51837939 51.65853896 -37.24940964 84.74927293 -61 114 C-62.13308594 115.41925781 -62.13308594 115.41925781 -63.2890625 116.8671875 C-67.58860121 122.20097951 -72.04171283 127.36172035 -76.6640625 132.41796875 C-78.55704061 134.51037432 -80.40437488 136.62864268 -82.24609375 138.765625 C-86.13148889 143.21477723 -90.25069938 147.39831036 -94.4375 151.5625 C-95.14970703 152.27857422 -95.86191406 152.99464844 -96.59570312 153.73242188 C-101.23311156 158.36140631 -106.02537004 162.73763609 -111 167 C-111.97582031 167.85722656 -112.95164062 168.71445312 -113.95703125 169.59765625 C-140.72393666 192.70287829 -170.97233203 211.57781121 -203.14941406 226.15478516 C-204.87610326 226.94341286 -206.59093627 227.75785735 -208.3046875 228.57421875 C-234.19792613 240.87512139 -262.86809877 249.87484514 -291.0625 255.0625 C-291.93535645 255.22532471 -292.80821289 255.38814941 -293.70751953 255.5559082 C-300.24278537 256.74482611 -306.79673848 257.76761209 -313.375 258.6875 C-314.63775757 258.86647827 -314.63775757 258.86647827 -315.92602539 259.04907227 C-332.31429946 261.23196575 -348.74727972 261.23916784 -365.25 261.25 C-366.4538736 261.25133942 -367.65774719 261.25267883 -368.89810181 261.25405884 C-386.16717354 261.24988725 -402.92939159 260.7555795 -420 258 C-421.78472788 257.74310001 -423.56988292 257.48914868 -425.35546875 257.23828125 C-506.31401297 245.47180665 -581.08274826 204.11164025 -638.51391602 146.67138672 C-640.05923066 145.1282647 -641.61240446 143.59335694 -643.16601562 142.05859375 C-649.56393379 135.69637733 -655.37458272 129.06589183 -661 122 C-662.00006541 120.8213241 -663.00576615 119.64738263 -664.01953125 118.48046875 C-690.12689278 87.96555124 -709.73133795 51.20876729 -724.75 14.1875 C-725.19311523 13.10082031 -725.63623047 12.01414062 -726.09277344 10.89453125 C-726.49012695 9.89164063 -726.88748047 8.88875 -727.296875 7.85546875 C-727.65104492 6.96496826 -728.00521484 6.07446777 -728.37011719 5.15698242 C-729 3 -729 3 -728 1 C-727.60844727 1.4218457 -727.21689453 1.84369141 -726.81347656 2.27832031 C-710.61523461 19.91919658 -710.61523461 19.91919658 -692.74609375 35.80859375 C-689.95561654 38.03541838 -687.26569166 40.35585502 -684.5625 42.6875 C-619.91105383 96.3979322 -533.20715025 124.78837559 -451 136 C-448.05634284 136.42013975 -445.11291192 136.84180092 -442.16967773 137.26489258 C-418.64232582 140.40175202 -395.38744428 141.32703339 -371.68408203 141.26074219 C-367.58580361 141.24938653 -363.4877862 141.25609991 -359.38951683 141.26762772 C-301.5061448 141.4054346 -243.35696698 134.11229964 -188.19482422 116.04150391 C-184.96110665 114.98732087 -181.71810412 113.96665048 -178.47265625 112.94921875 C-123.66420477 95.52465987 -70.65608425 67.88228056 -28 29 C-27.31212402 28.37383789 -26.62424805 27.74767578 -25.91552734 27.10253906 C-23.76893562 25.13941256 -21.63208961 23.16636188 -19.5 21.1875 C-18.85329346 20.58945557 -18.20658691 19.99141113 -17.5402832 19.37524414 C-11.15574288 13.37789636 -5.56737639 6.74833502 0 0 Z " fill="#F37828" transform="translate(878,613)"/>
<path d="M0 0 C1.23226318 0.00499512 2.46452637 0.00999023 3.73413086 0.01513672 C21.71167306 0.35810674 36.68708056 6.7383163 50.3125 18.5 C50.97894531 19.07105469 51.64539063 19.64210938 52.33203125 20.23046875 C65.78362587 32.67385707 74.08495496 51.14371111 75.6328125 69.24609375 C76.30255621 91.77180715 68.30634457 112.56749874 52.89453125 129.08203125 C36.25275871 144.66638405 17.03076933 150.10016755 -5.31640625 149.7734375 C-22.07268414 149.17763251 -37.36079946 141.58068027 -49.6875 130.5 C-50.29851562 129.98179687 -50.90953125 129.46359375 -51.5390625 128.9296875 C-60.93655933 120.39040956 -66.88122163 108.4114123 -70.6875 96.5 C-71.00589844 95.59507812 -71.32429687 94.69015625 -71.65234375 93.7578125 C-77.00674641 76.33749786 -74.22626346 57.24816904 -66.375 41.125 C-63.32687095 35.38317552 -60.0371408 30.32724841 -55.6875 25.5 C-54.88570312 24.60539063 -54.08390625 23.71078125 -53.2578125 22.7890625 C-38.77993761 7.47189051 -21.07640942 -0.11223868 0 0 Z " fill="#989898" transform="translate(223.6875,849.5)"/>
<path d="M0 0 C13.55490891 8.7868505 23.15580539 21.64645073 27.484375 37.265625 C29.25960881 47.04752561 29.19577705 58.54477984 26.109375 68.015625 C25.85285156 68.88316406 25.59632813 69.75070313 25.33203125 70.64453125 C23.04847515 77.69121295 19.64880178 83.19917266 15.109375 89.015625 C14.63628906 89.65371094 14.16320312 90.29179688 13.67578125 90.94921875 C5.77066534 101.00416788 -7.92903392 108.57551092 -20.4765625 110.765625 C-37.04070462 112.48100541 -53.32976432 109.43971765 -66.57421875 98.875 C-69.10290903 96.66568368 -71.5103537 94.38325769 -73.890625 92.015625 C-74.44363281 91.49742188 -74.99664063 90.97921875 -75.56640625 90.4453125 C-83.12752119 82.66001355 -89.16494927 69.80812147 -89.890625 59.015625 C-89.98214844 57.75363281 -90.07367187 56.49164063 -90.16796875 55.19140625 C-90.97973879 38.2187458 -85.67734913 23.78850352 -74.640625 10.828125 C-54.91051887 -10.22172067 -24.83244328 -14.13904665 0 0 Z " fill="#777777" transform="translate(828.890625,8.984375)"/>
<path d="M0 0 C0.79470703 -0.01160156 1.58941406 -0.02320312 2.40820312 -0.03515625 C13.08468144 0.01696651 22.87089822 4.18886907 30.76171875 11.37890625 C41.49688806 22.80930557 44.06080065 33.26164624 43.83984375 48.3671875 C43.61849054 54.29416746 42.39658932 59.14826829 39.5625 64.375 C39.13839844 65.15875 38.71429688 65.9425 38.27734375 66.75 C31.95474885 77.17611749 22.91401345 83.25883013 11.5625 87.375 C-0.28535519 89.83398881 -11.82620676 88.47923013 -22.25 82.125 C-24.00219986 80.90749723 -25.73382027 79.65952043 -27.4375 78.375 C-28.08460938 77.89675781 -28.73171875 77.41851562 -29.3984375 76.92578125 C-36.22261576 71.04340135 -41.59139759 60.10083792 -43.4375 51.375 C-44.42161162 37.57851211 -41.47350097 25.35969731 -32.84375 14.33984375 C-24.12524472 4.98390058 -12.66653624 -0.18401748 0 0 Z " fill="#717171" transform="translate(164.4375,95.625)"/>
</svg>
