<?xml version="1.0" encoding="UTF-8"?>
<svg version="1.1" xmlns="http://www.w3.org/2000/svg" width="200" height="200">
<path d="M0 0 C66 0 132 0 200 0 C200 66 200 132 200 200 C134 200 68 200 0 200 C0 134 0 68 0 0 Z " fill="#014847" transform="translate(0,0)"/>
<path d="M0 0 C4.26832981 -0.09965569 8.53602469 -0.17183391 12.80517578 -0.21972656 C14.25418917 -0.23971295 15.70312325 -0.26691197 17.15185547 -0.30175781 C33.86128567 -0.69329512 33.86128567 -0.69329512 40.56884766 5.43286133 C45.96183698 12.0501696 44.56934914 21.40024951 44.375 29.4375 C44.35847127 31.0305776 44.34412881 32.62367946 44.33203125 34.21679688 C44.19652895 45.80347105 44.19652895 45.80347105 43 47 C41.16884117 47.09851171 39.33380067 47.12972629 37.5 47.125 C36.4996875 47.12757812 35.499375 47.13015625 34.46875 47.1328125 C32 47 32 47 31 46 C30.87782007 43.74439959 30.82019128 41.48525507 30.7890625 39.2265625 C30.76099128 37.83071749 30.7323268 36.43488431 30.703125 35.0390625 C30.66185998 32.83138388 30.62498717 30.62392544 30.59863281 28.41601562 C30.57103323 26.28989634 30.52516082 24.16479155 30.4765625 22.0390625 C30.45674316 20.76240723 30.43692383 19.48575195 30.41650391 18.17041016 C30.28474404 14.67576408 30.28474404 14.67576408 27 12 C20.07 11.505 20.07 11.505 13 11 C13 22.88 13 34.76 13 47 C9.04 47 5.08 47 1 47 C0 46 0 46 -0.12025452 44.13340759 C-0.11803391 43.31844315 -0.11581329 42.5034787 -0.11352539 41.66381836 C-0.11344986 40.7429393 -0.11337433 39.82206024 -0.11329651 38.87327576 C-0.10813522 37.87224319 -0.10297394 36.87121063 -0.09765625 35.83984375 C-0.0962413 34.82024063 -0.09482635 33.80063751 -0.09336853 32.75013733 C-0.08775097 29.47922893 -0.0751955 26.20838787 -0.0625 22.9375 C-0.05748726 20.72591244 -0.05292396 18.51432382 -0.04882812 16.30273438 C-0.03777584 10.86846643 -0.02102063 5.43423803 0 0 Z " fill="#FCFCFC" transform="translate(78,77)"/>
<path d="M0 0 C1.22244667 0.00333092 1.22244667 0.00333092 2.46958923 0.00672913 C3.39046829 0.00680466 4.31134735 0.00688019 5.26013184 0.00695801 C6.2611644 0.01211929 7.26219696 0.01728058 8.29356384 0.02259827 C9.31316696 0.02401321 10.33277008 0.02542816 11.38327026 0.02688599 C14.65417867 0.03250355 17.92501972 0.04505902 21.19590759 0.05775452 C23.40749515 0.06276725 25.61908377 0.06733055 27.83067322 0.07142639 C33.26494413 0.08247869 38.69916443 0.09975508 44.13340759 0.12025452 C44.13340759 4.74025452 44.13340759 9.36025452 44.13340759 14.12025452 C37.6006142 14.14489798 31.06784762 14.16308743 24.53501892 14.17518616 C22.31073028 14.18022768 20.08644496 14.18706074 17.86216736 14.19569397 C14.67262451 14.2077675 11.4831253 14.21348447 8.29356384 14.21791077 C6.792015 14.22565269 6.792015 14.22565269 5.26013184 14.23355103 C4.33925278 14.23362656 3.41837372 14.23370209 2.46958923 14.23377991 C1.24714256 14.23711082 1.24714256 14.23711082 0 14.24050903 C-1.86659241 14.12025452 -1.86659241 14.12025452 -2.86659241 13.12025452 C-2.96533057 11.1222588 -2.9963104 9.12068293 -2.99159241 7.12025452 C-2.99417053 6.02712952 -2.99674866 4.93400452 -2.99940491 3.80775452 C-2.82020991 0.18169097 -2.82020991 0.18169097 0 0 Z " fill="#2FDCD9" transform="translate(137.86659240722656,92.87974548339844)"/>
<path d="M0 0 C1.34644592 -0.00472824 1.34644592 -0.00472824 2.72009277 -0.009552 C4.18412537 -0.00651566 4.18412537 -0.00651566 5.67773438 -0.00341797 C6.67276978 -0.00437469 7.66780518 -0.00533142 8.69299316 -0.00631714 C10.80135155 -0.00699907 12.90971203 -0.0051439 15.01806641 -0.00097656 C18.25753465 0.0043715 21.49686423 -0.00092114 24.73632812 -0.00732422 C26.77929718 -0.00666344 28.82226615 -0.00538228 30.86523438 -0.00341797 C31.8412561 -0.0054422 32.81727783 -0.00746643 33.82287598 -0.009552 C34.72050659 -0.00639984 35.61813721 -0.00324768 36.54296875 0 C37.73424377 0.00119339 37.73424377 0.00119339 38.94958496 0.00241089 C40.77148438 0.12939453 40.77148438 0.12939453 41.77148438 1.12939453 C41.87022254 3.12739025 41.90120237 5.12896611 41.89648438 7.12939453 C41.90035156 8.76908203 41.90035156 8.76908203 41.90429688 10.44189453 C41.77148438 13.12939453 41.77148438 13.12939453 40.77148438 14.12939453 C39.36473218 14.22744304 37.95313302 14.25737639 36.54296875 14.25878906 C35.19652283 14.2635173 35.19652283 14.2635173 33.82287598 14.26834106 C32.35884338 14.26530472 32.35884338 14.26530472 30.86523438 14.26220703 C29.37268127 14.26364212 29.37268127 14.26364212 27.84997559 14.2651062 C25.7416172 14.26578813 23.63325672 14.26393297 21.52490234 14.25976562 C18.2854341 14.25441756 15.04610452 14.25971021 11.80664062 14.26611328 C9.76367157 14.2654525 7.7207026 14.26417134 5.67773438 14.26220703 C4.70171265 14.26423126 3.72569092 14.26625549 2.72009277 14.26834106 C1.82246216 14.2651889 0.92483154 14.26203674 0 14.25878906 C-0.79418335 14.25799347 -1.5883667 14.25719788 -2.40661621 14.25637817 C-4.22851562 14.12939453 -4.22851562 14.12939453 -5.22851562 13.12939453 C-5.32725379 11.13139881 -5.35823362 9.12982295 -5.35351562 7.12939453 C-5.35609375 6.03626953 -5.35867187 4.94314453 -5.36132812 3.81689453 C-5.14977655 -0.46391385 -3.87374367 0.00388062 0 0 Z " fill="#2FDDD9" transform="translate(23.228515625,92.87060546875)"/>
<path d="M0 0 C4.29 0 8.58 0 13 0 C13.02465098 4.96622349 13.04283649 9.93241166 13.05493164 14.89868164 C13.0599719 16.58944316 13.06680405 18.28020029 13.07543945 19.97094727 C13.08751857 22.39600707 13.09323123 24.82100944 13.09765625 27.24609375 C13.10281754 28.00651474 13.10797882 28.76693573 13.11329651 29.55039978 C13.11349238 31.3673257 13.06197277 33.18413127 13 35 C12.505 35.495 12.505 35.495 12 36 C8.04 36 4.08 36 0 36 C0 24.12 0 12.24 0 0 Z " fill="#30E1DE" transform="translate(94,28)"/>
<path d="M0 0 C4.29 0 8.58 0 13 0 C13 11.55 13 23.1 13 35 C8.71 35 4.42 35 0 35 C0 23.45 0 11.9 0 0 Z " fill="#31E3DF" transform="translate(94,137)"/>
<path d="M0 0 C1.27875 0.20625 2.5575 0.4125 3.875 0.625 C4.63830708 4.17938955 4.73158113 7.07697543 3.875 10.625 C2.17519554 12.94317664 0.63614418 14.814354 -1.375 16.8125 C-1.86524658 17.30596924 -2.35549316 17.79943848 -2.8605957 18.30786133 C-6.44239198 21.62747322 -6.44239198 21.62747322 -9.28125 21.6171875 C-11.36705675 20.49474064 -12.75716735 19.29063942 -14.375 17.5625 C-14.89578125 17.01464844 -15.4165625 16.46679688 -15.953125 15.90234375 C-16.33984375 15.48082031 -16.7265625 15.05929688 -17.125 14.625 C-14.22095598 7.8330282 -7.84618633 -0.07460716 0 0 Z " fill="#31E3DF" transform="translate(70.125,126.375)"/>
<path d="M0 0 C5.09647987 2.15266478 8.95487111 6.52095593 12.1640625 10.9140625 C12.95288417 14.42574451 12.83831884 17.39294605 12.1640625 20.9140625 C8.45590096 21.65569481 6.74258028 21.93221819 3.1640625 20.9140625 C-1.39764784 17.56464231 -5.11564233 13.14424584 -8.8359375 8.9140625 C-4.57480662 -0.21413988 -4.57480662 -0.21413988 0 0 Z " fill="#31E3DF" transform="translate(61.8359375,52.0859375)"/>
</svg>
