<?xml version="1.0" encoding="UTF-8"?>
<svg version="1.1" xmlns="http://www.w3.org/2000/svg" width="364" height="364">
<path d="M0 0 C120.12 0 240.24 0 364 0 C364 120.12 364 240.24 364 364 C243.88 364 123.76 364 0 364 C0 243.88 0 123.76 0 0 Z " fill="#FEFEFE" transform="translate(0,0)"/>
<path d="M0 0 C120.12 0 240.24 0 364 0 C364 120.12 364 240.24 364 364 C243.88 364 123.76 364 0 364 C0 243.88 0 123.76 0 0 Z M76.17578125 65.01171875 C74.42998626 66.60706821 72.66711898 68.09935732 70.8125 69.5625 C67.13418783 72.75037055 64.08520472 76.24277049 61 80 C60.23558594 80.92683594 59.47117188 81.85367188 58.68359375 82.80859375 C48.39880849 95.57598361 39.74909172 110.11824645 34 125.5 C33.61763184 126.522146 33.61763184 126.522146 33.22753906 127.56494141 C30.55896108 134.90605473 28.69873557 142.38441253 27 150 C26.78472656 150.94875 26.56945312 151.8975 26.34765625 152.875 C19.4911096 184.90558288 24.70834552 222.137408 40 251 C40.62591864 252.25019272 41.24957314 253.50152128 41.87109375 254.75390625 C48.03165652 266.96706156 55.64317363 277.82037612 64.98046875 287.828125 C66.75084138 289.73204605 68.41385768 291.67891151 70.0625 293.6875 C83.64817089 309.51297069 104.29653433 321.9823885 123.8125 328.8671875 C125.62205063 329.5102876 127.42414687 330.17907269 129.19335938 330.92602539 C135.52605887 333.59708371 141.77778669 335.29561695 148.5 336.6875 C149.95212891 337.00557617 149.95212891 337.00557617 151.43359375 337.33007812 C191.51259847 345.85695363 233.66465507 336.29674262 268.03808594 314.72070312 C277.92822112 308.20094921 286.73793969 300.47390801 295 292 C295.64195312 291.40316406 296.28390625 290.80632812 296.9453125 290.19140625 C311.56957323 276.3060019 320.9013141 258.22716902 329 240 C329.50917969 238.88625 330.01835937 237.7725 330.54296875 236.625 C345.1305365 200.33207005 342.86377821 158.18324275 328.8125 122.3125 C321.64196079 105.58852898 312.48931458 90.47109689 300.0078125 77.18359375 C298 75 298 75 295.96484375 72.42578125 C293.03006483 68.80252537 289.55880374 65.99276727 286 63 C284.81083984 61.96166016 284.81083984 61.96166016 283.59765625 60.90234375 C270.45142933 49.69345554 255.70096946 41.99594077 240 35 C238.84757813 34.47277344 237.69515625 33.94554687 236.5078125 33.40234375 C182.58245436 11.8442106 118.1628026 26.23901483 76.17578125 65.01171875 Z " fill="#935097" transform="translate(0,0)"/>
<path d="M0 0 C3.62979059 2.35264205 7.04192716 5.08385432 9 9 C9.61269097 18.64483665 8.4729862 28.17097634 7.28515625 37.72265625 C7.10745861 39.19981761 6.93050781 40.67706898 6.7542572 42.15440369 C6.29269925 46.00888767 5.8224316 49.86225409 5.34979248 53.71539307 C4.59494979 59.88226702 3.85409845 66.05083962 3.1123333 72.21929741 C2.85509432 74.34858779 2.59439846 76.47743035 2.33302307 78.60621643 C1.38379914 86.39343513 0.57936024 94.17596389 0 102 C0.77150391 101.99111755 1.54300781 101.98223511 2.33789062 101.9730835 C9.63457078 101.89269225 16.93103399 101.83191189 24.2280426 101.79275131 C27.97888189 101.77194103 31.72935302 101.74374533 35.47998047 101.69824219 C39.10452862 101.6545475 42.72872427 101.63081364 46.35351562 101.62049103 C47.73133894 101.61314168 49.10914455 101.59879054 50.48681641 101.57707977 C58.38795394 101.45760013 64.33571904 101.51103337 71 106 C73.56186508 109.01135344 74.83227341 112.01460629 75.5 115.9375 C74.27635133 123.43234809 69.3781028 129.54368722 64.9375 135.5 C63.76674919 137.09526909 62.59750352 138.69164376 61.4296875 140.2890625 C60.84928711 141.0821582 60.26888672 141.87525391 59.67089844 142.69238281 C57.24215681 146.04662972 54.89511458 149.45348406 52.5625 152.875 C48.47544768 158.86036087 44.34762254 164.81515944 40.1875 170.75 C39.598479 171.59030762 39.00945801 172.43061523 38.40258789 173.29638672 C37.20134297 175.00956009 35.99992604 176.72261286 34.79833984 178.43554688 C31.86275016 182.62173125 28.93156391 186.81099592 26 191 C24.83335519 192.66668197 23.6666885 194.33334862 22.5 196 C21.9225 196.825 21.345 197.65 20.75 198.5 C14.33333333 207.66666667 7.91666667 216.83333333 1.5 226 C0.92193604 226.82588623 0.34387207 227.65177246 -0.25170898 228.50268555 C-1.41237289 230.16061476 -2.5733404 231.81833146 -3.73461914 233.47583008 C-6.74571912 237.77444072 -9.7506292 242.07719509 -12.74609375 246.38671875 C-13.36419922 247.27423828 -13.98230469 248.16175781 -14.61914062 249.07617188 C-15.78780064 250.7544731 -16.95462356 252.43405585 -18.11914062 254.11523438 C-20.90317968 258.10914394 -23.73860462 262.06240629 -26.66015625 265.95703125 C-27.47625366 267.04914917 -27.47625366 267.04914917 -28.30883789 268.16333008 C-30.81161231 270.88144354 -32.99157283 271.85722715 -36.62109375 272.37109375 C-44.24455875 272.55084258 -44.24455875 272.55084258 -48 269.8125 C-55.92274959 258.6711334 -52.83000581 246.74240478 -51.3203125 233.74609375 C-51.14514041 232.19457156 -50.97058265 230.64297991 -50.79660034 229.09132385 C-50.33958088 225.02921976 -49.87477072 220.96804643 -49.40808105 216.90704346 C-48.94086035 212.83110187 -48.48029357 208.75441027 -48.01953125 204.67773438 C-47.48770598 199.9744939 -46.95558324 195.27129099 -46.42022705 190.56845093 C-45.22393148 180.05136649 -44.07121331 169.53061699 -43 159 C-44.01024986 159.0199855 -44.01024986 159.0199855 -45.04090881 159.04037476 C-52.06508239 159.17334962 -59.08889716 159.26370879 -66.11401367 159.32958984 C-68.73395313 159.35972085 -71.35379207 159.40063399 -73.97338867 159.45263672 C-77.74423043 159.52560691 -81.51373609 159.55949539 -85.28515625 159.5859375 C-86.45208511 159.61690521 -87.61901398 159.64787292 -88.82130432 159.67977905 C-94.19664115 159.68199239 -97.96802984 159.64860683 -102.20483398 156.11181641 C-105.77895727 152.49800263 -106.78069857 149.56517553 -107.484375 144.54296875 C-107.39795631 138.21226432 -103.33694215 133.66689636 -99.8125 128.6875 C-99.01592181 127.5321256 -98.2213977 126.37533288 -97.42871094 125.21728516 C-95.64150684 122.61018548 -93.84501454 120.00979728 -92.04345703 117.41259766 C-86.82949914 109.87600214 -81.73689952 102.25645512 -76.62075806 94.65332031 C-74.74243128 91.86375947 -72.86131067 89.07610398 -70.97924805 86.2890625 C-63.32163278 74.94795794 -55.70327848 63.58174796 -48.125 52.1875 C-40.31581287 40.44999973 -32.48263689 28.73118791 -24.47021484 17.13085938 C-23.54220946 15.78585256 -22.61758832 14.43849863 -21.69775391 13.08789062 C-16.24687943 5.09116636 -10.77546654 -2.77549896 0 0 Z " fill="#924F96" transform="translate(198,46)"/>
<path d="M0 0 C0.33 0 0.66 0 1 0 C1 54.12 1 108.24 1 164 C-55.1 164 -111.2 164 -169 164 C-169 163.67 -169 163.34 -169 163 C-168.25129639 162.90501221 -167.50259277 162.81002441 -166.73120117 162.7121582 C-147.16852701 160.18799051 -127.96024535 157.57246471 -110 149 C-109.39623535 148.71253906 -108.7924707 148.42507813 -108.17041016 148.12890625 C-93.93799277 141.30470811 -80.33689482 133.94504787 -68 124 C-67.443125 123.55140625 -66.88625 123.1028125 -66.3125 122.640625 C-40.94867128 102.03251417 -22.16483149 75.41219307 -11.0078125 44.671875 C-10 42 -10 42 -9.01098633 40.10717773 C-7.97206615 37.94177806 -7.37551045 35.94609533 -6.81640625 33.61328125 C-6.51029419 32.34037231 -6.51029419 32.34037231 -6.19799805 31.04174805 C-5.98828369 30.14109619 -5.77856934 29.24044434 -5.5625 28.3125 C-5.34440674 27.38800049 -5.12631348 26.46350098 -4.90161133 25.51098633 C-2.94398726 17.05935575 -1.38036618 8.56275932 0 0 Z " fill="#FEFDFE" transform="translate(363,200)"/>
<path d="M0 0 C54.12 0 108.24 0 164 0 C164 55.44 164 110.88 164 168 C163.67 168 163.34 168 163 168 C162.93006836 167.42258057 162.86013672 166.84516113 162.78808594 166.25024414 C156.85341961 118.08117187 136.70907996 73.28510925 98.09375 42.4140625 C96.56234375 41.21910156 96.56234375 41.21910156 95 40 C94.44957031 39.5678418 93.89914062 39.13568359 93.33203125 38.69042969 C78.15163782 26.86166245 62.01772841 18.49729755 44.00439453 11.80273438 C42 11 42 11 40.03173828 9.97436523 C37.81524656 8.91139738 35.75612715 8.35613472 33.359375 7.81640625 C32.46041504 7.61233154 31.56145508 7.40825684 30.63525391 7.19799805 C29.68312012 6.98828369 28.73098633 6.77856934 27.75 6.5625 C26.28892822 6.23536011 26.28892822 6.23536011 24.79833984 5.90161133 C16.56495616 4.0784953 8.30462519 2.46342249 0 1 C0 0.67 0 0.34 0 0 Z " fill="#FEFDFE" transform="translate(200,0)"/>
<path d="M0 0 C0.33 0 0.66 0 1 0 C1.13051758 0.70906494 1.26103516 1.41812988 1.39550781 2.14868164 C10.90000861 53.47881183 33.01495255 99.7409552 77.05859375 130.28027344 C90.06646209 139.12314407 104.17530066 147.9269959 119.4296875 152.21875 C122 153 122 153 125.171875 154.43359375 C129.75020994 156.43746622 134.51032443 157.48113077 139.375 158.5625 C140.33293457 158.77865967 141.29086914 158.99481934 142.27783203 159.2175293 C150.80156598 161.07780628 159.31636092 162.2283769 168 163 C168 163.33 168 163.66 168 164 C112.56 164 57.12 164 0 164 C0 109.88 0 55.76 0 0 Z " fill="#FEFDFE" transform="translate(0,200)"/>
<path d="M0 0 C56.76 0 113.52 0 172 0 C172 0.33 172 0.66 172 1 C171.4423999 1.04487549 170.8847998 1.08975098 170.31030273 1.13598633 C120.67293726 5.23036789 75.30471914 26.61226752 42.6875 64.9375 C29.95682326 80.90066162 17.35766652 99.60916356 11.78125 119.4296875 C11 122 11 122 9.56640625 125.171875 C7.56253378 129.75020994 6.51886923 134.51032443 5.4375 139.375 C5.22134033 140.33293457 5.00518066 141.29086914 4.7824707 142.27783203 C2.92219372 150.80156598 1.7716231 159.31636092 1 168 C0.67 168 0.34 168 0 168 C0 112.56 0 57.12 0 0 Z " fill="#FEFEFE" transform="translate(0,0)"/>
</svg>
