<?xml version="1.0" encoding="UTF-8"?>
<svg version="1.1" xmlns="http://www.w3.org/2000/svg" width="180" height="180">
<path d="M0 0 C0.84691406 0.43957031 1.69382813 0.87914062 2.56640625 1.33203125 C22.86657785 12.6388684 37.28415178 31.89366626 44 54 C50.45532515 78.91026681 47.23268714 103.62009001 34.1875 125.8125 C30.34804525 131.78417103 25.93223055 136.91420183 21 142 C20.46117187 142.61230469 19.92234375 143.22460938 19.3671875 143.85546875 C6.13932247 158.37953161 -15.74906766 166.90338964 -34.9855957 168.1262207 C-59.21748815 169.02517797 -81.14751213 162.74531857 -100 147 C-100.65484375 146.49082031 -101.3096875 145.98164063 -101.984375 145.45703125 C-118.14008688 132.37090463 -128.39666769 111.41687467 -131 91 C-132.44488437 65.90859372 -128.43335365 42.77521102 -112 23 C-111.2884375 22.13761719 -110.576875 21.27523437 -109.84375 20.38671875 C-82.61902877 -11.19970958 -36.73681805 -19.57653257 0 0 Z M-98.83203125 33.171875 C-112.20455931 50.61639809 -116.47039708 70.69876754 -113.69970703 92.34619141 C-111.33444442 105.17887099 -105.29629136 116.11590169 -97 126 C-96.278125 126.99 -95.55625 127.98 -94.8125 129 C-84.11733779 141.49499534 -66.02172557 149.85718334 -49.84326172 151.17578125 C-30.46713497 152.31963862 -10.91871902 147.95622798 4.02734375 134.91943359 C6.43820315 132.69030882 8.72032069 130.36372278 11 128 C11.66386719 127.36707031 12.32773438 126.73414063 13.01171875 126.08203125 C24.82865754 114.05265311 30.2742694 95.49949606 30.5 79 C30.22796478 59.11592533 22.29034963 40.59659578 8.41894531 26.37060547 C-6.44059802 12.01728884 -25.37700549 6.33170566 -45.57910156 6.52954102 C-66.64467509 7.18283163 -85.13079083 17.36088606 -98.83203125 33.171875 Z " fill="#A860AC" transform="translate(132,11)"/>
<path d="M0 0 C2 2 2 2 2.265625 3.81591797 C2.21003636 12.00308197 1.10813215 20.0296856 0 28.125 C-0.19330443 29.57283721 -0.38601717 31.02075354 -0.578125 32.46875 C-1.04527248 35.98010422 -1.52039307 39.49032321 -2 43 C-1.13721436 42.98428955 -0.27442871 42.9685791 0.61450195 42.95239258 C3.81809267 42.90124045 7.02147515 42.8636384 10.2253418 42.83520508 C11.61147919 42.82012603 12.99756894 42.7996595 14.38354492 42.77368164 C16.37658146 42.73726284 18.36996723 42.72186982 20.36328125 42.70703125 C21.56251221 42.6913208 22.76174316 42.67561035 23.99731445 42.65942383 C27 43 27 43 28.87915039 44.35473633 C30.77189093 47.13303703 30.55894418 48.68461877 30 52 C28.24497731 55.25264205 26.07558908 58.16160169 23.875 61.125 C22.58035842 62.91900334 21.28609803 64.71328182 19.9921875 66.5078125 C19.32670898 67.42079102 18.66123047 68.33376953 17.97558594 69.27441406 C14.92868889 73.47801745 11.96678038 77.73968312 9 82 C7.8466795 83.64606133 6.69303161 85.29189332 5.5390625 86.9375 C3.06439751 90.47154872 0.6031054 94.01453512 -1.8515625 97.5625 C-2.48320313 98.47257812 -3.11484375 99.38265625 -3.765625 100.3203125 C-4.97469267 102.06279238 -6.18059948 103.80747125 -7.3828125 105.5546875 C-12.86005959 113.4346892 -12.86005959 113.4346892 -16 116 C-19.13793455 116.44827636 -21.03882547 116.69049652 -23.66625977 114.80297852 C-28.37294596 108.44037966 -24.4067107 93.94836197 -23.5625 86.5625 C-23.42779297 85.32306641 -23.29308594 84.08363281 -23.15429688 82.80664062 C-22.60227613 77.82229718 -22.05172436 72.90710206 -21 68 C-21.64026123 68.01571045 -22.28052246 68.0314209 -22.94018555 68.04760742 C-25.85586631 68.11017115 -28.77140555 68.14905808 -31.6875 68.1875 C-32.69490234 68.21263672 -33.70230469 68.23777344 -34.74023438 68.26367188 C-38.86894012 68.30455015 -42.27232823 68.24373902 -46.20703125 66.92578125 C-48 65 -48 65 -48.65234375 61.8515625 C-47.77918974 56.69629394 -45.56628125 53.58097296 -42.5625 49.375 C-41.29736126 47.54483452 -40.03311665 45.71405078 -38.76953125 43.8828125 C-38.03686035 42.83125977 -37.30418945 41.77970703 -36.54931641 40.69628906 C-33.50755952 36.30772697 -30.54347239 31.86747426 -27.57421875 27.4296875 C-25.8698295 24.88678725 -24.16503134 22.34416152 -22.46017456 19.80157471 C-21.31900382 18.09895179 -20.17864454 16.39578471 -19.03909302 14.69207764 C-17.42119705 12.27602515 -15.79731216 9.86410826 -14.171875 7.453125 C-13.67970993 6.71552948 -13.18754486 5.97793396 -12.6804657 5.21798706 C-8.56480623 -0.86678278 -7.24819487 -1.42375256 0 0 Z " fill="#A860AC" transform="translate(99,32)"/>
</svg>
